<?xml version="1.0" encoding="UTF-8"?>
<svg id="Camada_2" xmlns="http://www.w3.org/2000/svg" viewBox="0 0 185.85 97.3">
  <defs>
    <style>
      .cls-1 {
        fill: #ebc894;
      }

      .cls-2 {
        fill: #efe4d1;
      }
    </style>
  </defs>
  <g id="Camada_1-2" data-name="Camada_1">
    <g>
      <g>
        <path class="cls-1" d="M13.92,92.52H3.62l-2.29,4.53H0l8.97-17.49h.89l8.45,17.49h-2.27l-2.12-4.53ZM13.43,91.46l-4.46-9.54-4.8,9.54h9.26Z"/>
        <path class="cls-1" d="M20.35,79.8h6.46c3.17,0,5.57.71,7.21,2.12,1.63,1.41,2.45,3.48,2.45,6.21s-.83,5.02-2.49,6.58c-1.66,1.56-4,2.34-7.02,2.34h-6.6v-17.25ZM27.33,95.99c2.27,0,4.02-.68,5.26-2.05,1.24-1.36,1.86-3.3,1.86-5.81,0-2.38-.6-4.19-1.8-5.42-1.2-1.23-2.97-1.85-5.32-1.85h-4.95v15.13h4.95Z"/>
        <path class="cls-1" d="M36.49,79.8h2.29l7.07,15.03,7.64-15.03h1.33l-8.94,17.49h-.89l-8.5-17.49Z"/>
        <path class="cls-1" d="M59.28,96.24c-1.36-.71-2.4-1.73-3.12-3.07-.71-1.34-1.07-2.94-1.07-4.82s.36-3.42,1.08-4.74c.72-1.32,1.77-2.33,3.13-3.02,1.36-.69,2.99-1.04,4.88-1.04s3.51.35,4.87,1.04,2.39,1.7,3.12,3.02c.72,1.32,1.08,2.9,1.08,4.74s-.36,3.48-1.07,4.82c-.71,1.34-1.75,2.36-3.12,3.07-1.36.71-2.99,1.06-4.88,1.06s-3.54-.35-4.9-1.06ZM69.39,94.17c1.23-1.38,1.85-3.32,1.85-5.81s-.61-4.37-1.84-5.72c-1.22-1.35-2.96-2.02-5.21-2.02s-3.99.67-5.22,2.02c-1.23,1.35-1.85,3.25-1.85,5.72s.62,4.44,1.85,5.81c1.23,1.38,2.97,2.07,5.22,2.07s3.97-.69,5.2-2.07Z"/>
        <path class="cls-1" d="M78.45,94.98c-1.63-1.54-2.44-3.72-2.44-6.53,0-1.84.36-3.43,1.07-4.77.71-1.34,1.74-2.36,3.08-3.07,1.34-.71,2.94-1.06,4.79-1.06,2.3,0,4.19.5,5.67,1.49,1.48.99,2.38,2.37,2.71,4.13h-1.87c-.31-1.46-1.02-2.59-2.13-3.38-1.11-.79-2.54-1.18-4.3-1.18-2.2,0-3.92.69-5.15,2.06-1.23,1.37-1.85,3.29-1.85,5.75s.64,4.42,1.91,5.78c1.27,1.36,3.08,2.03,5.43,2.03,2.18,0,4.05-.48,5.59-1.45v-5.72h-6.09v-.99h8.11v6.9c-1.99,1.54-4.53,2.32-7.64,2.32s-5.27-.77-6.9-2.32Z"/>
        <path class="cls-1" d="M108.81,92.52h-10.3l-2.29,4.53h-1.33l8.97-17.49h.89l8.45,17.49h-2.27l-2.12-4.53ZM108.32,91.46l-4.46-9.54-4.8,9.54h9.26Z"/>
        <path class="cls-1" d="M115.24,79.8h6.46c3.17,0,5.57.71,7.21,2.12,1.63,1.41,2.45,3.48,2.45,6.21s-.83,5.02-2.49,6.58c-1.66,1.56-4,2.34-7.02,2.34h-6.6v-17.25ZM122.21,95.99c2.27,0,4.02-.68,5.26-2.05,1.24-1.36,1.86-3.3,1.86-5.81,0-2.38-.6-4.19-1.8-5.42-1.2-1.23-2.97-1.85-5.32-1.85h-4.95v15.13h4.95Z"/>
        <path class="cls-1" d="M138.3,96.24c-1.36-.71-2.4-1.73-3.12-3.07-.71-1.34-1.07-2.94-1.07-4.82s.36-3.42,1.08-4.74c.72-1.32,1.77-2.33,3.13-3.02,1.36-.69,2.99-1.04,4.88-1.04s3.51.35,4.87,1.04,2.39,1.7,3.12,3.02c.72,1.32,1.08,2.9,1.08,4.74s-.36,3.48-1.07,4.82c-.71,1.34-1.75,2.36-3.12,3.07-1.36.71-2.99,1.06-4.88,1.06s-3.54-.35-4.9-1.06ZM148.4,94.17c1.23-1.38,1.85-3.32,1.85-5.81s-.61-4.37-1.84-5.72c-1.22-1.35-2.96-2.02-5.21-2.02s-3.99.67-5.22,2.02c-1.23,1.35-1.85,3.25-1.85,5.72s.62,4.44,1.85,5.81,2.97,2.07,5.22,2.07,3.97-.69,5.2-2.07Z"/>
        <path class="cls-1" d="M157.42,95.88c-1.38-.94-2.15-2.31-2.32-4.1h1.85c.13,1.53.7,2.65,1.7,3.38,1,.72,2.47,1.08,4.41,1.08,1.77,0,3.14-.31,4.1-.94.96-.62,1.44-1.5,1.44-2.64,0-.69-.19-1.27-.55-1.74-.37-.47-.99-.88-1.86-1.23-.87-.35-2.08-.68-3.62-.97-1.63-.31-2.95-.67-3.97-1.06-1.02-.39-1.78-.89-2.29-1.48s-.76-1.32-.76-2.19c0-1.41.67-2.5,2-3.28,1.33-.77,3.1-1.16,5.3-1.16s3.85.39,5.1,1.18c1.25.79,1.99,1.91,2.22,3.35h-1.85c-.25-1.2-.83-2.08-1.76-2.64-.93-.56-2.22-.84-3.88-.84s-2.9.27-3.78.8c-.88.53-1.32,1.29-1.32,2.25,0,.59.17,1.09.52,1.5.35.41.92.77,1.74,1.08s1.96.62,3.44.91c1.77.35,3.19.74,4.25,1.17,1.06.44,1.84.98,2.35,1.64.51.66.76,1.48.76,2.46,0,1.53-.67,2.72-2.01,3.57-1.34.85-3.17,1.28-5.51,1.28s-4.31-.47-5.69-1.42Z"/>
      </g>
      <g>
        <path class="cls-2" d="M53.42,32.05c4.79-1.37,8.58-3.44,11.38-6.2,2.8-2.77,4.2-5.89,4.2-9.38,0-3.05-1.18-5.75-3.54-8.12-2.36-2.36-5.68-4.2-9.93-5.5-4.26-1.31-9.16-1.96-14.69-1.96h-16.97c-8.81,0-15.96,7.14-15.96,15.96v49.34h35.17c9.52,0,16.85-1.55,22.02-4.66,5.16-3.11,7.74-7.52,7.74-13.25,0-8.89-6.47-14.3-19.4-16.23ZM23.75,16.31c0-5.32,4.32-9.64,9.64-9.64h4.26c4.97,0,8.83.89,11.57,2.66,2.74,1.77,4.1,4.34,4.1,7.7,0,4.04-1.39,7.12-4.15,9.24-2.77,2.12-6.7,3.17-11.8,3.17h-13.62v-13.12ZM53.6,57.23c-2.24,2.12-5.44,3.17-9.61,3.17h-20.24v-25.19h13.06c6.53,0,11.52,1.07,14.97,3.22s5.18,5.27,5.18,9.38-1.12,7.31-3.36,9.42Z"/>
        <path class="cls-2" d="M76.68,61.29c-6-3.86-9.16-9.27-9.47-16.23h12.59c.31,5.72,2.19,9.86,5.64,12.41,3.45,2.55,8.54,3.82,15.25,3.82,5.53,0,9.61-.96,12.22-2.89,2.61-1.93,3.92-4.79,3.92-8.58,0-2.05-.47-3.82-1.4-5.32-.93-1.49-2.75-2.86-5.46-4.1-2.71-1.24-6.67-2.36-11.89-3.36-8.21-1.62-15.13-3.92-20.76-6.9-5.63-2.99-8.44-7.37-8.44-13.15C68.89,5.66,79.18,0,99.77,0,109.85,0,117.45,1.67,122.58,4.99c5.13,3.33,7.94,7.76,8.44,13.29h-12.41c-.87-4.54-2.92-7.76-6.16-9.66-3.23-1.9-7.65-2.85-13.25-2.85-4.91,0-8.57.84-10.96,2.52-2.39,1.68-3.59,3.82-3.59,6.44,0,1.43.42,2.71,1.26,3.82.84,1.12,2.55,2.22,5.13,3.31,2.58,1.09,6.36,2.19,11.33,3.31,7.03,1.56,12.59,3.11,16.7,4.66,4.1,1.56,7.4,3.78,9.89,6.67,2.49,2.89,3.73,6.73,3.73,11.52,0,3.98-1.32,7.4-3.96,10.26-2.64,2.86-6.36,5.04-11.15,6.53-4.79,1.49-10.35,2.24-16.7,2.24-10.14,0-18.21-1.93-24.21-5.78Z"/>
        <path class="cls-2" d="M143.04,5.78h-27.05L99.18,0h86.67v5.78h-27.05v59.52h-15.77V5.78Z"/>
      </g>
    </g>
  </g>
</svg>