<?xml version="1.0" encoding="UTF-8"?>
<svg id="Camada_2" xmlns="http://www.w3.org/2000/svg" viewBox="0 0 177.94 67.05">
  <defs>
    <style>
      .cls-1 {
        fill: #efe4d1;
      }
    </style>
  </defs>
  <g id="Camada_2-2" data-name="Camada_2">
    <g>
      <path class="cls-1" d="M45.51,32.05c4.79-1.37,8.58-3.44,11.38-6.2,2.8-2.77,4.2-5.89,4.2-9.38,0-3.05-1.18-5.75-3.54-8.12-2.36-2.36-5.68-4.2-9.93-5.5-4.26-1.31-9.16-1.96-14.69-1.96H15.96C7.15.89,0,8.03,0,16.85v49.34h35.17c9.52,0,16.85-1.55,22.02-4.66,5.16-3.11,7.74-7.52,7.74-13.25,0-8.89-6.47-14.3-19.4-16.23h-.02ZM15.84,16.31c0-5.32,4.32-9.64,9.64-9.64h4.26c4.97,0,8.83.89,11.57,2.66,2.74,1.77,4.1,4.34,4.1,7.7,0,4.04-1.39,7.12-4.15,9.24-2.77,2.12-6.7,3.17-11.8,3.17h-13.62v-13.12h0ZM45.69,57.23c-2.24,2.12-5.44,3.17-9.61,3.17H15.84v-25.19h13.06c6.53,0,11.52,1.07,14.97,3.22s5.18,5.27,5.18,9.38-1.12,7.31-3.36,9.42Z"/>
      <path class="cls-1" d="M68.77,61.29c-6-3.86-9.16-9.27-9.47-16.23h12.59c.31,5.72,2.19,9.86,5.64,12.41s8.54,3.82,15.25,3.82c5.53,0,9.61-.96,12.22-2.89s3.92-4.79,3.92-8.58c0-2.05-.47-3.82-1.4-5.32-.93-1.49-2.75-2.86-5.46-4.1-2.71-1.24-6.67-2.36-11.89-3.36-8.21-1.62-15.13-3.92-20.76-6.9-5.63-2.99-8.44-7.37-8.44-13.15.01-11.33,10.3-16.99,30.89-16.99,10.08,0,17.68,1.67,22.81,4.99,5.13,3.33,7.94,7.76,8.44,13.29h-12.41c-.87-4.54-2.92-7.76-6.16-9.66-3.23-1.9-7.65-2.85-13.25-2.85-4.91,0-8.57.84-10.96,2.52-2.39,1.68-3.59,3.82-3.59,6.44,0,1.43.42,2.71,1.26,3.82.84,1.12,2.55,2.22,5.13,3.31,2.58,1.09,6.36,2.19,11.33,3.31,7.03,1.56,12.59,3.11,16.7,4.66,4.1,1.56,7.4,3.78,9.89,6.67,2.49,2.89,3.73,6.73,3.73,11.52,0,3.98-1.32,7.4-3.96,10.26-2.64,2.86-6.36,5.04-11.15,6.53s-10.35,2.24-16.7,2.24c-10.14,0-18.21-1.93-24.21-5.78v.02Z"/>
      <path class="cls-1" d="M135.13,5.78h-27.05L91.27,0h86.67v5.78h-27.05v59.52h-15.77V5.78h0Z"/>
    </g>
  </g>
</svg>