<?xml version="1.0" encoding="UTF-8"?>
<svg id="Camada_2" data-name="Camada 2" xmlns="http://www.w3.org/2000/svg" viewBox="0 0 520.24 147.63">
  <defs>
    <style>
      .cls-1 {
        fill: #ebc894;
      }

      .cls-2 {
        fill: #efe4d1;
      }
    </style>
  </defs>
  <g id="Camada_1-2" data-name="Camada 1">
    <g>
      <path class="cls-1" d="M82.22,63.85c.33,0,.65.01.98.03-.12,0-.23,0-.35,0-.26,0-.5-.01-.75-.04h.12Z"/>
      <path class="cls-1" d="M84.03,63.83c-.45.09-.91.14-1.39.14s-.94-.05-1.39-.14h2.77Z"/>
      <path class="cls-1" d="M82.65,49.73c-.39,0-.77,0-1.16.03.06,0,.12-.02.18-.03.32-.05.64-.07.98-.07.39,0,.78.03,1.16.09-.38-.02-.77-.03-1.16-.03Z"/>
      <rect class="cls-1" x="75.74" y="82.94" width="14.24" height="64.7"/>
      <path class="cls-1" d="M61.4,104.51h7.06v43.13h-14.24v-35.95c0-3.96,3.22-7.17,7.17-7.17Z"/>
      <path class="cls-1" d="M96.83,104.51h5.15c5.02,0,9.09,4.07,9.09,9.09v33.29c0,.42-.34.75-.75.75h-12.73c-.42,0-.75-.34-.75-.75v-42.37h0Z"/>
      <path class="cls-1" d="M165.29,78.81c-.38,15.1-12.5,27.36-27.25,27.58-15.46.23-28.07-12.54-28.07-28.33v-.02c0-.94.86-1.62,1.75-1.4l10.23,2.62c.75.19,1.31.82,1.46,1.6,1.36,6.93,7.64,12.04,14.96,11.33,6.6-.63,11.9-6.1,12.48-12.86.69-8.08-5.24-14.91-12.86-15.45h-.02c-.32-.02-.63-.03-.95-.03h-.12c-.08,0-.15-.01-.22-.03H27.6c-7.96.04-14.34,6.94-13.78,15.23.46,6.88,5.82,12.51,12.53,13.14,7.14.67,13.3-4.2,14.83-10.89.26-1.12,1.08-2.01,2.17-2.29l10-2.56c1.01-.26,1.98.52,1.98,1.58v.02c0,16.09-13.1,29.05-28.96,28.3C12.2,105.69.71,93.94.03,79.44c-.75-16.23,11.83-29.64,27.5-29.72h109.15c-.06,0-.12.02-.18.03.38-.02.75-.03,1.13-.03s.75,0,1.13.03c14.99.62,26.92,13.46,26.52,29.05Z"/>
      <path class="cls-1" d="M82.1,49.99l-.04-.48.18-.03h.88s.09,0,.13,0v.48c-.38,0-.77,0-1.15.03Z"/>
      <path class="cls-1" d="M141.64,22.33c-1.34-4.5-5.59-7.64-10.32-7.64H42.69c-1.23,0-2.51-2.49-2.55-3.93-.02-.74.28-1.43.84-1.92.46-.4,1.06-.59,1.67-.59h78.16c.76,0,1.38-.62,1.38-1.38l-8-5.97c-.79-.59-1.75-.91-2.74-.91H42.56c-4.73,0-8.97,3.14-10.32,7.64-.3.99-.45,2.02-.45,3.06,0,.89.13,3.58.45,4.63,1.34,4.5,5.59,7.64,10.32,7.64h88.64c1.37,0,2.52,1.06,2.55,2.36.03.98-.53,2.63-1.4,3.53-.24.25-.61.54-1.03.54H36.15c-1.49,0-2.95.44-4.19,1.26l-8.77,5.82c0,.65.53,1.18,1.18,1.18h106.95c4.73,0,8.97-3.14,10.32-7.64.32-1.05.45-3.73.45-4.63,0-1.04-.15-2.07-.45-3.06Z"/>
    </g>
    <g>
      <path class="cls-2" d="M243.27,34.43c3.85-1.1,6.9-2.76,9.15-4.99,2.25-2.22,3.37-4.74,3.37-7.54,0-2.45-.95-4.62-2.85-6.52-1.9-1.9-4.56-3.37-7.99-4.42-3.43-1.05-7.36-1.57-11.81-1.57h-13.64c-7.08,0-12.83,5.74-12.83,12.83v39.67h28.27c7.65,0,13.55-1.25,17.7-3.75,4.15-2.5,6.22-6.05,6.22-10.65,0-7.15-5.2-11.5-15.6-13.05ZM219.42,21.78c0-4.28,3.47-7.75,7.75-7.75h3.42c4,0,7.1.71,9.3,2.14,2.2,1.42,3.3,3.49,3.3,6.19,0,3.25-1.11,5.73-3.34,7.42-2.23,1.7-5.39,2.55-9.49,2.55h-10.95v-10.55ZM243.42,54.67c-1.8,1.7-4.38,2.55-7.72,2.55h-16.27v-20.25h10.5c5.25,0,9.26.86,12.04,2.59s4.16,4.24,4.16,7.54-.9,5.88-2.7,7.57Z"/>
      <path class="cls-2" d="M309,58.12c.92,1.85,1.79,2.75,2.59,2.7v1.05h-12.45c-.95-1-1.81-2.27-2.59-3.82-.78-1.55-1.59-3.5-2.44-5.85-1.25-3.3-2.43-5.87-3.52-7.72-1.1-1.85-2.52-3.12-4.27-3.82h-12.22v21.22h-11.82c-.47,0-.85-.38-.85-.85V9.38h23.77c7.85,0,13.91,1.18,18.19,3.52,4.27,2.35,6.41,6.35,6.41,12,0,7.65-4.12,12.47-12.37,14.47,1.7,1.05,3.19,2.44,4.46,4.16,1.27,1.73,2.49,3.96,3.64,6.71,1.4,3.4,2.56,6.03,3.49,7.87ZM274.09,36h11.17c3.8,0,6.74-.77,8.81-2.32,2.07-1.55,3.11-4.47,3.11-8.77s-1.04-7.06-3.11-8.59c-2.08-1.52-5.01-2.29-8.81-2.29h-11.17v21.97Z"/>
      <path class="cls-2" d="M315.11,9.38h12.75v52.49h-12.75V9.38Z"/>
      <path class="cls-2" d="M352.9,14.03h-21.75v-2.13c0-1.39,1.13-2.51,2.51-2.51h51.14c1.39,0,2.51,1.13,2.51,2.51v2.13h-21.75v47.84h-12.67V14.03Z"/>
      <path class="cls-2" d="M400.75,59.4c-4.55-2.15-8.04-5.26-10.46-9.34-2.43-4.07-3.64-8.96-3.64-14.66s1.21-10.4,3.64-14.4c2.42-4,5.91-7.06,10.46-9.19,4.55-2.12,9.95-3.19,16.2-3.19s11.57,1.06,16.12,3.19c4.55,2.13,8.04,5.19,10.46,9.19,2.42,4,3.64,8.8,3.64,14.4s-1.21,10.59-3.64,14.66c-2.43,4.08-5.9,7.19-10.42,9.34-4.53,2.15-9.91,3.22-16.16,3.22s-11.65-1.07-16.2-3.22ZM429.84,52.2c2.95-3.85,4.42-9.45,4.42-16.8s-1.47-12.69-4.42-16.46c-2.95-3.77-7.25-5.66-12.9-5.66s-9.96,1.89-12.94,5.66c-2.97,3.78-4.46,9.26-4.46,16.46s1.47,12.95,4.42,16.8c2.95,3.85,7.27,5.77,12.97,5.77s9.95-1.92,12.9-5.77Z"/>
      <path class="cls-2" d="M212.97,134.36c-4.83-3.1-7.36-7.45-7.61-13.05h10.12c.25,4.6,1.76,7.92,4.54,9.97,2.77,2.05,6.86,3.07,12.26,3.07,4.45,0,7.72-.77,9.82-2.32,2.1-1.55,3.15-3.85,3.15-6.9,0-1.65-.38-3.07-1.12-4.27-.75-1.2-2.21-2.3-4.39-3.3-2.17-1-5.36-1.9-9.56-2.7-6.6-1.3-12.16-3.15-16.69-5.55-4.53-2.4-6.79-5.92-6.79-10.57,0-9.1,8.27-13.65,24.82-13.65,8.1,0,14.21,1.34,18.34,4.01,4.12,2.67,6.39,6.24,6.79,10.69h-9.97c-.7-3.65-2.35-6.24-4.95-7.76-2.6-1.52-6.15-2.29-10.65-2.29-3.95,0-6.89.67-8.81,2.02-1.93,1.35-2.89,3.07-2.89,5.17,0,1.15.34,2.17,1.01,3.07.67.9,2.05,1.79,4.12,2.66,2.07.88,5.11,1.76,9.11,2.66,5.65,1.25,10.12,2.5,13.42,3.75,3.3,1.25,5.95,3.04,7.95,5.36,2,2.32,3,5.41,3,9.26,0,3.2-1.06,5.95-3.19,8.25-2.13,2.3-5.11,4.05-8.96,5.25-3.85,1.2-8.32,1.8-13.42,1.8-8.15,0-14.64-1.55-19.46-4.65Z"/>
      <path class="cls-2" d="M264.98,85.76h12.75v52.49h-12.75v-52.49Z"/>
      <path class="cls-2" d="M349.27,85.76v52.49h-12.82v-36.97l-15.82,36.97h-7.87l-19.8-38.17v38.17h-7.05v-49.72c0-1.53,1.24-2.78,2.78-2.78h10.2l20.32,39.44,17.02-39.44h13.05Z"/>
      <path class="cls-2" d="M367.56,135.78c-4.55-2.15-8.04-5.26-10.46-9.34-2.43-4.07-3.64-8.96-3.64-14.66s1.21-10.4,3.64-14.4c2.42-4,5.91-7.06,10.46-9.19,4.55-2.12,9.95-3.19,16.2-3.19s11.57,1.06,16.12,3.19c4.55,2.13,8.04,5.19,10.46,9.19,2.42,4,3.64,8.8,3.64,14.4s-1.21,10.59-3.64,14.66c-2.43,4.08-5.9,7.19-10.42,9.34-4.53,2.15-9.91,3.22-16.16,3.22s-11.65-1.07-16.2-3.22ZM396.66,128.58c2.95-3.85,4.42-9.45,4.42-16.8s-1.47-12.69-4.42-16.46c-2.95-3.77-7.25-5.66-12.9-5.66s-9.96,1.89-12.94,5.66c-2.97,3.78-4.46,9.26-4.46,16.46s1.47,12.95,4.42,16.8c2.95,3.85,7.27,5.77,12.97,5.77s9.95-1.92,12.9-5.77ZM371.76,73.2c1.6-1.88,3.65-2.81,6.15-2.81,1.6,0,3.01.3,4.24.9,1.22.6,2.49,1.45,3.79,2.55.95.75,1.79,1.33,2.51,1.72.72.4,1.44.6,2.14.6,1.6,0,2.91-.54,3.94-1.61,1.02-1.07,1.54-2.46,1.54-4.16h2.1c0,3-.78,5.44-2.32,7.31-1.55,1.87-3.58,2.81-6.07,2.81-1.65,0-3.04-.27-4.16-.83-1.12-.55-2.31-1.32-3.56-2.32-.9-.7-1.68-1.22-2.32-1.57-.65-.35-1.38-.53-2.17-.53-1.75,0-3.19.49-4.31,1.46-1.13.97-1.69,2.24-1.69,3.79h-2.17c0-3,.8-5.44,2.4-7.31Z"/>
      <path class="cls-2" d="M418.18,85.76h48.52v4.65h-35.77v17.4h31.65v4.65h-31.65v21.15h35.77v4.65h-48.52v-52.49Z"/>
      <path class="cls-2" d="M475.21,134.36c-4.83-3.1-7.36-7.45-7.61-13.05h8.87c.7,0,1.28.53,1.36,1.23.44,3.97,1.92,6.88,4.44,8.75,2.77,2.05,6.86,3.07,12.26,3.07,4.45,0,7.72-.77,9.82-2.32,2.1-1.55,3.15-3.85,3.15-6.9,0-1.65-.37-3.07-1.12-4.27s-2.21-2.3-4.39-3.3c-2.18-1-5.36-1.9-9.56-2.7-6.6-1.3-12.16-3.15-16.69-5.55-4.53-2.4-6.79-5.92-6.79-10.57,0-9.1,8.27-13.65,24.82-13.65,8.1,0,14.21,1.34,18.34,4.01,3.75,2.43,5.96,5.6,6.63,9.5.11.62-.38,1.18-1.01,1.18h-7.98c-.47,0-.88-.32-.99-.77-.78-3.24-2.37-5.57-4.78-6.99-2.6-1.52-6.15-2.29-10.65-2.29-3.95,0-6.89.67-8.81,2.02-1.93,1.35-2.89,3.07-2.89,5.17,0,1.15.34,2.17,1.01,3.07.67.9,2.05,1.79,4.12,2.66,2.07.88,5.11,1.76,9.11,2.66,5.65,1.25,10.12,2.5,13.42,3.75,3.3,1.25,5.95,3.04,7.95,5.36,2,2.32,3,5.41,3,9.26,0,3.2-1.06,5.95-3.19,8.25-2.13,2.3-5.11,4.05-8.96,5.25-3.85,1.2-8.32,1.8-13.42,1.8-8.15,0-14.64-1.55-19.46-4.65Z"/>
    </g>
  </g>
</svg>