<?xml version="1.0" encoding="UTF-8"?>
<svg id="Camada_2" xmlns="http://www.w3.org/2000/svg" viewBox="0 0 89.83 89.87">
  <defs>
    <style>
      .cls-1 {
        fill: #fee0b8;
      }

      .cls-2 {
        fill: #173a4a;
      }
    </style>
  </defs>
  <g id="Camada_1-2" data-name="Camada_1">
    <rect class="cls-2" width="89.83" height="89.87" rx="24.8" ry="24.8"/>
    <g>
      <path class="cls-1" d="M44.25,43.4c.13,0,.26,0,.39.01-.05,0-.09,0-.14,0-.1,0-.2,0-.3-.02h.05Z"/>
      <path class="cls-1" d="M44.97,43.39c-.18.04-.36.05-.55.05s-.37-.02-.55-.05h1.1Z"/>
      <path class="cls-1" d="M44.42,37.82c-.15,0-.31,0-.46.01.02,0,.05,0,.07-.01.13-.02.25-.03.39-.03.16,0,.31.01.46.04-.15,0-.3-.01-.46-.01Z"/>
      <rect class="cls-1" x="41.69" y="46.14" width="5.62" height="25.55"/>
      <path class="cls-1" d="M36.03,54.66h2.79v17.03h-5.62v-14.2c0-1.56,1.27-2.83,2.83-2.83Z"/>
      <path class="cls-1" d="M50.02,54.66h2.03c1.98,0,3.59,1.61,3.59,3.59v13.14c0,.16-.13.3-.3.3h-5.03c-.16,0-.3-.13-.3-.3v-16.73h0Z"/>
      <path class="cls-1" d="M77.55,47.98c-.15,5.96-4.94,10.81-10.76,10.89s-11.09-4.95-11.09-11.19h0c0-.38.34-.65.69-.56l4.04,1.03c.3.08.52.32.58.63.54,2.74,3.02,4.75,5.91,4.48,2.61-.25,4.7-2.41,4.93-5.08.27-3.19-2.07-5.89-5.08-6.1h0c-.13,0-.25-.01-.38-.01h-.05s-.06,0-.09-.01H23.17c-3.15.02-5.66,2.74-5.44,6.01.18,2.72,2.3,4.94,4.95,5.19,2.82.27,5.25-1.66,5.86-4.3.1-.44.43-.8.86-.91l3.95-1.01c.4-.1.78.21.78.62h0c0,6.36-5.17,11.48-11.44,11.18-5.59-.26-10.13-4.9-10.4-10.63-.3-6.41,4.67-11.71,10.86-11.73h43.1s-.05,0-.07.01c.15,0,.3-.01.45-.01s.3,0,.45.01c5.92.24,10.63,5.31,10.47,11.47Z"/>
      <path class="cls-1" d="M44.2,37.92l-.02-.19h.07s.35-.01.35-.01c.02,0,.03,0,.05,0v.19c-.15,0-.3,0-.45.01Z"/>
      <path class="cls-1" d="M67.72,27c-.53-1.78-2.21-3.02-4.07-3.02H28.64c-.49,0-.99-.98-1.01-1.55,0-.29.11-.56.33-.76.18-.16.42-.23.66-.23h30.87c.3,0,.55-.24.55-.55l-3.16-2.36c-.31-.23-.69-.36-1.08-.36h-27.21c-1.87,0-3.54,1.24-4.07,3.02-.12.39-.18.8-.18,1.21,0,.35.05,1.41.18,1.83.53,1.78,2.21,3.02,4.07,3.02h35c.54,0,.99.42,1.01.93.01.39-.21,1.04-.55,1.39-.1.1-.24.21-.41.21H26.06c-.59,0-1.16.17-1.65.5l-3.46,2.3c0,.26.21.47.47.47h42.23c1.87,0,3.54-1.24,4.07-3.02.13-.41.18-1.47.18-1.83,0-.41-.06-.82-.18-1.21Z"/>
    </g>
  </g>
</svg>