<svg width="26" height="27" viewBox="0 0 26 27" fill="none" xmlns="http://www.w3.org/2000/svg">
<path d="M26 14C26 21.1797 20.1797 27 13 27L0 27L-1.22392e-06 13C-1.85159e-06 5.8203 5.8203 1.76417e-06 13 1.1365e-06V1.1365e-06C20.1797 5.08827e-07 26 5.8203 26 13L26 14Z" fill="url(#paint0_linear_3529_888)"/>
<path d="M18.4514 7.47185C16.8641 5.87646 14.7477 5 12.4939 5C7.85316 5 4.0727 8.78047 4.06866 13.4212C4.06866 14.9076 4.4564 16.3535 5.19149 17.6339L4 22L8.46709 20.8287C9.69897 21.4992 11.0843 21.8546 12.4939 21.8546H12.498C17.1387 21.8546 20.9192 18.0741 20.9232 13.4293C20.9192 11.1796 20.0427 9.0632 18.4514 7.47185ZM12.4939 20.4288C11.2338 20.4288 10.0019 20.0896 8.92753 19.4514L8.67307 19.2979L6.02352 19.9926L6.73033 17.4077L6.56474 17.1411C5.86196 16.0264 5.49441 14.7379 5.49441 13.4172C5.49441 9.56403 8.63672 6.42172 12.498 6.42172C14.368 6.42172 16.1249 7.15277 17.4497 8.47351C18.7705 9.79829 19.4975 11.5552 19.4975 13.4253C19.4934 17.2906 16.3511 20.4288 12.4939 20.4288ZM16.335 15.1863C16.1249 15.0813 15.091 14.5723 14.8971 14.4996C14.7032 14.431 14.5619 14.3946 14.4245 14.6047C14.2832 14.8147 13.8793 15.2913 13.7581 15.4286C13.6369 15.57 13.5117 15.5861 13.3017 15.4811C13.0917 15.3761 12.4131 15.154 11.6094 14.435C10.9834 13.8776 10.5633 13.187 10.4381 12.977C10.3169 12.7669 10.426 12.6538 10.531 12.5488C10.6239 12.4559 10.741 12.3024 10.846 12.1813C10.951 12.0601 10.9874 11.9713 11.0561 11.8299C11.1247 11.6885 11.0924 11.5674 11.0399 11.4623C10.9874 11.3573 10.5673 10.3193 10.3896 9.89926C10.22 9.48729 10.0463 9.54384 9.91707 9.5398C9.7959 9.53172 9.65454 9.53172 9.51318 9.53172C9.37181 9.53172 9.14563 9.58422 8.95176 9.79425C8.75789 10.0043 8.21667 10.5132 8.21667 11.5512C8.21667 12.5892 8.97196 13.5868 9.07697 13.7282C9.18198 13.8696 10.5593 15.9941 12.6716 16.9069C13.1725 17.125 13.5642 17.2542 13.8712 17.3512C14.3761 17.5127 14.8325 17.4885 15.196 17.436C15.5999 17.3754 16.44 16.9271 16.6177 16.4343C16.7914 15.9416 16.7914 15.5215 16.7389 15.4326C16.6864 15.3438 16.545 15.2913 16.335 15.1863Z" fill="#003B5D"/>
<defs>
<linearGradient id="paint0_linear_3529_888" x1="-1.5" y1="0.499999" x2="23" y2="27" gradientUnits="userSpaceOnUse">
<stop stop-color="#EBC894"/>
<stop offset="0.508965" stop-color="#FFD9A1"/>
<stop offset="1" stop-color="#EEC280"/>
</linearGradient>
</defs>
</svg>
