<?xml version="1.0" encoding="UTF-8"?>
<svg xmlns="http://www.w3.org/2000/svg" version="1.1" xmlns:xlink="http://www.w3.org/1999/xlink" viewBox="0 0 286.2 315.8">
  <defs>
    <style>
      .cls-1 {
        stroke: url(#Gradiente_sem_nome);
        stroke-width: 16px;
      }

      .cls-1, .cls-2, .cls-3 {
        fill: none;
      }

      .cls-1, .cls-3 {
        stroke-miterlimit: 10;
      }

      .cls-4 {
        fill: url(#Gradiente_sem_nome_2);
      }

      .cls-5 {
        isolation: isolate;
      }

      .cls-6 {
        fill: #224564;
      }

      .cls-7 {
        fill: #ebc893;
      }

      .cls-3 {
        stroke: #224564;
        stroke-width: 7px;
      }
    </style>
    <radialGradient id="Gradiente_sem_nome" data-name="Gradiente sem nome" cx="190.6" cy="60.1" fx="190.6" fy="60.1" r="118.7" gradientTransform="translate(-38 296.9) scale(.9 -1.2)" gradientUnits="userSpaceOnUse">
      <stop offset=".3" stop-color="#0f5f8d"/>
      <stop offset="1" stop-color="#05131b"/>
    </radialGradient>
    <radialGradient id="Gradiente_sem_nome_2" data-name="Gradiente sem nome 2" cx="256.9" cy="255.7" fx="256.9" fy="255.7" r="176.5" gradientTransform="translate(-88.6 306.6) scale(.9 -.9)" gradientUnits="userSpaceOnUse">
      <stop offset="0" stop-color="#0f5f8d"/>
      <stop offset="1" stop-color="#05131b"/>
    </radialGradient>
  </defs>
  <!-- Generator: Adobe Illustrator 28.7.1, SVG Export Plug-In . SVG Version: 1.2.0 Build 142)  -->
  <g>
    <g id="Camada_2">
      <g id="Camada_1-2">
        <g>
          <g class="cls-5">
            <g class="cls-5">
              <path class="cls-7" d="M93.9,234.2h-4.3l-1.1-4.8h-10.3l-3,4.8h-4.6l13.8-21.2h4.2l5.3,21.2ZM87.8,226.1l-2-8.9-5.5,8.9h7.6Z"/>
            </g>
            <g class="cls-5">
              <path class="cls-7" d="M101.5,234.4c-1.1,0-2-.2-2.9-.6s-1.6-1-2.1-1.8c-.5-.8-.8-1.9-.8-3.1s0-1.3.2-1.9l1.8-9h4.1l-1.8,8.8c0,.4-.1.8-.1,1.2,0,1.9,1,2.8,3,2.8s4.3-1.5,5-4.5l1.7-8.3h4.1l-3.2,16.2h-3.9l.4-1.8c-1.4,1.4-3.2,2.1-5.4,2.1Z"/>
              <path class="cls-7" d="M121.4,234.4c-3.1,0-5.3-1.4-6.5-4.2-.3-.8-.5-1.9-.5-3.2,0-1.6.4-3.1,1.1-4.5.8-1.4,1.8-2.5,3.1-3.4,1.3-.9,2.8-1.3,4.5-1.3h.3c2.5,0,4.2.8,5.3,2.5l1.7-8.6h4.1l-4.5,22.4h-3.9l.4-1.8c-1.4,1.3-3.1,2-5.2,2ZM122.6,231c1.6,0,2.8-.6,3.8-1.7,1-1.1,1.5-2.5,1.5-4.1s-.3-2.1-1-2.8c-.7-.7-1.7-1.1-3.1-1.1s-2.8.5-3.8,1.6-1.5,2.5-1.5,4.2.3,2.1,1,2.8c.7.7,1.7,1.1,3.1,1.1Z"/>
              <path class="cls-7" d="M137.8,234.2h-4.1l3.2-16.2h4.1l-3.2,16.2ZM139.8,215.5c-.7,0-1.3-.2-1.8-.7-.4-.4-.7-1-.7-1.6s.3-1.3.8-1.8c.5-.5,1.2-.7,2-.7s1.2.2,1.7.5c.5.4.7.9.7,1.6s-.3,1.5-.8,2c-.6.5-1.2.7-2,.7Z"/>
            </g>
            <g class="cls-5">
              <path class="cls-7" d="M147.8,234.4c-1.2,0-2.3-.3-3.2-1-.9-.6-1.4-1.7-1.5-3.2,0-.5,0-1,.1-1.6l1.5-7.4h-2.6l.6-3.2h2.6l.8-3.6h4.1l-.8,3.6h4.2l-.6,3.2h-4.2l-1.5,7.4c0,.2,0,.5,0,.7,0,1.2.6,1.8,1.8,1.8s1.4-.2,2.1-.6l.7,3c-1,.6-2.4,1-4,1Z"/>
            </g>
            <g class="cls-5">
              <path class="cls-7" d="M161.3,234.4h-.3c-2.3,0-4.2-.6-5.7-1.9-1.5-1.4-2.2-3.1-2.2-5.3s.9-4.9,2.7-6.7c1.8-1.8,4.1-2.7,7-2.7s3.3.4,4.6,1.1c2.2,1.2,3.4,3.3,3.4,6.3,0,2.6-.9,4.8-2.8,6.6s-4.1,2.7-6.7,2.7ZM161.3,231c1.6,0,2.8-.6,3.8-1.7,1-1.1,1.5-2.5,1.5-4.1s-.3-2.1-1-2.8c-.7-.7-1.7-1.1-3.1-1.1s-2.8.5-3.8,1.6-1.5,2.5-1.5,4.2.3,2.1,1,2.8c.7.7,1.7,1.1,3.1,1.1Z"/>
            </g>
            <g class="cls-5">
              <path class="cls-7" d="M175.4,234.2h-4.1l3.2-16.2h3.9l-.4,2.1c1.3-1.5,3.4-2.3,6.2-2.3l-.8,3.8h-1c-3,0-4.8,1.5-5.5,4.6l-1.6,7.9Z"/>
            </g>
            <g class="cls-5">
              <path class="cls-7" d="M186.9,234.2h-4.1l3.2-16.2h4.1l-3.2,16.2ZM188.9,215.5c-.7,0-1.3-.2-1.8-.7s-.7-1-.7-1.6.3-1.3.8-1.8c.5-.5,1.2-.7,2-.7s1.2.2,1.7.5c.5.4.7.9.7,1.6s-.3,1.5-.8,2c-.6.5-1.2.7-2,.7Z"/>
              <path class="cls-7" d="M196.5,234.4c-1.9,0-3.3-.4-4.4-1.3-1.1-.9-1.6-2.1-1.6-3.5s.5-2.6,1.6-3.5,2.8-1.3,5.2-1.3h5.5c0-.1,0-.3,0-.4,0,0,0-.2,0-.3,0-.8-.3-1.5-1-2-.6-.6-1.6-.9-3-.9s-1.7.1-2.6.4-1.6.7-2.3,1.2l-1.5-2.9c.9-.6,1.9-1.1,3.1-1.5,1.2-.3,2.5-.5,3.8-.5,2.5,0,4.4.6,5.9,1.7,1.2.9,1.8,2.2,1.8,3.8s0,.9-.2,1.5l-1.9,9.4h-3.9l.4-2c-.9,1.5-2.6,2.2-5,2.2ZM197.4,231.6c1.7,0,3.2-.8,4.4-2.4l.4-1.9h-4.6c-2.1,0-3.2.7-3.2,2.1s.3,1.3.8,1.7c.6.3,1.3.5,2.1.5Z"/>
            </g>
            <g class="cls-5">
              <path class="cls-7" d="M82.9,266.1h-4.3l3.5-17.6h-6.9l.7-3.5h18.1l-.7,3.5h-6.9l-3.5,17.6Z"/>
            </g>
            <g class="cls-5">
              <path class="cls-7" d="M94.9,266.1h-4.1l3.2-16.2h3.9l-.4,2.1c1.3-1.5,3.4-2.3,6.2-2.3l-.8,3.8h-1c-3,0-4.8,1.5-5.5,4.6l-1.6,7.9Z"/>
            </g>
            <g class="cls-5">
              <path class="cls-7" d="M106.5,266.1h-4.1l3.2-16.2h4.1l-3.2,16.2ZM108.4,247.4c-.7,0-1.3-.2-1.8-.7-.4-.4-.7-1-.7-1.6s.3-1.3.8-1.8c.5-.5,1.2-.7,2-.7s1.2.2,1.7.5c.5.4.7.9.7,1.6s-.3,1.5-.8,2c-.6.5-1.2.7-2,.7Z"/>
              <path class="cls-7" d="M120.3,266.3c-1.3,0-2.5-.2-3.5-.6s-1.8-1.1-2.3-2.2l-.5,2.6h-3.9l4.5-22.4h4.1l-1.6,7.8c1.4-1.2,3-1.8,5-1.8s2.7.4,3.9,1.1c2.1,1.3,3.1,3.4,3.2,6.3,0,1.8-.4,3.4-1.2,4.8-.8,1.4-1.9,2.5-3.3,3.3s-2.8,1.2-4.3,1.2ZM119.6,262.9c1.4,0,2.6-.5,3.7-1.5,1.1-1,1.6-2.4,1.6-4.3s-.4-2.1-1.1-2.8c-.7-.7-1.7-1.1-3-1.1s-2.9.6-3.9,1.7c-.9,1.1-1.4,2.5-1.4,4.1s.3,2.1,1,2.8c.7.7,1.7,1.1,3.1,1.1Z"/>
              <path class="cls-7" d="M136.5,266.3c-1.1,0-2-.2-2.9-.6s-1.6-1-2.1-1.8c-.5-.8-.8-1.9-.8-3.1s0-1.3.2-1.9l1.8-9h4.1l-1.8,8.8c0,.4-.1.8-.1,1.2,0,1.9,1,2.8,3,2.8s4.3-1.5,5-4.5l1.7-8.3h4.1l-3.2,16.2h-3.9l.4-1.8c-1.4,1.4-3.2,2.1-5.4,2.1Z"/>
            </g>
            <g class="cls-5">
              <path class="cls-7" d="M155.5,266.3c-1.2,0-2.3-.3-3.2-1-.9-.6-1.4-1.7-1.5-3.2,0-.5,0-1,.1-1.6l1.5-7.4h-2.6l.6-3.2h2.6l.8-3.6h4.1l-.8,3.6h4.2l-.6,3.2h-4.2l-1.5,7.4c0,.2,0,.5,0,.7,0,1.2.6,1.8,1.8,1.8s1.4-.2,2.1-.6l.7,3c-1,.6-2.4,1-4,1Z"/>
            </g>
            <g class="cls-5">
              <path class="cls-7" d="M166.5,266.3c-1.9,0-3.3-.4-4.4-1.3-1.1-.9-1.6-2.1-1.6-3.5s.5-2.6,1.6-3.5,2.8-1.3,5.2-1.3h5.5c0-.1,0-.3,0-.4,0,0,0-.2,0-.3,0-.8-.3-1.5-1-2-.6-.6-1.6-.9-3-.9s-1.7.1-2.6.4-1.6.7-2.3,1.2l-1.5-2.9c.9-.6,1.9-1.1,3.1-1.5,1.2-.3,2.5-.5,3.8-.5,2.5,0,4.4.6,5.9,1.7,1.2.9,1.8,2.2,1.8,3.8s0,.9-.2,1.5l-1.9,9.4h-3.9l.4-2c-.9,1.5-2.6,2.2-5,2.2ZM167.5,263.5c1.7,0,3.2-.8,4.4-2.4l.4-1.9h-4.6c-2.1,0-3.2.7-3.2,2.1s.3,1.3.8,1.7c.6.3,1.3.5,2.1.5ZM170.4,247.7h-3.5l4.6-4.2h4.7l-5.8,4.2Z"/>
            </g>
            <g class="cls-5">
              <path class="cls-7" d="M182,266.1h-4.1l3.2-16.2h3.9l-.4,2.1c1.3-1.5,3.4-2.3,6.2-2.3l-.8,3.8h-1c-3,0-4.8,1.5-5.5,4.6l-1.6,7.9Z"/>
            </g>
            <g class="cls-5">
              <path class="cls-7" d="M193.5,266.1h-4.1l3.2-16.2h4.1l-3.2,16.2ZM195.5,247.4c-.7,0-1.3-.2-1.8-.7-.4-.4-.7-1-.7-1.6s.3-1.3.8-1.8c.5-.5,1.2-.7,2-.7s1.2.2,1.7.5.7.9.7,1.6-.3,1.5-.8,2c-.6.5-1.2.7-2,.7Z"/>
              <path class="cls-7" d="M203,266.3c-1.9,0-3.3-.4-4.4-1.3-1.1-.9-1.6-2.1-1.6-3.5s.5-2.6,1.6-3.5c1.1-.9,2.8-1.3,5.2-1.3h5.5c0-.1,0-.3,0-.4,0,0,0-.2,0-.3,0-.8-.3-1.5-1-2-.6-.6-1.6-.9-3-.9s-1.7.1-2.6.4-1.6.7-2.3,1.2l-1.5-2.9c.9-.6,1.9-1.1,3.1-1.5,1.2-.3,2.5-.5,3.7-.5,2.5,0,4.4.6,5.9,1.7,1.2.9,1.8,2.2,1.8,3.8s0,.9-.2,1.5l-1.9,9.4h-3.9l.4-2c-.9,1.5-2.6,2.2-5,2.2ZM204,263.5c1.7,0,3.2-.8,4.4-2.4l.4-1.9h-4.6c-2.1,0-3.2.7-3.2,2.1s.3,1.3.8,1.7,1.3.5,2.1.5Z"/>
            </g>
          </g>
          <rect class="cls-1" x="8" y="143.3" width="270.2" height="164.5"/>
          <path class="cls-4" d="M55.4,0h176C253.8,0,272,18.2,272,40.6v138H14.8V40.6C14.8,18.2,33,0,55.4,0Z"/>
          <path class="cls-7" d="M100.3,144.8c2,3.4,5.7,5.6,9.6,5.6h67c6.2,0,11.2-5,11.2-11.2v-72.6l-27.9-27.9h-50.2c-6.2,0-11.2,5-11.2,11.2v16.7"/>
          <path class="cls-3" d="M154.5,38.8v22.3c0,6.2,5,11.2,11.2,11.2h22.3"/>
          <path class="cls-2" d="M155.5,104.8c-7.4,0-13.5,6.1-13.5,13.5s6.1,13.5,13.5,13.5,13.5-6.1,13.5-13.5-6.1-13.5-13.5-13.5Z"/>
          <path class="cls-6" d="M171.8,130h-.1c2.4-3.2,3.9-7.2,3.9-11.7,0-11-9-20-20-20s-20,9-20,20,9,20,20,20,8.5-1.4,11.8-3.9h-.1c0,.1,8.4,8.5,8.4,8.5l4.6-4.6-8.4-8.4h0ZM155.5,131.9c-7.4,0-13.5-6.1-13.5-13.5s6.1-13.5,13.5-13.5,13.5,6.1,13.5,13.5-6.1,13.5-13.5,13.5Z"/>
        </g>
      </g>
    </g>
  </g>
</svg>