<svg width="137" height="168" viewBox="0 0 137 168" fill="none" xmlns="http://www.w3.org/2000/svg">
<rect x="0.5" y="0.5" width="136" height="167" rx="7.5" fill="url(#paint0_linear_2_2631)" stroke="url(#paint1_linear_2_2631)"/>
<path d="M52.6628 104.688V105H49.6268V104.688H49.8308C50.0068 104.688 50.1428 104.656 50.2388 104.592C50.3428 104.528 50.3948 104.44 50.3948 104.328C50.3948 104.264 50.3828 104.196 50.3588 104.124L49.7588 102.48H46.3988L45.7868 104.124C45.7708 104.156 45.7628 104.204 45.7628 104.268C45.7628 104.396 45.8228 104.5 45.9428 104.58C46.0628 104.652 46.2028 104.688 46.3628 104.688H46.5788V105H43.9868V104.688H44.1668C44.3268 104.688 44.4908 104.648 44.6588 104.568C44.8268 104.488 44.9348 104.384 44.9828 104.256L47.8268 96.792L48.7028 96.432L51.7028 104.268C51.7508 104.396 51.8468 104.5 51.9908 104.58C52.1428 104.652 52.2948 104.688 52.4468 104.688H52.6628ZM49.5908 102L48.1028 97.908L46.5788 102H49.5908ZM58.4391 104.688C58.5511 104.688 58.6951 104.656 58.8711 104.592V104.796C58.6231 105.012 58.2831 105.12 57.8511 105.12C57.6111 105.12 57.4151 105.056 57.2631 104.928C57.1191 104.792 57.0471 104.596 57.0471 104.34V104.1C56.8711 104.388 56.5991 104.632 56.2311 104.832C55.8711 105.024 55.4631 105.12 55.0071 105.12C54.3431 105.12 53.8351 104.976 53.4831 104.688C53.1311 104.392 52.9551 103.996 52.9551 103.5V100.284C52.9551 100.196 52.9311 100.132 52.8831 100.092C52.8351 100.052 52.7791 100.032 52.7151 100.032C52.6351 100.032 52.5151 100.064 52.3551 100.128L52.2711 99.864L53.7711 99.324H54.0831V103.356C54.0831 103.78 54.1911 104.1 54.4071 104.316C54.6231 104.532 54.9311 104.64 55.3311 104.64C55.6111 104.64 55.8831 104.572 56.1471 104.436C56.4111 104.292 56.6271 104.08 56.7951 103.8C56.9631 103.52 57.0471 103.184 57.0471 102.792V100.284C57.0471 100.196 57.0191 100.132 56.9631 100.092C56.9151 100.052 56.8591 100.032 56.7951 100.032C56.7311 100.032 56.6111 100.064 56.4351 100.128L56.3511 99.864L57.8991 99.324H58.1631V104.304C58.1631 104.56 58.2551 104.688 58.4391 104.688ZM61.9253 105.12C61.1333 105.12 60.5093 104.876 60.0533 104.388C59.6053 103.9 59.3813 103.124 59.3813 102.06C59.3813 101.452 59.4893 100.936 59.7053 100.512C59.9293 100.088 60.2293 99.772 60.6053 99.564C60.9893 99.348 61.4253 99.24 61.9133 99.24C62.8013 99.24 63.4533 99.52 63.8693 100.08V97.368C63.8693 97.2 63.7893 97.116 63.6293 97.116C63.5493 97.116 63.4293 97.148 63.2693 97.212L63.1973 96.936L64.6973 96.396H64.9973V104.172C64.9973 104.316 65.0373 104.424 65.1173 104.496C65.2053 104.56 65.3333 104.592 65.5013 104.592H65.7773V104.868L64.0733 105.048L64.0133 104.112C63.6133 104.784 62.9173 105.12 61.9253 105.12ZM62.2373 104.664C62.5733 104.664 62.8653 104.588 63.1133 104.436C63.3613 104.276 63.5493 104.068 63.6773 103.812C63.8133 103.548 63.8813 103.272 63.8813 102.984V101.16C63.8813 100.888 63.8013 100.644 63.6413 100.428C63.4893 100.204 63.2933 100.032 63.0533 99.912C62.8133 99.784 62.5653 99.72 62.3093 99.72C61.7173 99.72 61.2653 99.924 60.9533 100.332C60.6493 100.732 60.4973 101.32 60.4973 102.096C60.4973 103.808 61.0773 104.664 62.2373 104.664ZM67.4448 98.268C67.2368 98.268 67.0688 98.208 66.9408 98.088C66.8208 97.96 66.7608 97.8 66.7608 97.608C66.7608 97.408 66.8208 97.248 66.9408 97.128C67.0688 97.008 67.2368 96.948 67.4448 96.948C67.6448 96.948 67.8048 97.008 67.9248 97.128C68.0528 97.248 68.1168 97.408 68.1168 97.608C68.1168 97.8 68.0528 97.96 67.9248 98.088C67.8048 98.208 67.6448 98.268 67.4448 98.268ZM66.1128 104.7H66.3408C66.5328 104.7 66.6848 104.668 66.7968 104.604C66.9168 104.54 66.9768 104.444 66.9768 104.316V100.272C66.9768 100.096 66.8928 100.008 66.7248 100.008C66.6848 100.008 66.6248 100.024 66.5448 100.056C66.4648 100.08 66.4088 100.096 66.3768 100.104L66.2928 99.828L67.8048 99.3H68.1048V104.316C68.1048 104.444 68.1608 104.54 68.2728 104.604C68.3928 104.668 68.5488 104.7 68.7408 104.7H68.9688V105H66.1128V104.7ZM73.6005 103.908C73.5605 104.324 73.3925 104.632 73.0965 104.832C72.8085 105.024 72.4525 105.12 72.0285 105.12C71.4285 105.12 70.9725 104.996 70.6605 104.748C70.3485 104.5 70.1925 104.088 70.1925 103.512V99.828H69.2565V99.36H70.1925V98.328L71.0325 97.764H71.3205V99.36H73.0125V99.828H71.3205V103.488C71.3205 103.896 71.3925 104.2 71.5365 104.4C71.6885 104.592 71.9205 104.688 72.2325 104.688C72.4805 104.688 72.6925 104.628 72.8685 104.508C73.0525 104.38 73.1605 104.18 73.1925 103.908H73.6005ZM76.978 105.12C76.01 105.12 75.258 104.864 74.722 104.352C74.194 103.84 73.93 103.116 73.93 102.18C73.93 101.244 74.198 100.52 74.734 100.008C75.27 99.496 76.018 99.24 76.978 99.24C77.938 99.24 78.682 99.496 79.21 100.008C79.746 100.52 80.014 101.244 80.014 102.18C80.014 103.116 79.746 103.84 79.21 104.352C78.682 104.864 77.938 105.12 76.978 105.12ZM76.978 104.664C77.57 104.664 78.038 104.448 78.382 104.016C78.726 103.584 78.898 102.972 78.898 102.18C78.898 101.396 78.726 100.792 78.382 100.368C78.038 99.936 77.57 99.72 76.978 99.72C76.378 99.72 75.906 99.936 75.562 100.368C75.218 100.792 75.046 101.396 75.046 102.18C75.046 102.972 75.218 103.584 75.562 104.016C75.906 104.448 76.378 104.664 76.978 104.664ZM84.0397 99.24C84.2717 99.24 84.4677 99.284 84.6277 99.372C84.7957 99.452 84.8797 99.58 84.8797 99.756C84.8797 99.908 84.8397 100.024 84.7597 100.104C84.6877 100.184 84.5837 100.224 84.4477 100.224C84.3597 100.224 84.2877 100.208 84.2317 100.176C84.1837 100.144 84.1397 100.1 84.0997 100.044C84.0437 99.988 83.9917 99.948 83.9437 99.924C83.8957 99.892 83.8277 99.876 83.7397 99.876C83.5317 99.876 83.3317 99.952 83.1397 100.104C82.9557 100.256 82.8037 100.476 82.6837 100.764C82.5637 101.052 82.4957 101.384 82.4797 101.76V104.316C82.4797 104.444 82.5397 104.54 82.6597 104.604C82.7797 104.668 82.9357 104.7 83.1277 104.7H83.3317V105H80.4877V104.7H80.7157C80.9077 104.7 81.0597 104.668 81.1717 104.604C81.2917 104.54 81.3517 104.444 81.3517 104.316V100.284C81.3517 100.116 81.2717 100.032 81.1117 100.032C81.0317 100.032 80.9117 100.064 80.7517 100.128L80.6797 99.864L82.2157 99.324H82.4797V100.428C82.5917 100.084 82.7917 99.8 83.0797 99.576C83.3677 99.352 83.6877 99.24 84.0397 99.24ZM86.3833 98.268C86.1753 98.268 86.0073 98.208 85.8793 98.088C85.7593 97.96 85.6993 97.8 85.6993 97.608C85.6993 97.408 85.7593 97.248 85.8793 97.128C86.0073 97.008 86.1753 96.948 86.3833 96.948C86.5833 96.948 86.7433 97.008 86.8633 97.128C86.9913 97.248 87.0553 97.408 87.0553 97.608C87.0553 97.8 86.9913 97.96 86.8633 98.088C86.7433 98.208 86.5833 98.268 86.3833 98.268ZM85.0513 104.7H85.2793C85.4713 104.7 85.6233 104.668 85.7353 104.604C85.8553 104.54 85.9153 104.444 85.9153 104.316V100.272C85.9153 100.096 85.8313 100.008 85.6633 100.008C85.6233 100.008 85.5633 100.024 85.4833 100.056C85.4033 100.08 85.3473 100.096 85.3153 100.104L85.2313 99.828L86.7433 99.3H87.0433V104.316C87.0433 104.444 87.0993 104.54 87.2113 104.604C87.3313 104.668 87.4873 104.7 87.6793 104.7H87.9073V105H85.0513V104.7ZM89.9109 105.12C89.4229 105.12 89.0389 105.008 88.7589 104.784C88.4869 104.552 88.3509 104.24 88.3509 103.848C88.3509 103.264 88.6549 102.784 89.2629 102.408C89.8789 102.032 90.8229 101.756 92.0949 101.58V100.956C92.0949 100.548 91.9669 100.24 91.7109 100.032C91.4549 99.824 91.1149 99.72 90.6909 99.72C90.3869 99.72 90.1069 99.78 89.8509 99.9C89.5949 100.02 89.4669 100.148 89.4669 100.284C89.4669 100.332 89.4749 100.392 89.4909 100.464C89.5069 100.536 89.5149 100.592 89.5149 100.632C89.5149 100.752 89.4789 100.856 89.4069 100.944C89.3349 101.032 89.2189 101.076 89.0589 101.076C88.9229 101.076 88.8069 101.028 88.7109 100.932C88.6229 100.828 88.5789 100.684 88.5789 100.5C88.5789 100.1 88.8069 99.792 89.2629 99.576C89.7189 99.352 90.2749 99.24 90.9309 99.24C91.6669 99.24 92.2349 99.404 92.6349 99.732C93.0349 100.052 93.2349 100.492 93.2349 101.052V104.304C93.2349 104.56 93.3229 104.688 93.4989 104.688C93.6109 104.688 93.7549 104.656 93.9309 104.592V104.796C93.8109 104.9 93.6589 104.98 93.4749 105.036C93.2909 105.092 93.1029 105.12 92.9109 105.12C92.6949 105.12 92.5069 105.076 92.3469 104.988C92.1869 104.9 92.1069 104.756 92.1069 104.556V104.196C91.7869 104.548 91.4309 104.792 91.0389 104.928C90.6549 105.056 90.2789 105.12 89.9109 105.12ZM90.4629 104.64C90.7589 104.64 91.0669 104.544 91.3869 104.352C91.7149 104.16 91.9509 103.94 92.0949 103.692V101.976C91.2469 102.144 90.5949 102.388 90.1389 102.708C89.6909 103.02 89.4669 103.372 89.4669 103.764C89.4669 104.052 89.5549 104.272 89.7309 104.424C89.9069 104.568 90.1509 104.64 90.4629 104.64ZM44.7448 115.688H45.0808C45.5528 115.688 45.7888 115.544 45.7888 115.256V108.092H44.1208C43.8008 108.092 43.5768 108.292 43.4488 108.692C43.3208 109.092 43.2528 109.496 43.2448 109.904H42.9208V107.6H49.8328V109.904H49.5088C49.4848 109.48 49.4088 109.072 49.2808 108.68C49.1608 108.288 48.9448 108.092 48.6328 108.092H46.9648V115.256C46.9648 115.544 47.1968 115.688 47.6608 115.688H48.0088V116H44.7448V115.688ZM53.4964 110.24C53.7284 110.24 53.9244 110.284 54.0844 110.372C54.2524 110.452 54.3364 110.58 54.3364 110.756C54.3364 110.908 54.2964 111.024 54.2164 111.104C54.1444 111.184 54.0404 111.224 53.9044 111.224C53.8164 111.224 53.7444 111.208 53.6884 111.176C53.6404 111.144 53.5964 111.1 53.5564 111.044C53.5004 110.988 53.4484 110.948 53.4004 110.924C53.3524 110.892 53.2844 110.876 53.1964 110.876C52.9884 110.876 52.7884 110.952 52.5964 111.104C52.4124 111.256 52.2604 111.476 52.1404 111.764C52.0204 112.052 51.9524 112.384 51.9364 112.76V115.316C51.9364 115.444 51.9964 115.54 52.1164 115.604C52.2364 115.668 52.3924 115.7 52.5844 115.7H52.7884V116H49.9444V115.7H50.1724C50.3644 115.7 50.5164 115.668 50.6284 115.604C50.7484 115.54 50.8084 115.444 50.8084 115.316V111.284C50.8084 111.116 50.7284 111.032 50.5684 111.032C50.4884 111.032 50.3684 111.064 50.2084 111.128L50.1364 110.864L51.6724 110.324H51.9364V111.428C52.0484 111.084 52.2484 110.8 52.5364 110.576C52.8244 110.352 53.1444 110.24 53.4964 110.24ZM55.84 109.268C55.632 109.268 55.464 109.208 55.336 109.088C55.216 108.96 55.156 108.8 55.156 108.608C55.156 108.408 55.216 108.248 55.336 108.128C55.464 108.008 55.632 107.948 55.84 107.948C56.04 107.948 56.2 108.008 56.32 108.128C56.448 108.248 56.512 108.408 56.512 108.608C56.512 108.8 56.448 108.96 56.32 109.088C56.2 109.208 56.04 109.268 55.84 109.268ZM54.508 115.7H54.736C54.928 115.7 55.08 115.668 55.192 115.604C55.312 115.54 55.372 115.444 55.372 115.316V111.272C55.372 111.096 55.288 111.008 55.12 111.008C55.08 111.008 55.02 111.024 54.94 111.056C54.86 111.08 54.804 111.096 54.772 111.104L54.688 110.828L56.2 110.3H56.5V115.316C56.5 115.444 56.556 115.54 56.668 115.604C56.788 115.668 56.944 115.7 57.136 115.7H57.364V116H54.508V115.7ZM61.3476 116.12C60.8356 116.12 60.4036 116.036 60.0516 115.868C59.6996 115.7 59.4396 115.468 59.2716 115.172L58.9596 116H58.4196V108.368C58.4196 108.2 58.3396 108.116 58.1796 108.116C58.0996 108.116 57.9796 108.148 57.8196 108.212L57.7356 107.936L59.2476 107.396H59.5476V111.212C59.7396 110.892 60.0156 110.652 60.3756 110.492C60.7356 110.324 61.0996 110.24 61.4676 110.24C62.2596 110.24 62.8876 110.488 63.3516 110.984C63.8156 111.472 64.0476 112.176 64.0476 113.096C64.0476 114.176 63.8116 114.952 63.3396 115.424C62.8756 115.888 62.2116 116.12 61.3476 116.12ZM61.1916 115.664C61.8076 115.664 62.2516 115.44 62.5236 114.992C62.7956 114.536 62.9316 113.924 62.9316 113.156C62.9316 111.532 62.3316 110.72 61.1316 110.72C60.8836 110.72 60.6356 110.788 60.3876 110.924C60.1396 111.06 59.9356 111.252 59.7756 111.5C59.6236 111.74 59.5476 112.016 59.5476 112.328V113.924C59.5476 114.22 59.6116 114.5 59.7396 114.764C59.8756 115.028 60.0676 115.244 60.3156 115.412C60.5636 115.58 60.8556 115.664 61.1916 115.664ZM70.6477 115.688C70.7597 115.688 70.9037 115.656 71.0797 115.592V115.796C70.8317 116.012 70.4917 116.12 70.0597 116.12C69.8197 116.12 69.6237 116.056 69.4717 115.928C69.3277 115.792 69.2557 115.596 69.2557 115.34V115.1C69.0797 115.388 68.8077 115.632 68.4397 115.832C68.0797 116.024 67.6717 116.12 67.2157 116.12C66.5517 116.12 66.0437 115.976 65.6917 115.688C65.3397 115.392 65.1637 114.996 65.1637 114.5V111.284C65.1637 111.196 65.1397 111.132 65.0917 111.092C65.0437 111.052 64.9877 111.032 64.9237 111.032C64.8437 111.032 64.7237 111.064 64.5637 111.128L64.4797 110.864L65.9797 110.324H66.2917V114.356C66.2917 114.78 66.3997 115.1 66.6157 115.316C66.8317 115.532 67.1397 115.64 67.5397 115.64C67.8197 115.64 68.0917 115.572 68.3557 115.436C68.6197 115.292 68.8357 115.08 69.0037 114.8C69.1717 114.52 69.2557 114.184 69.2557 113.792V111.284C69.2557 111.196 69.2277 111.132 69.1717 111.092C69.1237 111.052 69.0677 111.032 69.0037 111.032C68.9397 111.032 68.8197 111.064 68.6437 111.128L68.5597 110.864L70.1077 110.324H70.3717V115.304C70.3717 115.56 70.4637 115.688 70.6477 115.688ZM75.7539 114.908C75.7139 115.324 75.5459 115.632 75.2499 115.832C74.9619 116.024 74.6059 116.12 74.1819 116.12C73.5819 116.12 73.1259 115.996 72.8139 115.748C72.5019 115.5 72.3459 115.088 72.3459 114.512V110.828H71.4099V110.36H72.3459V109.328L73.1859 108.764H73.4739V110.36H75.1659V110.828H73.4739V114.488C73.4739 114.896 73.5459 115.2 73.6899 115.4C73.8419 115.592 74.0739 115.688 74.3859 115.688C74.6339 115.688 74.8459 115.628 75.0219 115.508C75.2059 115.38 75.3139 115.18 75.3459 114.908H75.7539ZM77.7514 109.136L79.1314 107.852C79.1394 107.844 79.1914 107.796 79.2874 107.708C79.3834 107.62 79.5074 107.576 79.6594 107.576C79.7874 107.576 79.8874 107.612 79.9594 107.684C80.0314 107.756 80.0674 107.84 80.0674 107.936C80.0674 108.12 79.9314 108.288 79.6594 108.44L77.9554 109.436L77.7514 109.136ZM77.6554 116.12C77.1674 116.12 76.7834 116.008 76.5034 115.784C76.2314 115.552 76.0954 115.24 76.0954 114.848C76.0954 114.264 76.3994 113.784 77.0074 113.408C77.6234 113.032 78.5674 112.756 79.8394 112.58V111.956C79.8394 111.548 79.7114 111.24 79.4554 111.032C79.1994 110.824 78.8594 110.72 78.4354 110.72C78.1314 110.72 77.8514 110.78 77.5954 110.9C77.3394 111.02 77.2114 111.148 77.2114 111.284C77.2114 111.332 77.2194 111.392 77.2354 111.464C77.2514 111.536 77.2594 111.592 77.2594 111.632C77.2594 111.752 77.2234 111.856 77.1514 111.944C77.0794 112.032 76.9634 112.076 76.8034 112.076C76.6674 112.076 76.5514 112.028 76.4554 111.932C76.3674 111.828 76.3234 111.684 76.3234 111.5C76.3234 111.1 76.5514 110.792 77.0074 110.576C77.4634 110.352 78.0194 110.24 78.6754 110.24C79.4114 110.24 79.9794 110.404 80.3794 110.732C80.7794 111.052 80.9794 111.492 80.9794 112.052V115.304C80.9794 115.56 81.0674 115.688 81.2434 115.688C81.3554 115.688 81.4994 115.656 81.6754 115.592V115.796C81.5554 115.9 81.4034 115.98 81.2194 116.036C81.0354 116.092 80.8474 116.12 80.6554 116.12C80.4394 116.12 80.2514 116.076 80.0914 115.988C79.9314 115.9 79.8514 115.756 79.8514 115.556V115.196C79.5314 115.548 79.1754 115.792 78.7834 115.928C78.3994 116.056 78.0234 116.12 77.6554 116.12ZM78.2074 115.64C78.5034 115.64 78.8114 115.544 79.1314 115.352C79.4594 115.16 79.6954 114.94 79.8394 114.692V112.976C78.9914 113.144 78.3394 113.388 77.8834 113.708C77.4354 114.02 77.2114 114.372 77.2114 114.764C77.2114 115.052 77.2994 115.272 77.4754 115.424C77.6514 115.568 77.8954 115.64 78.2074 115.64ZM85.5017 110.24C85.7337 110.24 85.9297 110.284 86.0897 110.372C86.2577 110.452 86.3417 110.58 86.3417 110.756C86.3417 110.908 86.3017 111.024 86.2217 111.104C86.1497 111.184 86.0457 111.224 85.9097 111.224C85.8217 111.224 85.7497 111.208 85.6937 111.176C85.6457 111.144 85.6017 111.1 85.5617 111.044C85.5057 110.988 85.4537 110.948 85.4057 110.924C85.3577 110.892 85.2897 110.876 85.2017 110.876C84.9937 110.876 84.7937 110.952 84.6017 111.104C84.4177 111.256 84.2657 111.476 84.1457 111.764C84.0257 112.052 83.9577 112.384 83.9417 112.76V115.316C83.9417 115.444 84.0017 115.54 84.1217 115.604C84.2417 115.668 84.3977 115.7 84.5897 115.7H84.7937V116H81.9497V115.7H82.1777C82.3697 115.7 82.5217 115.668 82.6337 115.604C82.7537 115.54 82.8137 115.444 82.8137 115.316V111.284C82.8137 111.116 82.7337 111.032 82.5737 111.032C82.4937 111.032 82.3737 111.064 82.2137 111.128L82.1417 110.864L83.6777 110.324H83.9417V111.428C84.0537 111.084 84.2537 110.8 84.5417 110.576C84.8297 110.352 85.1497 110.24 85.5017 110.24ZM87.8453 109.268C87.6373 109.268 87.4693 109.208 87.3413 109.088C87.2213 108.96 87.1613 108.8 87.1613 108.608C87.1613 108.408 87.2213 108.248 87.3413 108.128C87.4693 108.008 87.6373 107.948 87.8453 107.948C88.0453 107.948 88.2053 108.008 88.3253 108.128C88.4533 108.248 88.5173 108.408 88.5173 108.608C88.5173 108.8 88.4533 108.96 88.3253 109.088C88.2053 109.208 88.0453 109.268 87.8453 109.268ZM86.5133 115.7H86.7413C86.9333 115.7 87.0853 115.668 87.1973 115.604C87.3173 115.54 87.3773 115.444 87.3773 115.316V111.272C87.3773 111.096 87.2933 111.008 87.1253 111.008C87.0853 111.008 87.0253 111.024 86.9453 111.056C86.8653 111.08 86.8093 111.096 86.7773 111.104L86.6933 110.828L88.2053 110.3H88.5053V115.316C88.5053 115.444 88.5613 115.54 88.6733 115.604C88.7933 115.668 88.9493 115.7 89.1413 115.7H89.3693V116H86.5133V115.7ZM91.3729 116.12C90.8849 116.12 90.5009 116.008 90.2209 115.784C89.9489 115.552 89.8129 115.24 89.8129 114.848C89.8129 114.264 90.1169 113.784 90.7249 113.408C91.3409 113.032 92.2849 112.756 93.5569 112.58V111.956C93.5569 111.548 93.4289 111.24 93.1729 111.032C92.9169 110.824 92.5769 110.72 92.1529 110.72C91.8489 110.72 91.5689 110.78 91.3129 110.9C91.0569 111.02 90.9289 111.148 90.9289 111.284C90.9289 111.332 90.9369 111.392 90.9529 111.464C90.9689 111.536 90.9769 111.592 90.9769 111.632C90.9769 111.752 90.9409 111.856 90.8689 111.944C90.7969 112.032 90.6809 112.076 90.5209 112.076C90.3849 112.076 90.2689 112.028 90.1729 111.932C90.0849 111.828 90.0409 111.684 90.0409 111.5C90.0409 111.1 90.2689 110.792 90.7249 110.576C91.1809 110.352 91.7369 110.24 92.3929 110.24C93.1289 110.24 93.6969 110.404 94.0969 110.732C94.4969 111.052 94.6969 111.492 94.6969 112.052V115.304C94.6969 115.56 94.7849 115.688 94.9609 115.688C95.0729 115.688 95.2169 115.656 95.3929 115.592V115.796C95.2729 115.9 95.1209 115.98 94.9369 116.036C94.7529 116.092 94.5649 116.12 94.3729 116.12C94.1569 116.12 93.9689 116.076 93.8089 115.988C93.6489 115.9 93.5689 115.756 93.5689 115.556V115.196C93.2489 115.548 92.8929 115.792 92.5009 115.928C92.1169 116.056 91.7409 116.12 91.3729 116.12ZM91.9249 115.64C92.2209 115.64 92.5289 115.544 92.8489 115.352C93.1769 115.16 93.4129 114.94 93.5569 114.692V112.976C92.7089 113.144 92.0569 113.388 91.6009 113.708C91.1529 114.02 90.9289 114.372 90.9289 114.764C90.9289 115.052 91.0169 115.272 91.1929 115.424C91.3689 115.568 91.6129 115.64 91.9249 115.64Z" fill="#FFF2E0"/>
<path fill-rule="evenodd" clip-rule="evenodd" d="M62.3333 54.7273C62.3333 53.221 63.5272 52 65 52H73C74.4728 52 75.6667 53.221 75.6667 54.7273V57.4545C75.6667 58.9608 74.4728 60.1818 73 60.1818H65C63.5272 60.1818 62.3333 58.9608 62.3333 57.4545V54.7273ZM73 54.7273H65V57.4545H73V54.7273Z" fill="#EBC894"/>
<path fill-rule="evenodd" clip-rule="evenodd" d="M61 57.4545C60.6464 57.4545 60.3072 57.5982 60.0572 57.8539C59.8071 58.1097 59.6667 58.4565 59.6667 58.8182V77.9091C59.6667 78.2708 59.8071 78.6176 60.0572 78.8733C60.3072 79.1291 60.6464 79.2727 61 79.2727H77C77.3536 79.2727 77.6928 79.1291 77.9428 78.8733C78.1929 78.6176 78.3333 78.2707 78.3333 77.9091V58.8182C78.3333 58.4565 78.1929 58.1097 77.9428 57.8539C77.6928 57.5982 77.3536 57.4545 77 57.4545H74.3333C73.597 57.4545 73 56.844 73 56.0909C73 55.3378 73.597 54.7273 74.3333 54.7273H77C78.0609 54.7273 79.0783 55.1583 79.8284 55.9255C80.5786 56.6927 81 57.7332 81 58.8182V77.9091C81 78.9941 80.5786 80.0346 79.8284 80.8018C79.0783 81.569 78.0609 82 77 82H61C59.9391 82 58.9217 81.569 58.1716 80.8018C57.4214 80.0346 57 78.9941 57 77.9091V58.8182C57 57.7332 57.4214 56.6927 58.1716 55.9255C58.9217 55.1583 59.9391 54.7273 61 54.7273H63.6667C64.403 54.7273 65 55.3378 65 56.0909C65 56.844 64.403 57.4545 63.6667 57.4545H61Z" fill="#EBC894"/>
<path fill-rule="evenodd" clip-rule="evenodd" d="M67.6667 65.6364C67.6667 64.8832 68.2636 64.2727 69 64.2727H74.3333C75.0697 64.2727 75.6667 64.8832 75.6667 65.6364C75.6667 66.3895 75.0697 67 74.3333 67H69C68.2636 67 67.6667 66.3895 67.6667 65.6364Z" fill="#EBC894"/>
<path fill-rule="evenodd" clip-rule="evenodd" d="M67.6667 72.4545C67.6667 71.7014 68.2636 71.0909 69 71.0909H74.3333C75.0697 71.0909 75.6667 71.7014 75.6667 72.4545C75.6667 73.2077 75.0697 73.8182 74.3333 73.8182H69C68.2636 73.8182 67.6667 73.2077 67.6667 72.4545Z" fill="#EBC894"/>
<path fill-rule="evenodd" clip-rule="evenodd" d="M62.3333 65.6364C62.3333 64.8832 62.9303 64.2727 63.6667 64.2727H63.68C64.4164 64.2727 65.0133 64.8832 65.0133 65.6364C65.0133 66.3895 64.4164 67 63.68 67H63.6667C62.9303 67 62.3333 66.3895 62.3333 65.6364Z" fill="#EBC894"/>
<path fill-rule="evenodd" clip-rule="evenodd" d="M62.3333 72.4545C62.3333 71.7014 62.9303 71.0909 63.6667 71.0909H63.68C64.4164 71.0909 65.0133 71.7014 65.0133 72.4545C65.0133 73.2077 64.4164 73.8182 63.68 73.8182H63.6667C62.9303 73.8182 62.3333 73.2077 62.3333 72.4545Z" fill="#EBC894"/>
<defs>
<linearGradient id="paint0_linear_2_2631" x1="3.42386e-07" y1="-8.5" x2="156.5" y2="208" gradientUnits="userSpaceOnUse">
<stop stop-color="#03131C"/>
<stop offset="0.427976" stop-color="#082331"/>
<stop offset="0.975364" stop-color="#03131C"/>
</linearGradient>
<linearGradient id="paint1_linear_2_2631" x1="6" y1="-8" x2="143.5" y2="206.5" gradientUnits="userSpaceOnUse">
<stop stop-color="#EBC894"/>
<stop offset="0.244944" stop-color="#EBC894" stop-opacity="0"/>
<stop offset="0.51282" stop-color="#EBC894" stop-opacity="0"/>
<stop offset="1" stop-color="#EBC894"/>
</linearGradient>
</defs>
</svg>
