<svg width="137" height="168" viewBox="0 0 137 168" fill="none" xmlns="http://www.w3.org/2000/svg">
<rect x="0.5" y="0.5" width="136" height="167" rx="7.5" fill="url(#paint0_linear_1_42)" stroke="url(#paint1_linear_1_42)"/>
<path d="M39.7809 105.12C38.5089 105.12 37.5329 104.744 36.8529 103.992C36.1729 103.232 35.8329 102.168 35.8329 100.8C35.8329 99.904 35.9889 99.132 36.3009 98.484C36.6209 97.836 37.0809 97.34 37.6809 96.996C38.2889 96.652 39.0169 96.48 39.8649 96.48C40.7529 96.48 41.5289 96.72 42.1929 97.2C42.2009 97.2 42.2169 97.208 42.2409 97.224C42.2649 97.24 42.2849 97.248 42.3009 97.248C42.3729 97.248 42.4089 97.188 42.4089 97.068V96.54H42.8409V98.844H42.4929C42.4289 98.252 42.1729 97.796 41.7249 97.476C41.2769 97.148 40.7329 96.984 40.0929 96.984C39.1089 96.984 38.3489 97.328 37.8129 98.016C37.2849 98.704 37.0209 99.632 37.0209 100.8C37.0209 101.992 37.2649 102.928 37.7529 103.608C38.2489 104.288 38.9849 104.628 39.9609 104.628C40.5209 104.628 41.0409 104.492 41.5209 104.22C42.0089 103.94 42.3489 103.516 42.5409 102.948H43.0089C42.8649 103.62 42.5049 104.152 41.9289 104.544C41.3529 104.928 40.6369 105.12 39.7809 105.12ZM46.5237 105.12C45.5557 105.12 44.8037 104.864 44.2677 104.352C43.7397 103.84 43.4757 103.116 43.4757 102.18C43.4757 101.244 43.7437 100.52 44.2797 100.008C44.8157 99.496 45.5637 99.24 46.5237 99.24C47.4837 99.24 48.2277 99.496 48.7557 100.008C49.2917 100.52 49.5597 101.244 49.5597 102.18C49.5597 103.116 49.2917 103.84 48.7557 104.352C48.2277 104.864 47.4837 105.12 46.5237 105.12ZM46.5237 104.664C47.1157 104.664 47.5837 104.448 47.9277 104.016C48.2717 103.584 48.4437 102.972 48.4437 102.18C48.4437 101.396 48.2717 100.792 47.9277 100.368C47.5837 99.936 47.1157 99.72 46.5237 99.72C45.9237 99.72 45.4517 99.936 45.1077 100.368C44.7637 100.792 44.5917 101.396 44.5917 102.18C44.5917 102.972 44.7637 103.584 45.1077 104.016C45.4517 104.448 45.9237 104.664 46.5237 104.664ZM60.1614 104.7V105H57.3294V104.7H57.5454C57.7374 104.7 57.8934 104.668 58.0134 104.604C58.1334 104.54 58.1934 104.444 58.1934 104.316V101.016C58.1934 100.592 58.0934 100.272 57.8934 100.056C57.6934 99.84 57.4294 99.732 57.1014 99.732C56.6694 99.732 56.3094 99.892 56.0214 100.212C55.7334 100.532 55.5894 100.988 55.5894 101.58V104.316C55.5894 104.444 55.6494 104.54 55.7694 104.604C55.8894 104.668 56.0454 104.7 56.2374 104.7H56.3454V105H53.7294V104.7H53.8614C54.0614 104.7 54.2174 104.668 54.3294 104.604C54.4494 104.54 54.5094 104.444 54.5094 104.316V101.016C54.5094 100.592 54.4094 100.272 54.2094 100.056C54.0174 99.84 53.7534 99.732 53.4174 99.732C52.9854 99.732 52.6254 99.892 52.3374 100.212C52.0574 100.532 51.9174 100.988 51.9174 101.58V104.316C51.9174 104.444 51.9774 104.54 52.0974 104.604C52.2174 104.668 52.3734 104.7 52.5654 104.7H52.7694V105H49.9254V104.7H50.1534C50.3454 104.7 50.4974 104.668 50.6094 104.604C50.7294 104.54 50.7894 104.444 50.7894 104.316V100.284C50.7894 100.116 50.7094 100.032 50.5494 100.032C50.4694 100.032 50.3494 100.064 50.1894 100.128L50.1174 99.864L51.6174 99.324H51.9174V100.236C52.0694 99.956 52.3054 99.72 52.6254 99.528C52.9454 99.336 53.3174 99.24 53.7414 99.24C54.2374 99.24 54.6334 99.34 54.9294 99.54C55.2334 99.74 55.4334 100.012 55.5294 100.356C55.6574 100.06 55.8894 99.8 56.2254 99.576C56.5694 99.352 56.9694 99.24 57.4254 99.24C58.0414 99.24 58.5094 99.388 58.8294 99.684C59.1574 99.98 59.3214 100.376 59.3214 100.872V104.316C59.3214 104.444 59.3774 104.54 59.4894 104.604C59.6094 104.668 59.7654 104.7 59.9574 104.7H60.1614ZM60.4669 107.4H60.6949C60.8869 107.4 61.0429 107.368 61.1629 107.304C61.2829 107.24 61.3429 107.144 61.3429 107.016V100.284C61.3429 100.196 61.3149 100.132 61.2589 100.092C61.2109 100.052 61.1549 100.032 61.0909 100.032C61.0269 100.032 60.9069 100.064 60.7309 100.128L60.6469 99.864L62.1589 99.324H62.4589V100.248C62.6909 99.888 62.9829 99.632 63.3349 99.48C63.6869 99.32 64.0589 99.24 64.4509 99.24C65.2349 99.24 65.8509 99.48 66.2989 99.96C66.7469 100.44 66.9709 101.132 66.9709 102.036C66.9709 103.116 66.7309 103.9 66.2509 104.388C65.7789 104.876 65.0869 105.12 64.1749 105.12C63.7989 105.12 63.4509 105.04 63.1309 104.88C62.8109 104.72 62.5869 104.524 62.4589 104.292V107.004C62.4589 107.132 62.5189 107.228 62.6389 107.292C62.7589 107.364 62.9109 107.4 63.0949 107.4H63.2989V107.7H60.4669V107.4ZM64.1029 104.664C64.7189 104.664 65.1629 104.436 65.4349 103.98C65.7149 103.516 65.8549 102.888 65.8549 102.096C65.8549 101.304 65.7109 100.712 65.4229 100.32C65.1349 99.92 64.6869 99.72 64.0789 99.72C63.8469 99.72 63.6029 99.792 63.3469 99.936C63.0989 100.072 62.8869 100.268 62.7109 100.524C62.5429 100.772 62.4589 101.06 62.4589 101.388V103.068C62.4589 103.516 62.6029 103.896 62.8909 104.208C63.1869 104.512 63.5909 104.664 64.1029 104.664ZM67.4602 104.7H67.6762C67.8762 104.7 68.0322 104.668 68.1442 104.604C68.2642 104.54 68.3242 104.444 68.3242 104.316V97.368C68.3242 97.2 68.2402 97.116 68.0722 97.116C68.0002 97.116 67.8842 97.148 67.7242 97.212L67.6402 96.936L69.1522 96.396H69.4522V104.316C69.4522 104.444 69.5082 104.54 69.6202 104.604C69.7402 104.668 69.8962 104.7 70.0882 104.7H70.2922V105H67.4602V104.7ZM72.1013 98.268C71.8933 98.268 71.7253 98.208 71.5973 98.088C71.4773 97.96 71.4173 97.8 71.4173 97.608C71.4173 97.408 71.4773 97.248 71.5973 97.128C71.7253 97.008 71.8933 96.948 72.1013 96.948C72.3013 96.948 72.4613 97.008 72.5813 97.128C72.7093 97.248 72.7733 97.408 72.7733 97.608C72.7733 97.8 72.7093 97.96 72.5813 98.088C72.4613 98.208 72.3013 98.268 72.1013 98.268ZM70.7693 104.7H70.9973C71.1893 104.7 71.3413 104.668 71.4533 104.604C71.5733 104.54 71.6333 104.444 71.6333 104.316V100.272C71.6333 100.096 71.5493 100.008 71.3813 100.008C71.3413 100.008 71.2813 100.024 71.2013 100.056C71.1213 100.08 71.0653 100.096 71.0333 100.104L70.9493 99.828L72.4613 99.3H72.7613V104.316C72.7613 104.444 72.8173 104.54 72.9293 104.604C73.0493 104.668 73.2053 104.7 73.3973 104.7H73.6253V105H70.7693V104.7ZM75.6289 105.12C75.1409 105.12 74.7569 105.008 74.4769 104.784C74.2049 104.552 74.0689 104.24 74.0689 103.848C74.0689 103.264 74.3729 102.784 74.9809 102.408C75.5969 102.032 76.5409 101.756 77.8129 101.58V100.956C77.8129 100.548 77.6849 100.24 77.4289 100.032C77.1729 99.824 76.8329 99.72 76.4089 99.72C76.1049 99.72 75.8249 99.78 75.5689 99.9C75.3129 100.02 75.1849 100.148 75.1849 100.284C75.1849 100.332 75.1929 100.392 75.2089 100.464C75.2249 100.536 75.2329 100.592 75.2329 100.632C75.2329 100.752 75.1969 100.856 75.1249 100.944C75.0529 101.032 74.9369 101.076 74.7769 101.076C74.6409 101.076 74.5249 101.028 74.4289 100.932C74.3409 100.828 74.2969 100.684 74.2969 100.5C74.2969 100.1 74.5249 99.792 74.9809 99.576C75.4369 99.352 75.9929 99.24 76.6489 99.24C77.3849 99.24 77.9529 99.404 78.3529 99.732C78.7529 100.052 78.9529 100.492 78.9529 101.052V104.304C78.9529 104.56 79.0409 104.688 79.2169 104.688C79.3289 104.688 79.4729 104.656 79.6489 104.592V104.796C79.5289 104.9 79.3769 104.98 79.1929 105.036C79.0089 105.092 78.8209 105.12 78.6289 105.12C78.4129 105.12 78.2249 105.076 78.0649 104.988C77.9049 104.9 77.8249 104.756 77.8249 104.556V104.196C77.5049 104.548 77.1489 104.792 76.7569 104.928C76.3729 105.056 75.9969 105.12 75.6289 105.12ZM76.1809 104.64C76.4769 104.64 76.7849 104.544 77.1049 104.352C77.4329 104.16 77.6689 103.94 77.8129 103.692V101.976C76.9649 102.144 76.3129 102.388 75.8569 102.708C75.4089 103.02 75.1849 103.372 75.1849 103.764C75.1849 104.052 75.2729 104.272 75.4489 104.424C75.6249 104.568 75.8689 104.64 76.1809 104.64ZM86.7513 104.7V105H83.9553V104.7H84.1473C84.3313 104.7 84.4793 104.668 84.5913 104.604C84.7033 104.54 84.7593 104.444 84.7593 104.316V101.016C84.7593 100.592 84.6513 100.272 84.4353 100.056C84.2193 99.84 83.9113 99.732 83.5113 99.732C83.2313 99.732 82.9593 99.804 82.6953 99.948C82.4393 100.084 82.2273 100.292 82.0593 100.572C81.8913 100.852 81.8073 101.188 81.8073 101.58V104.316C81.8073 104.444 81.8633 104.54 81.9753 104.604C82.0953 104.668 82.2473 104.7 82.4313 104.7H82.6113V105H79.8153V104.7H80.0433C80.2353 104.7 80.3873 104.668 80.4993 104.604C80.6193 104.54 80.6793 104.444 80.6793 104.316V100.284C80.6793 100.116 80.5953 100.032 80.4273 100.032C80.3553 100.032 80.2393 100.064 80.0793 100.128L79.9953 99.864L81.5073 99.324H81.8073V100.26C81.9833 99.972 82.2513 99.732 82.6113 99.54C82.9793 99.34 83.3873 99.24 83.8353 99.24C84.4993 99.24 85.0073 99.388 85.3593 99.684C85.7113 99.98 85.8873 100.376 85.8873 100.872V104.316C85.8873 104.444 85.9473 104.54 86.0673 104.604C86.1873 104.668 86.3433 104.7 86.5353 104.7H86.7513ZM90.0278 105.12C89.1078 105.12 88.3918 104.868 87.8798 104.364C87.3758 103.852 87.1238 103.124 87.1238 102.18C87.1238 101.268 87.3798 100.552 87.8918 100.032C88.4118 99.504 89.1318 99.24 90.0518 99.24C90.4358 99.24 90.8038 99.296 91.1558 99.408C91.5078 99.52 91.7958 99.712 92.0198 99.984L92.1398 99.24H92.4398V101.232H92.1518C92.0718 100.72 91.8718 100.336 91.5518 100.08C91.2398 99.824 90.8438 99.696 90.3638 99.696C89.6918 99.696 89.1718 99.928 88.8038 100.392C88.4438 100.848 88.2638 101.448 88.2638 102.192C88.2638 102.944 88.4358 103.548 88.7798 104.004C89.1318 104.46 89.5958 104.688 90.1718 104.688C90.6998 104.688 91.1318 104.552 91.4678 104.28C91.8038 104 92.0198 103.572 92.1158 102.996H92.4758C92.4118 103.636 92.1758 104.152 91.7678 104.544C91.3598 104.928 90.7798 105.12 90.0278 105.12ZM94.1413 101.904C94.1333 101.968 94.1293 102.064 94.1293 102.192C94.1293 102.944 94.3053 103.548 94.6573 104.004C95.0173 104.46 95.4893 104.688 96.0733 104.688C96.6013 104.688 97.0373 104.552 97.3813 104.28C97.7253 104 97.9493 103.572 98.0533 102.996H98.4013C98.3373 103.636 98.0973 104.152 97.6813 104.544C97.2653 104.928 96.6813 105.12 95.9293 105.12C95.0013 105.12 94.2773 104.868 93.7573 104.364C93.2453 103.852 92.9893 103.124 92.9893 102.18C92.9893 101.268 93.2453 100.552 93.7573 100.032C94.2773 99.504 94.9893 99.24 95.8933 99.24C96.7253 99.24 97.3573 99.464 97.7893 99.912C98.2293 100.352 98.4493 100.924 98.4493 101.628V101.904H94.1413ZM95.9293 99.696C95.4573 99.696 95.0733 99.852 94.7773 100.164C94.4813 100.476 94.2853 100.9 94.1893 101.436H97.4533C97.4373 100.988 97.3053 100.588 97.0573 100.236C96.8173 99.876 96.4413 99.696 95.9293 99.696ZM44.4001 114.908C44.3601 115.324 44.1921 115.632 43.8961 115.832C43.6081 116.024 43.2521 116.12 42.8281 116.12C42.2281 116.12 41.7721 115.996 41.4601 115.748C41.1481 115.5 40.9921 115.088 40.9921 114.512V110.828H40.0561V110.36H40.9921V109.328L41.8321 108.764H42.1201V110.36H43.8121V110.828H42.1201V114.488C42.1201 114.896 42.1921 115.2 42.3361 115.4C42.4881 115.592 42.7201 115.688 43.0321 115.688C43.2801 115.688 43.4921 115.628 43.6681 115.508C43.8521 115.38 43.9601 115.18 43.9921 114.908H44.4001ZM48.3176 110.24C48.5496 110.24 48.7456 110.284 48.9056 110.372C49.0736 110.452 49.1576 110.58 49.1576 110.756C49.1576 110.908 49.1176 111.024 49.0376 111.104C48.9656 111.184 48.8616 111.224 48.7256 111.224C48.6376 111.224 48.5656 111.208 48.5096 111.176C48.4616 111.144 48.4176 111.1 48.3776 111.044C48.3216 110.988 48.2696 110.948 48.2216 110.924C48.1736 110.892 48.1056 110.876 48.0176 110.876C47.8096 110.876 47.6096 110.952 47.4176 111.104C47.2336 111.256 47.0816 111.476 46.9616 111.764C46.8416 112.052 46.7736 112.384 46.7576 112.76V115.316C46.7576 115.444 46.8176 115.54 46.9376 115.604C47.0576 115.668 47.2136 115.7 47.4056 115.7H47.6096V116H44.7656V115.7H44.9936C45.1856 115.7 45.3376 115.668 45.4496 115.604C45.5696 115.54 45.6296 115.444 45.6296 115.316V111.284C45.6296 111.116 45.5496 111.032 45.3896 111.032C45.3096 111.032 45.1896 111.064 45.0296 111.128L44.9576 110.864L46.4936 110.324H46.7576V111.428C46.8696 111.084 47.0696 110.8 47.3576 110.576C47.6456 110.352 47.9656 110.24 48.3176 110.24ZM50.9132 116.12C50.4252 116.12 50.0412 116.008 49.7612 115.784C49.4892 115.552 49.3532 115.24 49.3532 114.848C49.3532 114.264 49.6572 113.784 50.2652 113.408C50.8812 113.032 51.8252 112.756 53.0972 112.58V111.956C53.0972 111.548 52.9692 111.24 52.7132 111.032C52.4572 110.824 52.1172 110.72 51.6932 110.72C51.3892 110.72 51.1092 110.78 50.8532 110.9C50.5972 111.02 50.4692 111.148 50.4692 111.284C50.4692 111.332 50.4772 111.392 50.4932 111.464C50.5092 111.536 50.5172 111.592 50.5172 111.632C50.5172 111.752 50.4812 111.856 50.4092 111.944C50.3372 112.032 50.2212 112.076 50.0612 112.076C49.9252 112.076 49.8092 112.028 49.7132 111.932C49.6252 111.828 49.5812 111.684 49.5812 111.5C49.5812 111.1 49.8092 110.792 50.2652 110.576C50.7212 110.352 51.2772 110.24 51.9332 110.24C52.6692 110.24 53.2372 110.404 53.6372 110.732C54.0372 111.052 54.2372 111.492 54.2372 112.052V115.304C54.2372 115.56 54.3252 115.688 54.5012 115.688C54.6132 115.688 54.7572 115.656 54.9332 115.592V115.796C54.8132 115.9 54.6612 115.98 54.4772 116.036C54.2932 116.092 54.1052 116.12 53.9132 116.12C53.6972 116.12 53.5092 116.076 53.3492 115.988C53.1892 115.9 53.1092 115.756 53.1092 115.556V115.196C52.7892 115.548 52.4332 115.792 52.0412 115.928C51.6572 116.056 51.2812 116.12 50.9132 116.12ZM51.4652 115.64C51.7612 115.64 52.0692 115.544 52.3892 115.352C52.7172 115.16 52.9532 114.94 53.0972 114.692V112.976C52.2492 113.144 51.5972 113.388 51.1412 113.708C50.6932 114.02 50.4692 114.372 50.4692 114.764C50.4692 115.052 50.5572 115.272 50.7332 115.424C50.9092 115.568 51.1532 115.64 51.4652 115.64ZM58.7235 116.12C58.2115 116.12 57.7795 116.036 57.4275 115.868C57.0755 115.7 56.8155 115.468 56.6475 115.172L56.3355 116H55.7955V108.368C55.7955 108.2 55.7155 108.116 55.5555 108.116C55.4755 108.116 55.3555 108.148 55.1955 108.212L55.1115 107.936L56.6235 107.396H56.9235V111.212C57.1155 110.892 57.3915 110.652 57.7515 110.492C58.1115 110.324 58.4755 110.24 58.8435 110.24C59.6355 110.24 60.2635 110.488 60.7275 110.984C61.1915 111.472 61.4235 112.176 61.4235 113.096C61.4235 114.176 61.1875 114.952 60.7155 115.424C60.2515 115.888 59.5875 116.12 58.7235 116.12ZM58.5675 115.664C59.1835 115.664 59.6275 115.44 59.8995 114.992C60.1715 114.536 60.3075 113.924 60.3075 113.156C60.3075 111.532 59.7075 110.72 58.5075 110.72C58.2595 110.72 58.0115 110.788 57.7635 110.924C57.5155 111.06 57.3115 111.252 57.1515 111.5C56.9995 111.74 56.9235 112.016 56.9235 112.328V113.924C56.9235 114.22 56.9875 114.5 57.1155 114.764C57.2515 115.028 57.4435 115.244 57.6915 115.412C57.9395 115.58 58.2315 115.664 58.5675 115.664ZM63.4996 116.12C63.0116 116.12 62.6276 116.008 62.3476 115.784C62.0756 115.552 61.9396 115.24 61.9396 114.848C61.9396 114.264 62.2436 113.784 62.8516 113.408C63.4676 113.032 64.4116 112.756 65.6836 112.58V111.956C65.6836 111.548 65.5556 111.24 65.2996 111.032C65.0436 110.824 64.7036 110.72 64.2796 110.72C63.9756 110.72 63.6956 110.78 63.4396 110.9C63.1836 111.02 63.0556 111.148 63.0556 111.284C63.0556 111.332 63.0636 111.392 63.0796 111.464C63.0956 111.536 63.1036 111.592 63.1036 111.632C63.1036 111.752 63.0676 111.856 62.9956 111.944C62.9236 112.032 62.8076 112.076 62.6476 112.076C62.5116 112.076 62.3956 112.028 62.2996 111.932C62.2116 111.828 62.1676 111.684 62.1676 111.5C62.1676 111.1 62.3956 110.792 62.8516 110.576C63.3076 110.352 63.8636 110.24 64.5196 110.24C65.2556 110.24 65.8236 110.404 66.2236 110.732C66.6236 111.052 66.8236 111.492 66.8236 112.052V115.304C66.8236 115.56 66.9116 115.688 67.0876 115.688C67.1996 115.688 67.3436 115.656 67.5196 115.592V115.796C67.3996 115.9 67.2476 115.98 67.0636 116.036C66.8796 116.092 66.6916 116.12 66.4996 116.12C66.2836 116.12 66.0956 116.076 65.9356 115.988C65.7756 115.9 65.6956 115.756 65.6956 115.556V115.196C65.3756 115.548 65.0196 115.792 64.6276 115.928C64.2436 116.056 63.8676 116.12 63.4996 116.12ZM64.0516 115.64C64.3476 115.64 64.6556 115.544 64.9756 115.352C65.3036 115.16 65.5396 114.94 65.6836 114.692V112.976C64.8356 113.144 64.1836 113.388 63.7276 113.708C63.2796 114.02 63.0556 114.372 63.0556 114.764C63.0556 115.052 63.1436 115.272 63.3196 115.424C63.4956 115.568 63.7396 115.64 64.0516 115.64ZM67.8179 115.7H68.0339C68.2339 115.7 68.3899 115.668 68.5019 115.604C68.6219 115.54 68.6819 115.444 68.6819 115.316V108.368C68.6819 108.2 68.5979 108.116 68.4299 108.116C68.3579 108.116 68.2419 108.148 68.0819 108.212L67.9979 107.936L69.5099 107.396H69.8099V115.316C69.8099 115.444 69.8659 115.54 69.9779 115.604C70.0979 115.668 70.2539 115.7 70.4459 115.7H70.6499V116H67.8179V115.7ZM78.003 115.7V116H75.207V115.7H75.399C75.583 115.7 75.731 115.668 75.843 115.604C75.955 115.54 76.011 115.444 76.011 115.316V112.016C76.011 111.592 75.903 111.272 75.687 111.056C75.471 110.84 75.163 110.732 74.763 110.732C74.483 110.732 74.211 110.804 73.947 110.948C73.691 111.084 73.479 111.292 73.311 111.572C73.143 111.852 73.059 112.188 73.059 112.58V115.316C73.059 115.444 73.115 115.54 73.227 115.604C73.347 115.668 73.499 115.7 73.683 115.7H73.863V116H71.067V115.7H71.295C71.487 115.7 71.639 115.668 71.751 115.604C71.871 115.54 71.931 115.444 71.931 115.316V108.368C71.931 108.2 71.847 108.116 71.679 108.116C71.607 108.116 71.491 108.148 71.331 108.212L71.247 107.936L72.759 107.396H73.059V111.26C73.235 110.972 73.503 110.732 73.863 110.54C74.231 110.34 74.639 110.24 75.087 110.24C75.751 110.24 76.259 110.388 76.611 110.684C76.963 110.98 77.139 111.376 77.139 111.872V115.316C77.139 115.444 77.199 115.54 77.319 115.604C77.439 115.668 77.595 115.7 77.787 115.7H78.003ZM79.6838 109.268C79.4758 109.268 79.3078 109.208 79.1798 109.088C79.0598 108.96 78.9998 108.8 78.9998 108.608C78.9998 108.408 79.0598 108.248 79.1798 108.128C79.3078 108.008 79.4758 107.948 79.6838 107.948C79.8838 107.948 80.0438 108.008 80.1638 108.128C80.2918 108.248 80.3558 108.408 80.3558 108.608C80.3558 108.8 80.2918 108.96 80.1638 109.088C80.0438 109.208 79.8838 109.268 79.6838 109.268ZM78.3518 115.7H78.5798C78.7718 115.7 78.9238 115.668 79.0358 115.604C79.1558 115.54 79.2158 115.444 79.2158 115.316V111.272C79.2158 111.096 79.1318 111.008 78.9638 111.008C78.9238 111.008 78.8638 111.024 78.7838 111.056C78.7038 111.08 78.6478 111.096 78.6158 111.104L78.5318 110.828L80.0438 110.3H80.3438V115.316C80.3438 115.444 80.3998 115.54 80.5118 115.604C80.6318 115.668 80.7878 115.7 80.9798 115.7H81.2078V116H78.3518V115.7ZM84.1354 116.12C83.2314 116.12 82.5914 115.868 82.2154 115.364L82.0834 116.096H81.7834V114.308H82.0834C82.1714 114.724 82.3674 115.056 82.6714 115.304C82.9754 115.544 83.3554 115.664 83.8114 115.664C84.2754 115.664 84.6314 115.58 84.8794 115.412C85.1354 115.244 85.2634 115 85.2634 114.68C85.2634 114.432 85.1514 114.24 84.9274 114.104C84.7034 113.96 84.3594 113.808 83.8954 113.648C83.4634 113.488 83.1114 113.34 82.8394 113.204C82.5754 113.06 82.3474 112.868 82.1554 112.628C81.9634 112.38 81.8674 112.068 81.8674 111.692C81.8674 111.228 82.0474 110.872 82.4074 110.624C82.7674 110.368 83.2714 110.24 83.9194 110.24C84.2794 110.24 84.6314 110.3 84.9754 110.42C85.3194 110.54 85.5834 110.716 85.7674 110.948L85.8994 110.24H86.1994V111.98H85.8994C85.8034 111.604 85.6114 111.3 85.3234 111.068C85.0434 110.836 84.6834 110.72 84.2434 110.72C83.8594 110.72 83.5514 110.796 83.3194 110.948C83.0874 111.1 82.9714 111.308 82.9714 111.572C82.9714 111.86 83.0914 112.084 83.3314 112.244C83.5794 112.404 83.9514 112.568 84.4474 112.736C84.8714 112.888 85.2114 113.028 85.4674 113.156C85.7234 113.276 85.9394 113.452 86.1154 113.684C86.2994 113.908 86.3914 114.196 86.3914 114.548C86.3914 115.076 86.1794 115.472 85.7554 115.736C85.3394 115.992 84.7994 116.12 84.1354 116.12ZM91.0721 114.908C91.0321 115.324 90.8641 115.632 90.5681 115.832C90.2801 116.024 89.9241 116.12 89.5001 116.12C88.9001 116.12 88.4441 115.996 88.1321 115.748C87.8201 115.5 87.6641 115.088 87.6641 114.512V110.828H86.7281V110.36H87.6641V109.328L88.5041 108.764H88.7921V110.36H90.4841V110.828H88.7921V114.488C88.7921 114.896 88.8641 115.2 89.0081 115.4C89.1601 115.592 89.3921 115.688 89.7041 115.688C89.9521 115.688 90.1641 115.628 90.3401 115.508C90.5241 115.38 90.6321 115.18 90.6641 114.908H91.0721ZM92.9736 116.12C92.4856 116.12 92.1016 116.008 91.8216 115.784C91.5496 115.552 91.4136 115.24 91.4136 114.848C91.4136 114.264 91.7176 113.784 92.3256 113.408C92.9416 113.032 93.8856 112.756 95.1576 112.58V111.956C95.1576 111.548 95.0296 111.24 94.7736 111.032C94.5176 110.824 94.1776 110.72 93.7536 110.72C93.4496 110.72 93.1696 110.78 92.9136 110.9C92.6576 111.02 92.5296 111.148 92.5296 111.284C92.5296 111.332 92.5376 111.392 92.5536 111.464C92.5696 111.536 92.5776 111.592 92.5776 111.632C92.5776 111.752 92.5416 111.856 92.4696 111.944C92.3976 112.032 92.2816 112.076 92.1216 112.076C91.9856 112.076 91.8696 112.028 91.7736 111.932C91.6856 111.828 91.6416 111.684 91.6416 111.5C91.6416 111.1 91.8696 110.792 92.3256 110.576C92.7816 110.352 93.3376 110.24 93.9936 110.24C94.7296 110.24 95.2976 110.404 95.6976 110.732C96.0976 111.052 96.2976 111.492 96.2976 112.052V115.304C96.2976 115.56 96.3856 115.688 96.5616 115.688C96.6736 115.688 96.8176 115.656 96.9936 115.592V115.796C96.8736 115.9 96.7216 115.98 96.5376 116.036C96.3536 116.092 96.1656 116.12 95.9736 116.12C95.7576 116.12 95.5696 116.076 95.4096 115.988C95.2496 115.9 95.1696 115.756 95.1696 115.556V115.196C94.8496 115.548 94.4936 115.792 94.1016 115.928C93.7176 116.056 93.3416 116.12 92.9736 116.12ZM93.5256 115.64C93.8216 115.64 94.1296 115.544 94.4496 115.352C94.7776 115.16 95.0136 114.94 95.1576 114.692V112.976C94.3096 113.144 93.6576 113.388 93.2016 113.708C92.7536 114.02 92.5296 114.372 92.5296 114.764C92.5296 115.052 92.6176 115.272 92.7936 115.424C92.9696 115.568 93.2136 115.64 93.5256 115.64Z" fill="#FFF2E0"/>
<path fill-rule="evenodd" clip-rule="evenodd" d="M68.4928 51.0926C68.8198 50.9691 69.1802 50.9691 69.5072 51.0926L81.0627 55.4563C81.6265 55.6692 82 56.2119 82 56.8182V67.0001C82 72.0131 78.7041 76.0188 75.729 78.6403C74.211 79.9778 72.6999 81.0232 71.5711 81.7337C71.0052 82.0898 70.5316 82.3642 70.1961 82.5512C70.0283 82.6448 69.8947 82.7166 69.8012 82.7661C69.7544 82.7908 69.7176 82.8099 69.6915 82.8234L69.6605 82.8393L69.6511 82.8441L69.648 82.8456C69.648 82.8456 69.646 82.8467 69 81.5457C68.354 82.8467 68.3531 82.8462 68.3531 82.8462L68.3489 82.8441L68.3395 82.8393L68.3085 82.8234C68.2824 82.8099 68.2456 82.7908 68.1988 82.7661C68.1053 82.7166 67.9717 82.6448 67.8039 82.5512C67.4684 82.3642 66.9948 82.0898 66.4289 81.7337C65.3001 81.0232 63.789 79.9778 62.271 78.6403C59.2959 76.0188 56 72.0131 56 67.0001V56.8182C56 56.2119 56.3735 55.6692 56.9373 55.4563L68.4928 51.0926ZM69 81.5457L68.3531 82.8462C68.7598 83.051 69.2393 83.0514 69.646 82.8467L69 81.5457ZM69 79.8915C69.2768 79.7335 69.6308 79.5243 70.04 79.2667C71.0779 78.6135 72.4557 77.659 73.8266 76.451C76.6292 73.9815 79.1111 70.7144 79.1111 67.0001V57.8262L69 54.008L58.8889 57.8262V67.0001C58.8889 70.7144 61.3708 73.9815 64.1734 76.451C65.5443 77.659 66.9221 78.6135 67.96 79.2667C68.3692 79.5243 68.7232 79.7335 69 79.8915Z" fill="#EBC894"/>
<path fill-rule="evenodd" clip-rule="evenodd" d="M68.4928 51.0926C68.8198 50.9691 69.1802 50.9691 69.5072 51.0926L81.0627 55.4563C81.6265 55.6692 82 56.2119 82 56.8182V67.0001C82 72.0131 78.7041 76.0188 75.729 78.6403C74.211 79.9778 72.6999 81.0232 71.5711 81.7337C71.0052 82.0898 70.5316 82.3642 70.1961 82.5512C70.0283 82.6448 69.8947 82.7166 69.8012 82.7661C69.7544 82.7908 69.7176 82.8099 69.6915 82.8234L69.6605 82.8393L69.6511 82.8441L69.648 82.8456C69.648 82.8456 69.646 82.8467 69 81.5457C68.354 82.8467 68.3531 82.8462 68.3531 82.8462L68.3489 82.8441L68.3395 82.8393L68.3085 82.8234C68.2824 82.8099 68.2456 82.7908 68.1988 82.7661C68.1053 82.7166 67.9717 82.6448 67.8039 82.5512C67.4684 82.3642 66.9948 82.0898 66.4289 81.7337C65.3001 81.0232 63.789 79.9778 62.271 78.6403C59.2959 76.0188 56 72.0131 56 67.0001V56.8182C56 56.2119 56.3735 55.6692 56.9373 55.4563L68.4928 51.0926ZM69 81.5457L68.3531 82.8462C68.7598 83.051 69.2393 83.0514 69.646 82.8467L69 81.5457ZM69 79.8915C69.2768 79.7335 69.6308 79.5243 70.04 79.2667C71.0779 78.6135 72.4557 77.659 73.8266 76.451C76.6292 73.9815 79.1111 70.7144 79.1111 67.0001V57.8262L69 54.008L58.8889 57.8262V67.0001C58.8889 70.7144 61.3708 73.9815 64.1734 76.451C65.5443 77.659 66.9221 78.6135 67.96 79.2667C68.3692 79.5243 68.7232 79.7335 69 79.8915Z" fill="#EBC894"/>
<defs>
<linearGradient id="paint0_linear_1_42" x1="3.42386e-07" y1="-8.5" x2="156.5" y2="208" gradientUnits="userSpaceOnUse">
<stop stop-color="#03131C"/>
<stop offset="0.427976" stop-color="#082331"/>
<stop offset="0.975364" stop-color="#03131C"/>
</linearGradient>
<linearGradient id="paint1_linear_1_42" x1="6" y1="-8" x2="143.5" y2="206.5" gradientUnits="userSpaceOnUse">
<stop stop-color="#EBC894"/>
<stop offset="0.244944" stop-color="#EBC894" stop-opacity="0"/>
<stop offset="0.51282" stop-color="#EBC894" stop-opacity="0"/>
<stop offset="1" stop-color="#EBC894"/>
</linearGradient>
</defs>
</svg>
