<?xml version="1.0" encoding="UTF-8"?>
<svg id="Camada_2" xmlns="http://www.w3.org/2000/svg" xmlns:xlink="http://www.w3.org/1999/xlink" viewBox="0 0 286.17 315.82">
  <defs>
    <style>
      .cls-1 {
        stroke: #224564;
        stroke-width: 7px;
      }

      .cls-1, .cls-2 {
        fill: none;
        stroke-miterlimit: 10;
      }

      .cls-3 {
        fill: url(#Gradiente_sem_nome_17);
      }

      .cls-2 {
        stroke: url(#Gradiente_sem_nome_23);
        stroke-width: 16px;
      }

      .cls-4 {
        fill: #ebc893;
      }
    </style>
    <radialGradient id="Gradiente_sem_nome_23" data-name="Gradiente sem nome 23" cx="143.41" cy="242" fx="143.41" fy="242" r="118.82" gradientTransform="translate(6.68 -68.36) scale(.95 1.21)" gradientUnits="userSpaceOnUse">
      <stop offset=".3" stop-color="#0f5f8d"/>
      <stop offset="1" stop-color="#05131b"/>
    </radialGradient>
    <radialGradient id="Gradiente_sem_nome_17" data-name="Gradiente sem nome 17" cx="158.19" cy="71.97" fx="158.19" fy="71.97" r="176.46" gradientTransform="translate(.08 27.94) scale(.9 .85)" gradientUnits="userSpaceOnUse">
      <stop offset="0" stop-color="#0f5f8d"/>
      <stop offset="1" stop-color="#05131b"/>
    </radialGradient>
  </defs>
  <g id="Camada_1-2" data-name="Camada_1">
    <g>
      <g>
        <path class="cls-4" d="M66.55,234.52h-.24c-2.06,0-3.93-.47-5.61-1.42-1.68-.95-3.02-2.24-4.02-3.88-1-1.64-1.5-3.51-1.5-5.61v-.21c0-2.01.51-3.83,1.53-5.46,1.02-1.62,2.37-2.9,4.05-3.84,1.68-.94,3.54-1.41,5.58-1.41,1.83,0,3.46.28,4.88.83,1.42.55,2.71,1.48,3.85,2.77l-2.75,2.57c-1.47-1.65-3.32-2.48-5.53-2.48-2.1,0-3.84.68-5.22,2.04-1.38,1.36-2.07,3.09-2.07,5.19s.69,3.88,2.07,5.22c1.38,1.34,3.12,2.01,5.22,2.01s4.02-.84,5.53-2.51l2.75,2.57c-1.07,1.21-2.33,2.12-3.78,2.72-1.45.6-3.03.91-4.75.91Z"/>
        <path class="cls-4" d="M84.09,234.4c-1.61,0-3.08-.34-4.41-1.01-1.33-.67-2.39-1.63-3.18-2.87-.79-1.24-1.18-2.72-1.18-4.43,0-1.49.35-2.87,1.04-4.13.7-1.26,1.7-2.27,3.01-3.02,1.31-.76,2.88-1.13,4.72-1.13,1.57,0,3.02.33,4.34,1,1.32.67,2.38,1.62,3.17,2.86.8,1.24,1.19,2.72,1.19,4.43,0,2.38-.81,4.36-2.42,5.94-1.61,1.58-3.71,2.37-6.29,2.37ZM84.09,230.98c.75,0,1.47-.17,2.16-.51s1.26-.88,1.71-1.6c.44-.73.67-1.65.67-2.78,0-1.33-.39-2.47-1.18-3.43-.79-.96-1.9-1.44-3.36-1.44-1.31,0-2.4.43-3.28,1.3-.88.87-1.32,2.06-1.32,3.57,0,1.37.4,2.53,1.19,3.48.8.95,1.93,1.42,3.4,1.42Z"/>
        <path class="cls-4" d="M122.28,234.19h-4.11v-8.68c0-1.45-.32-2.5-.95-3.16-.64-.65-1.47-.98-2.49-.98-1.15,0-2.1.36-2.86,1.09s-1.13,1.9-1.13,3.54v8.19h-4.11v-8.68c0-2.76-1.15-4.14-3.45-4.14-1.15,0-2.1.36-2.86,1.09s-1.13,1.9-1.13,3.54v8.19h-4.11v-16.18h3.93v2.03c1.27-1.49,3.02-2.24,5.26-2.24,1.07,0,2.08.22,3.02.65.95.43,1.74,1.13,2.39,2.1.62-.83,1.44-1.49,2.43-2,1-.5,2.18-.76,3.55-.76s2.46.24,3.46.73c1,.48,1.77,1.25,2.33,2.3.55,1.05.83,2.41.83,4.08v9.28Z"/>
        <path class="cls-4" d="M129.84,240.05h-4.11v-22.04h3.93v2.09c1.25-1.53,3.02-2.3,5.32-2.3,1.47,0,2.82.33,4.05.98,1.23.66,2.21,1.6,2.95,2.84.74,1.24,1.1,2.73,1.1,4.46s-.36,3.19-1.09,4.43c-.73,1.24-1.7,2.2-2.92,2.87-1.22.68-2.59,1.01-4.1,1.01-2.1,0-3.81-.73-5.14-2.18v7.83ZM134.34,230.98c1.27,0,2.35-.42,3.24-1.27.89-.85,1.33-2.06,1.33-3.63s-.44-2.75-1.33-3.6c-.89-.85-1.97-1.27-3.24-1.27-.79,0-1.53.18-2.22.54-.7.36-1.25.91-1.68,1.63-.42.73-.63,1.62-.63,2.69,0,1.33.38,2.48,1.13,3.45s1.89,1.45,3.4,1.45Z"/>
        <path class="cls-4" d="M150.88,234.4c-1.63,0-2.96-.43-3.99-1.3-1.03-.87-1.54-2.23-1.54-4.08v-17.26h4.11v15.3c0,.81.05,1.51.14,2.12.09.61.29,1.08.6,1.42.31.34.79.51,1.44.51.5,0,.96-.1,1.36-.3l.21,3.24c-.77.24-1.54.36-2.33.36Z"/>
        <path class="cls-4" d="M156.57,215.47c-.69,0-1.29-.21-1.81-.62-.52-.41-.79-1-.79-1.77,0-.68.25-1.25.74-1.71.49-.45,1.11-.68,1.86-.68.83,0,1.47.23,1.92.68s.68.99.68,1.62-.22,1.22-.67,1.72c-.44.5-1.09.76-1.94.76ZM158.62,234.19h-4.11v-16.18h4.11v16.18Z"/>
        <path class="cls-4" d="M167.18,234.4c-1.9,0-3.38-.45-4.44-1.35-1.07-.9-1.6-2.06-1.6-3.49s.54-2.62,1.62-3.49c1.08-.88,2.81-1.32,5.19-1.32h4.05c0-2.4-1.31-3.61-3.93-3.63-.79,0-1.62.13-2.49.39s-1.66.66-2.34,1.18l-1.51-2.9c.91-.67,1.96-1.16,3.16-1.5,1.2-.33,2.43-.5,3.7-.5,5.02,0,7.53,2.33,7.53,6.99v9.4h-3.87v-2.06c-.93,1.51-2.61,2.27-5.05,2.27ZM168.12,231.56c.79,0,1.54-.19,2.27-.57s1.26-1,1.6-1.84v-1.87h-3.66c-2.12,0-3.17.71-3.17,2.12,0,.77.28,1.32.83,1.66.55.34,1.26.51,2.13.51Z"/>
        <path class="cls-4" d="M195.75,234.19h-4.11v-8.68c0-1.45-.33-2.5-.98-3.16-.66-.65-1.55-.98-2.68-.98-1.21,0-2.23.37-3.05,1.12-.83.75-1.24,1.95-1.24,3.6v8.1h-4.11v-16.18h3.93v2.06c.67-.77,1.48-1.34,2.45-1.71.97-.37,2-.56,3.08-.56,1.29,0,2.44.25,3.45.76,1.01.5,1.8,1.28,2.39,2.33.58,1.05.88,2.39.88,4.02v9.28Z"/>
        <path class="cls-4" d="M207,234.4c-2.5,0-4.61-.76-6.32-2.28-1.71-1.52-2.57-3.53-2.57-6.03,0-2.32.81-4.28,2.43-5.88s3.77-2.4,6.46-2.4c1.49,0,2.86.31,4.1.92s2.21,1.61,2.92,2.98l-3.17,1.78c-.93-1.51-2.22-2.27-3.87-2.27-1.29,0-2.39.42-3.31,1.27-.92.85-1.38,2.05-1.38,3.6s.45,2.78,1.36,3.63c.91.85,2.02,1.27,3.33,1.27,1.65,0,2.94-.76,3.87-2.27l3.17,1.81c-.73,1.37-1.72,2.36-2.98,2.96s-2.61.91-4.04.91Z"/>
        <path class="cls-4" d="M223.48,234.4c-2.64,0-4.81-.77-6.52-2.3-1.7-1.53-2.56-3.54-2.56-6.02v-.21c0-1.45.36-2.79,1.07-4.02.72-1.23,1.71-2.21,2.99-2.95,1.28-.74,2.75-1.1,4.4-1.1,2.12,0,3.96.65,5.52,1.95,1.56,1.3,2.46,3.14,2.71,5.52.04.16.06.35.06.57,0,.58-.02,1.07-.06,1.45h-12.55c.24,1.21.81,2.14,1.71,2.78.9.65,2.01.97,3.34.97,1.73,0,3.15-.56,4.26-1.69l2.21,2.45c-1.53,1.73-3.73,2.6-6.59,2.6ZM227.29,224.78c-.18-1.09-.65-2-1.39-2.72-.75-.73-1.74-1.09-2.99-1.09-1.33,0-2.35.36-3.07,1.07-.72.72-1.15,1.63-1.32,2.74h8.77Z"/>
        <path class="cls-4" d="M72.51,266.1h-4.26v-17.63h-6.92v-3.54h18.14v3.54h-6.95v17.63Z"/>
        <path class="cls-4" d="M84.55,266.1h-4.11v-16.18h3.93v2.33c1.11-1.69,3-2.54,5.68-2.54v3.84l-.94-.06c-1.31,0-2.4.38-3.27,1.13-.87.76-1.3,1.99-1.3,3.7v7.77Z"/>
        <path class="cls-4" d="M96.82,266.31c-1.9,0-3.38-.45-4.44-1.35-1.07-.9-1.6-2.06-1.6-3.49s.54-2.62,1.62-3.49c1.08-.88,2.81-1.32,5.19-1.32h4.05c0-2.4-1.31-3.61-3.93-3.63-.79,0-1.62.13-2.49.39s-1.66.66-2.34,1.18l-1.51-2.9c.91-.67,1.96-1.16,3.16-1.5,1.2-.33,2.43-.5,3.7-.5,5.02,0,7.53,2.33,7.53,6.99v9.4h-3.87v-2.06c-.93,1.51-2.61,2.27-5.05,2.27ZM97.76,263.47c.79,0,1.54-.19,2.27-.57s1.26-1,1.6-1.84v-1.87h-3.66c-2.12,0-3.17.71-3.17,2.12,0,.77.28,1.32.83,1.66.55.34,1.26.51,2.13.51Z"/>
        <path class="cls-4" d="M118.47,266.31c-2.32,0-4.09-.77-5.32-2.3v2.09h-3.93v-22.44h4.11v8.19c1.25-1.43,2.96-2.15,5.14-2.15,1.47,0,2.82.33,4.05.98,1.23.66,2.21,1.6,2.95,2.84.74,1.24,1.1,2.73,1.1,4.46s-.36,3.19-1.09,4.43c-.73,1.24-1.7,2.2-2.92,2.87-1.22.68-2.59,1.01-4.1,1.01ZM117.84,262.9c1.27,0,2.35-.42,3.24-1.27.89-.85,1.33-2.06,1.33-3.63s-.44-2.75-1.33-3.6c-.89-.85-1.97-1.27-3.24-1.27s-2.27.41-3.17,1.22c-.91.82-1.36,2.03-1.36,3.64,0,1.33.38,2.48,1.13,3.45s1.89,1.45,3.4,1.45Z"/>
        <path class="cls-4" d="M133.5,266.31c-1.9,0-3.38-.45-4.44-1.35-1.07-.9-1.6-2.06-1.6-3.49s.54-2.62,1.62-3.49c1.08-.88,2.81-1.32,5.19-1.32h4.05c0-2.4-1.31-3.61-3.93-3.63-.79,0-1.62.13-2.49.39s-1.66.66-2.34,1.18l-1.51-2.9c.91-.67,1.96-1.16,3.16-1.5,1.2-.33,2.43-.5,3.7-.5,5.02,0,7.53,2.33,7.53,6.99v9.4h-3.87v-2.06c-.93,1.51-2.61,2.27-5.05,2.27ZM134.44,263.47c.79,0,1.54-.19,2.27-.57s1.26-1,1.6-1.84v-1.87h-3.66c-2.12,0-3.17.71-3.17,2.12,0,.77.28,1.32.83,1.66.55.34,1.26.51,2.13.51Z"/>
        <path class="cls-4" d="M151.43,266.31c-1.63,0-2.96-.43-3.99-1.3-1.03-.87-1.54-2.23-1.54-4.08v-17.26h4.11v15.3c0,.81.05,1.51.14,2.12.09.61.29,1.08.6,1.42.31.34.79.51,1.44.51.5,0,.96-.1,1.36-.3l.21,3.24c-.77.24-1.54.36-2.33.36Z"/>
        <path class="cls-4" d="M171.23,266.1h-4.11v-8.68c0-2.76-1.22-4.14-3.66-4.14-1.21,0-2.23.37-3.05,1.12-.83.75-1.24,1.95-1.24,3.6v8.1h-4.11v-22.44h4.11v8.13c1.29-1.39,3.07-2.09,5.35-2.09,1.29,0,2.44.26,3.45.77,1.01.51,1.8,1.3,2.39,2.34.58,1.05.88,2.38.88,3.99v9.28Z"/>
        <path class="cls-4" d="M176.77,247.38c-.69,0-1.29-.21-1.81-.62-.52-.41-.79-1-.79-1.77,0-.68.25-1.25.74-1.71.49-.45,1.11-.68,1.86-.68.83,0,1.47.23,1.92.68s.68.99.68,1.62-.22,1.22-.67,1.72c-.44.5-1.09.76-1.94.76ZM178.82,266.1h-4.11v-16.18h4.11v16.18Z"/>
        <path class="cls-4" d="M187.65,266.31c-2.8,0-5.11-.59-6.92-1.78l1.45-3.02c.79.52,1.69.92,2.71,1.19,1.02.27,2,.41,2.95.41,2.18,0,3.27-.58,3.27-1.72,0-.4-.19-.72-.56-.94-.37-.22-.86-.4-1.45-.53-.6-.13-1.25-.25-1.95-.35-1.09-.14-2.08-.36-2.98-.67-.9-.3-1.62-.77-2.16-1.41-.54-.63-.82-1.53-.82-2.68,0-1.45.61-2.67,1.83-3.64,1.22-.98,3.02-1.47,5.4-1.47,1.05,0,2.12.12,3.22.36s2.07.59,2.92,1.06l-1.48,2.99c-1.37-.81-2.92-1.21-4.66-1.21-1.13,0-1.96.16-2.48.48-.52.32-.79.74-.79,1.24,0,.42.19.76.57,1.01.38.25.88.45,1.5.6.61.15,1.27.29,1.98.41.97.14,1.89.33,2.78.57s1.62.68,2.21,1.32c.58.63.88,1.55.88,2.74,0,1.55-.68,2.78-2.03,3.67-1.35.9-3.14,1.35-5.38,1.35Z"/>
        <path class="cls-4" d="M203.34,266.31c-1.71,0-3.1-.44-4.16-1.31-1.06-.87-1.59-2.33-1.59-4.36v-7.52h-2.6v-3.21h2.6v-3.57h4.11v3.57h4.23v3.21h-4.23v7.5c0,1.57.73,2.37,2.18,2.39.79,0,1.46-.22,2.03-.67l1.15,2.9c-.93.71-2.17,1.06-3.72,1.06Z"/>
        <path class="cls-4" d="M213.78,266.31c-1.9,0-3.38-.45-4.44-1.35-1.07-.9-1.6-2.06-1.6-3.49s.54-2.62,1.62-3.49c1.08-.88,2.81-1.32,5.19-1.32h4.05c0-2.4-1.31-3.61-3.93-3.63-.79,0-1.62.13-2.49.39s-1.66.66-2.34,1.18l-1.51-2.9c.91-.67,1.96-1.16,3.16-1.5,1.2-.33,2.43-.5,3.7-.5,5.02,0,7.53,2.33,7.53,6.99v9.4h-3.87v-2.06c-.93,1.51-2.61,2.27-5.05,2.27ZM214.71,263.47c.79,0,1.54-.19,2.27-.57s1.26-1,1.6-1.84v-1.87h-3.66c-2.12,0-3.17.71-3.17,2.12,0,.77.28,1.32.83,1.66.55.34,1.26.51,2.13.51Z"/>
      </g>
      <rect class="cls-2" x="8" y="143.34" width="270.17" height="164.48"/>
      <path class="cls-3" d="M54.97,0h175.98c22.41,0,40.61,18.2,40.61,40.61v137.96H14.36V40.61C14.36,18.2,32.56,0,54.97,0Z"/>
      <g>
        <path class="cls-4" d="M187.85,99.13c0,28.06-19.64,42.08-42.98,50.22-1.22.41-2.55.39-3.76-.06-23.4-8.08-43.04-22.11-43.04-50.16v-39.28c0-3.1,2.51-5.61,5.61-5.61,11.22,0,25.25-6.73,35.01-15.26,2.46-2.1,6.07-2.1,8.53,0,9.82,8.59,23.79,15.26,35.01,15.26,3.1,0,5.61,2.51,5.61,5.61v39.28Z"/>
        <path class="cls-1" d="M126.13,93.52l11.22,11.22,22.44-22.44"/>
      </g>
    </g>
  </g>
</svg>