<svg width="137" height="168" viewBox="0 0 137 168" fill="none" xmlns="http://www.w3.org/2000/svg">
<rect x="0.5" y="0.5" width="136" height="167" rx="7.5" fill="url(#paint0_linear_1_16)" stroke="url(#paint1_linear_1_16)"/>
<path fill-rule="evenodd" clip-rule="evenodd" d="M79.1818 60.25C79.7882 60.25 80.3309 60.6249 80.5437 61.1909L84.9073 72.7909C85.1345 73.3947 84.9342 74.0756 84.4159 74.4616C82.9006 75.5903 81.0683 76.2 79.1818 76.2C77.2952 76.2 75.4629 75.5903 73.9476 74.4616C73.4294 74.0756 73.2291 73.3947 73.4563 72.7909L77.8199 61.1909C78.0327 60.6249 78.5755 60.25 79.1818 60.25ZM76.5988 72.6961C77.4003 73.0921 78.2826 73.3 79.1818 73.3C80.081 73.3 80.9633 73.0921 81.7647 72.6961L79.1818 65.8296L76.5988 72.6961Z" fill="#EBC894"/>
<path fill-rule="evenodd" clip-rule="evenodd" d="M58.8183 60.25C59.4246 60.25 59.9673 60.6249 60.1802 61.1909L64.5438 72.7909C64.771 73.3947 64.5707 74.0756 64.0525 74.4616C62.5371 75.5903 60.7048 76.2 58.8183 76.2C56.9317 76.2 55.0994 75.5903 53.5841 74.4616C53.0658 74.0756 52.8656 73.3947 53.0927 72.7909L57.4563 61.1909C57.6692 60.6249 58.2119 60.25 58.8183 60.25ZM56.2353 72.6961C57.0368 73.0921 57.9191 73.3 58.8183 73.3C59.7175 73.3 60.5997 73.0921 61.4012 72.6961L58.8183 65.8296L56.2353 72.6961Z" fill="#EBC894"/>
<path fill-rule="evenodd" clip-rule="evenodd" d="M60.2728 80.55C60.2728 79.7492 60.924 79.1 61.7273 79.1H76.2727C77.076 79.1 77.7272 79.7492 77.7272 80.55C77.7272 81.3508 77.076 82 76.2727 82H61.7273C60.924 82 60.2728 81.3508 60.2728 80.55Z" fill="#EBC894"/>
<path fill-rule="evenodd" clip-rule="evenodd" d="M69 53C69.8034 53 70.4546 53.6492 70.4546 54.45V80.55C70.4546 81.3508 69.8034 82 69 82C68.1967 82 67.5455 81.3508 67.5455 80.55V54.45C67.5455 53.6492 68.1967 53 69 53Z" fill="#EBC894"/>
<path fill-rule="evenodd" clip-rule="evenodd" d="M68.3495 56.0531C68.759 55.849 69.241 55.849 69.6505 56.0531C72.4772 57.462 76.6023 58.8 79.1818 58.8H82.0908C82.8942 58.8 83.5454 59.4492 83.5454 60.25C83.5454 61.0508 82.8942 61.7 82.0908 61.7H79.1818C76.1697 61.7 71.9782 60.3489 69 58.9604C66.0218 60.3489 61.8303 61.7 58.8182 61.7H55.9092C55.1059 61.7 54.4546 61.0508 54.4546 60.25C54.4546 59.4492 55.1059 58.8 55.9092 58.8H58.8182C61.3978 58.8 65.5228 57.462 68.3495 56.0531Z" fill="#EBC894"/>
<path d="M36.8775 102.12C35.6055 102.12 34.6295 101.744 33.9495 100.992C33.2695 100.232 32.9295 99.168 32.9295 97.8C32.9295 96.904 33.0855 96.132 33.3975 95.484C33.7175 94.836 34.1775 94.34 34.7775 93.996C35.3855 93.652 36.1135 93.48 36.9615 93.48C37.8495 93.48 38.6255 93.72 39.2895 94.2C39.2975 94.2 39.3135 94.208 39.3375 94.224C39.3615 94.24 39.3815 94.248 39.3975 94.248C39.4695 94.248 39.5055 94.188 39.5055 94.068V93.54H39.9375V95.844H39.5895C39.5255 95.252 39.2695 94.796 38.8215 94.476C38.3735 94.148 37.8295 93.984 37.1895 93.984C36.2055 93.984 35.4455 94.328 34.9095 95.016C34.3815 95.704 34.1175 96.632 34.1175 97.8C34.1175 98.992 34.3615 99.928 34.8495 100.608C35.3455 101.288 36.0815 101.628 37.0575 101.628C37.6175 101.628 38.1375 101.492 38.6175 101.22C39.1055 100.94 39.4455 100.516 39.6375 99.948H40.1055C39.9615 100.62 39.6015 101.152 39.0255 101.544C38.4495 101.928 37.7335 102.12 36.8775 102.12ZM43.6202 102.12C42.6523 102.12 41.9003 101.864 41.3642 101.352C40.8362 100.84 40.5722 100.116 40.5722 99.18C40.5722 98.244 40.8402 97.52 41.3762 97.008C41.9122 96.496 42.6602 96.24 43.6202 96.24C44.5803 96.24 45.3243 96.496 45.8523 97.008C46.3883 97.52 46.6563 98.244 46.6563 99.18C46.6563 100.116 46.3883 100.84 45.8523 101.352C45.3243 101.864 44.5803 102.12 43.6202 102.12ZM43.6202 101.664C44.2122 101.664 44.6803 101.448 45.0243 101.016C45.3683 100.584 45.5403 99.972 45.5403 99.18C45.5403 98.396 45.3683 97.792 45.0243 97.368C44.6803 96.936 44.2122 96.72 43.6202 96.72C43.0203 96.72 42.5483 96.936 42.2042 97.368C41.8602 97.792 41.6883 98.396 41.6883 99.18C41.6883 99.972 41.8602 100.584 42.2042 101.016C42.5483 101.448 43.0203 101.664 43.6202 101.664ZM53.958 101.7V102H51.162V101.7H51.354C51.538 101.7 51.686 101.668 51.798 101.604C51.91 101.54 51.966 101.444 51.966 101.316V98.016C51.966 97.592 51.858 97.272 51.642 97.056C51.426 96.84 51.118 96.732 50.718 96.732C50.438 96.732 50.166 96.804 49.902 96.948C49.646 97.084 49.434 97.292 49.266 97.572C49.098 97.852 49.014 98.188 49.014 98.58V101.316C49.014 101.444 49.07 101.54 49.182 101.604C49.302 101.668 49.454 101.7 49.638 101.7H49.818V102H47.022V101.7H47.25C47.442 101.7 47.594 101.668 47.706 101.604C47.826 101.54 47.886 101.444 47.886 101.316V97.284C47.886 97.116 47.802 97.032 47.634 97.032C47.562 97.032 47.446 97.064 47.286 97.128L47.202 96.864L48.714 96.324H49.014V97.26C49.19 96.972 49.458 96.732 49.818 96.54C50.186 96.34 50.594 96.24 51.042 96.24C51.706 96.24 52.214 96.388 52.566 96.684C52.918 96.98 53.094 97.376 53.094 97.872V101.316C53.094 101.444 53.154 101.54 53.274 101.604C53.394 101.668 53.55 101.7 53.742 101.7H53.958ZM58.5305 100.908C58.4905 101.324 58.3225 101.632 58.0265 101.832C57.7385 102.024 57.3825 102.12 56.9585 102.12C56.3585 102.12 55.9025 101.996 55.5905 101.748C55.2785 101.5 55.1225 101.088 55.1225 100.512V96.828H54.1865V96.36H55.1225V95.328L55.9625 94.764H56.2505V96.36H57.9425V96.828H56.2505V100.488C56.2505 100.896 56.3225 101.2 56.4665 101.4C56.6185 101.592 56.8505 101.688 57.1625 101.688C57.4105 101.688 57.6225 101.628 57.7985 101.508C57.9825 101.38 58.0905 101.18 58.1225 100.908H58.5305ZM60.0121 98.904C60.0041 98.968 60.0001 99.064 60.0001 99.192C60.0001 99.944 60.1761 100.548 60.5281 101.004C60.8881 101.46 61.3601 101.688 61.9441 101.688C62.4721 101.688 62.9081 101.552 63.2521 101.28C63.5961 101 63.8201 100.572 63.9241 99.996H64.2721C64.2081 100.636 63.9681 101.152 63.5521 101.544C63.1361 101.928 62.5521 102.12 61.8001 102.12C60.8721 102.12 60.1481 101.868 59.6281 101.364C59.1161 100.852 58.8601 100.124 58.8601 99.18C58.8601 98.268 59.1161 97.552 59.6281 97.032C60.1481 96.504 60.8601 96.24 61.7641 96.24C62.5961 96.24 63.2281 96.464 63.6601 96.912C64.1001 97.352 64.3201 97.924 64.3201 98.628V98.904H60.0121ZM61.8001 96.696C61.3281 96.696 60.9441 96.852 60.6481 97.164C60.3521 97.476 60.1561 97.9 60.0601 98.436H63.3241C63.3081 97.988 63.1761 97.588 62.9281 97.236C62.6881 96.876 62.3121 96.696 61.8001 96.696ZM71.6481 101.7V102H68.8521V101.7H69.0441C69.2281 101.7 69.3761 101.668 69.4881 101.604C69.6001 101.54 69.6561 101.444 69.6561 101.316V98.016C69.6561 97.592 69.5481 97.272 69.3321 97.056C69.1161 96.84 68.8081 96.732 68.4081 96.732C68.1281 96.732 67.8561 96.804 67.5921 96.948C67.3361 97.084 67.1241 97.292 66.9561 97.572C66.7881 97.852 66.7041 98.188 66.7041 98.58V101.316C66.7041 101.444 66.7601 101.54 66.8721 101.604C66.9921 101.668 67.1441 101.7 67.3281 101.7H67.5081V102H64.7121V101.7H64.9401C65.1321 101.7 65.2841 101.668 65.3961 101.604C65.5161 101.54 65.5761 101.444 65.5761 101.316V97.284C65.5761 97.116 65.4921 97.032 65.3241 97.032C65.2521 97.032 65.1361 97.064 64.9761 97.128L64.8921 96.864L66.4041 96.324H66.7041V97.26C66.8801 96.972 67.1481 96.732 67.5081 96.54C67.8761 96.34 68.2841 96.24 68.7321 96.24C69.3961 96.24 69.9041 96.388 70.2561 96.684C70.6081 96.98 70.7841 97.376 70.7841 97.872V101.316C70.7841 101.444 70.8441 101.54 70.9641 101.604C71.0841 101.668 71.2401 101.7 71.4321 101.7H71.6481ZM74.9247 102.12C74.0047 102.12 73.2887 101.868 72.7767 101.364C72.2727 100.852 72.0207 100.124 72.0207 99.18C72.0207 98.268 72.2767 97.552 72.7887 97.032C73.3087 96.504 74.0287 96.24 74.9487 96.24C75.3327 96.24 75.7007 96.296 76.0527 96.408C76.4047 96.52 76.6927 96.712 76.9167 96.984L77.0367 96.24H77.3367V98.232H77.0487C76.9687 97.72 76.7687 97.336 76.4487 97.08C76.1367 96.824 75.7407 96.696 75.2607 96.696C74.5887 96.696 74.0687 96.928 73.7007 97.392C73.3407 97.848 73.1607 98.448 73.1607 99.192C73.1607 99.944 73.3327 100.548 73.6767 101.004C74.0287 101.46 74.4927 101.688 75.0687 101.688C75.5967 101.688 76.0287 101.552 76.3647 101.28C76.7007 101 76.9167 100.572 77.0127 99.996H77.3727C77.3087 100.636 77.0727 101.152 76.6647 101.544C76.2567 101.928 75.6767 102.12 74.9247 102.12ZM79.2062 95.268C78.9982 95.268 78.8302 95.208 78.7022 95.088C78.5822 94.96 78.5222 94.8 78.5222 94.608C78.5222 94.408 78.5822 94.248 78.7022 94.128C78.8302 94.008 78.9982 93.948 79.2062 93.948C79.4062 93.948 79.5662 94.008 79.6862 94.128C79.8142 94.248 79.8782 94.408 79.8782 94.608C79.8782 94.8 79.8142 94.96 79.6862 95.088C79.5662 95.208 79.4062 95.268 79.2062 95.268ZM77.8742 101.7H78.1022C78.2942 101.7 78.4462 101.668 78.5582 101.604C78.6782 101.54 78.7382 101.444 78.7382 101.316V97.272C78.7382 97.096 78.6542 97.008 78.4862 97.008C78.4462 97.008 78.3862 97.024 78.3062 97.056C78.2262 97.08 78.1702 97.096 78.1382 97.104L78.0542 96.828L79.5662 96.3H79.8662V101.316C79.8662 101.444 79.9222 101.54 80.0342 101.604C80.1542 101.668 80.3102 101.7 80.5022 101.7H80.7302V102H77.8742V101.7ZM84.2098 102.12C83.2418 102.12 82.4898 101.864 81.9538 101.352C81.4258 100.84 81.1618 100.116 81.1618 99.18C81.1618 98.244 81.4298 97.52 81.9658 97.008C82.5018 96.496 83.2498 96.24 84.2098 96.24C85.1698 96.24 85.9138 96.496 86.4418 97.008C86.9778 97.52 87.2458 98.244 87.2458 99.18C87.2458 100.116 86.9778 100.84 86.4418 101.352C85.9138 101.864 85.1698 102.12 84.2098 102.12ZM84.2098 101.664C84.8018 101.664 85.2698 101.448 85.6138 101.016C85.9578 100.584 86.1298 99.972 86.1298 99.18C86.1298 98.396 85.9578 97.792 85.6138 97.368C85.2698 96.936 84.8018 96.72 84.2098 96.72C83.6098 96.72 83.1378 96.936 82.7938 97.368C82.4498 97.792 82.2778 98.396 82.2778 99.18C82.2778 99.972 82.4498 100.584 82.7938 101.016C83.1378 101.448 83.6098 101.664 84.2098 101.664ZM90.1795 102.12C89.2755 102.12 88.6355 101.868 88.2595 101.364L88.1275 102.096H87.8275V100.308H88.1275C88.2155 100.724 88.4115 101.056 88.7155 101.304C89.0195 101.544 89.3995 101.664 89.8555 101.664C90.3195 101.664 90.6755 101.58 90.9235 101.412C91.1795 101.244 91.3075 101 91.3075 100.68C91.3075 100.432 91.1955 100.24 90.9715 100.104C90.7475 99.96 90.4035 99.808 89.9395 99.648C89.5075 99.488 89.1555 99.34 88.8835 99.204C88.6195 99.06 88.3915 98.868 88.1995 98.628C88.0075 98.38 87.9115 98.068 87.9115 97.692C87.9115 97.228 88.0915 96.872 88.4515 96.624C88.8115 96.368 89.3155 96.24 89.9635 96.24C90.3235 96.24 90.6755 96.3 91.0195 96.42C91.3635 96.54 91.6275 96.716 91.8115 96.948L91.9435 96.24H92.2435V97.98H91.9435C91.8475 97.604 91.6555 97.3 91.3675 97.068C91.0875 96.836 90.7275 96.72 90.2875 96.72C89.9035 96.72 89.5955 96.796 89.3635 96.948C89.1315 97.1 89.0155 97.308 89.0155 97.572C89.0155 97.86 89.1355 98.084 89.3755 98.244C89.6235 98.404 89.9955 98.568 90.4915 98.736C90.9155 98.888 91.2555 99.028 91.5115 99.156C91.7675 99.276 91.9835 99.452 92.1595 99.684C92.3435 99.908 92.4355 100.196 92.4355 100.548C92.4355 101.076 92.2235 101.472 91.7995 101.736C91.3835 101.992 90.8435 102.12 90.1795 102.12ZM95.9642 102.12C94.9962 102.12 94.2442 101.864 93.7082 101.352C93.1802 100.84 92.9162 100.116 92.9162 99.18C92.9162 98.244 93.1842 97.52 93.7202 97.008C94.2562 96.496 95.0042 96.24 95.9642 96.24C96.9242 96.24 97.6682 96.496 98.1962 97.008C98.7322 97.52 99.0002 98.244 99.0002 99.18C99.0002 100.116 98.7322 100.84 98.1962 101.352C97.6682 101.864 96.9242 102.12 95.9642 102.12ZM95.9642 101.664C96.5562 101.664 97.0242 101.448 97.3682 101.016C97.7122 100.584 97.8842 99.972 97.8842 99.18C97.8842 98.396 97.7122 97.792 97.3682 97.368C97.0242 96.936 96.5562 96.72 95.9642 96.72C95.3642 96.72 94.8922 96.936 94.5482 97.368C94.2042 97.792 94.0322 98.396 94.0322 99.18C94.0322 99.972 94.2042 100.584 94.5482 101.016C94.8922 101.448 95.3642 101.664 95.9642 101.664ZM101.934 102.12C101.03 102.12 100.39 101.868 100.014 101.364L99.8819 102.096H99.5819V100.308H99.8819C99.9699 100.724 100.166 101.056 100.47 101.304C100.774 101.544 101.154 101.664 101.61 101.664C102.074 101.664 102.43 101.58 102.678 101.412C102.934 101.244 103.062 101 103.062 100.68C103.062 100.432 102.95 100.24 102.726 100.104C102.502 99.96 102.158 99.808 101.694 99.648C101.262 99.488 100.91 99.34 100.638 99.204C100.374 99.06 100.146 98.868 99.9539 98.628C99.7619 98.38 99.6659 98.068 99.6659 97.692C99.6659 97.228 99.8459 96.872 100.206 96.624C100.566 96.368 101.07 96.24 101.718 96.24C102.078 96.24 102.43 96.3 102.774 96.42C103.118 96.54 103.382 96.716 103.566 96.948L103.698 96.24H103.998V97.98H103.698C103.602 97.604 103.41 97.3 103.122 97.068C102.842 96.836 102.482 96.72 102.042 96.72C101.658 96.72 101.35 96.796 101.118 96.948C100.886 97.1 100.77 97.308 100.77 97.572C100.77 97.86 100.89 98.084 101.13 98.244C101.378 98.404 101.75 98.568 102.246 98.736C102.67 98.888 103.01 99.028 103.266 99.156C103.522 99.276 103.738 99.452 103.914 99.684C104.098 99.908 104.19 100.196 104.19 100.548C104.19 101.076 103.978 101.472 103.554 101.736C103.138 101.992 102.598 102.12 101.934 102.12ZM40.5962 109.904C40.5882 109.968 40.5842 110.064 40.5842 110.192C40.5842 110.944 40.7602 111.548 41.1122 112.004C41.4722 112.46 41.9442 112.688 42.5282 112.688C43.0562 112.688 43.4922 112.552 43.8362 112.28C44.1802 112 44.4042 111.572 44.5082 110.996H44.8562C44.7922 111.636 44.5522 112.152 44.1362 112.544C43.7202 112.928 43.1362 113.12 42.3842 113.12C41.4562 113.12 40.7322 112.868 40.2122 112.364C39.7002 111.852 39.4442 111.124 39.4442 110.18C39.4442 109.268 39.7002 108.552 40.2122 108.032C40.7322 107.504 41.4442 107.24 42.3482 107.24C43.1802 107.24 43.8122 107.464 44.2442 107.912C44.6842 108.352 44.9042 108.924 44.9042 109.628V109.904H40.5962ZM42.3842 107.696C41.9122 107.696 41.5282 107.852 41.2322 108.164C40.9362 108.476 40.7402 108.9 40.6442 109.436H43.9082C43.8922 108.988 43.7602 108.588 43.5122 108.236C43.2722 107.876 42.8962 107.696 42.3842 107.696ZM48.0986 113.12C47.1946 113.12 46.5546 112.868 46.1786 112.364L46.0466 113.096H45.7466V111.308H46.0466C46.1346 111.724 46.3306 112.056 46.6346 112.304C46.9386 112.544 47.3186 112.664 47.7746 112.664C48.2386 112.664 48.5946 112.58 48.8426 112.412C49.0986 112.244 49.2266 112 49.2266 111.68C49.2266 111.432 49.1146 111.24 48.8906 111.104C48.6666 110.96 48.3226 110.808 47.8586 110.648C47.4266 110.488 47.0746 110.34 46.8026 110.204C46.5386 110.06 46.3106 109.868 46.1186 109.628C45.9266 109.38 45.8306 109.068 45.8306 108.692C45.8306 108.228 46.0106 107.872 46.3706 107.624C46.7306 107.368 47.2346 107.24 47.8826 107.24C48.2426 107.24 48.5946 107.3 48.9386 107.42C49.2826 107.54 49.5466 107.716 49.7306 107.948L49.8626 107.24H50.1626V108.98H49.8626C49.7666 108.604 49.5746 108.3 49.2866 108.068C49.0066 107.836 48.6466 107.72 48.2066 107.72C47.8226 107.72 47.5146 107.796 47.2826 107.948C47.0506 108.1 46.9346 108.308 46.9346 108.572C46.9346 108.86 47.0546 109.084 47.2946 109.244C47.5426 109.404 47.9146 109.568 48.4106 109.736C48.8346 109.888 49.1746 110.028 49.4306 110.156C49.6866 110.276 49.9026 110.452 50.0786 110.684C50.2626 110.908 50.3546 111.196 50.3546 111.548C50.3546 112.076 50.1426 112.472 49.7186 112.736C49.3026 112.992 48.7626 113.12 48.0986 113.12ZM55.0353 111.908C54.9953 112.324 54.8273 112.632 54.5313 112.832C54.2433 113.024 53.8873 113.12 53.4633 113.12C52.8633 113.12 52.4073 112.996 52.0953 112.748C51.7833 112.5 51.6273 112.088 51.6273 111.512V107.828H50.6913V107.36H51.6273V106.328L52.4673 105.764H52.7553V107.36H54.4473V107.828H52.7553V111.488C52.7553 111.896 52.8273 112.2 52.9713 112.4C53.1233 112.592 53.3553 112.688 53.6673 112.688C53.9153 112.688 54.1273 112.628 54.3033 112.508C54.4873 112.38 54.5953 112.18 54.6273 111.908H55.0353ZM58.9528 107.24C59.1848 107.24 59.3808 107.284 59.5408 107.372C59.7088 107.452 59.7928 107.58 59.7928 107.756C59.7928 107.908 59.7528 108.024 59.6728 108.104C59.6008 108.184 59.4968 108.224 59.3608 108.224C59.2728 108.224 59.2008 108.208 59.1448 108.176C59.0968 108.144 59.0528 108.1 59.0128 108.044C58.9568 107.988 58.9048 107.948 58.8568 107.924C58.8088 107.892 58.7408 107.876 58.6528 107.876C58.4448 107.876 58.2448 107.952 58.0528 108.104C57.8688 108.256 57.7168 108.476 57.5968 108.764C57.4768 109.052 57.4088 109.384 57.3928 109.76V112.316C57.3928 112.444 57.4528 112.54 57.5728 112.604C57.6928 112.668 57.8488 112.7 58.0408 112.7H58.2448V113H55.4008V112.7H55.6288C55.8208 112.7 55.9728 112.668 56.0848 112.604C56.2048 112.54 56.2648 112.444 56.2648 112.316V108.284C56.2648 108.116 56.1848 108.032 56.0248 108.032C55.9448 108.032 55.8248 108.064 55.6648 108.128L55.5928 107.864L57.1288 107.324H57.3928V108.428C57.5048 108.084 57.7048 107.8 57.9928 107.576C58.2808 107.352 58.6008 107.24 58.9528 107.24ZM61.5484 113.12C61.0604 113.12 60.6764 113.008 60.3964 112.784C60.1244 112.552 59.9884 112.24 59.9884 111.848C59.9884 111.264 60.2924 110.784 60.9004 110.408C61.5164 110.032 62.4604 109.756 63.7324 109.58V108.956C63.7324 108.548 63.6044 108.24 63.3484 108.032C63.0924 107.824 62.7524 107.72 62.3284 107.72C62.0244 107.72 61.7444 107.78 61.4884 107.9C61.2324 108.02 61.1044 108.148 61.1044 108.284C61.1044 108.332 61.1124 108.392 61.1284 108.464C61.1444 108.536 61.1524 108.592 61.1524 108.632C61.1524 108.752 61.1164 108.856 61.0444 108.944C60.9724 109.032 60.8564 109.076 60.6964 109.076C60.5604 109.076 60.4444 109.028 60.3484 108.932C60.2604 108.828 60.2164 108.684 60.2164 108.5C60.2164 108.1 60.4444 107.792 60.9004 107.576C61.3564 107.352 61.9124 107.24 62.5684 107.24C63.3044 107.24 63.8724 107.404 64.2724 107.732C64.6724 108.052 64.8724 108.492 64.8724 109.052V112.304C64.8724 112.56 64.9604 112.688 65.1364 112.688C65.2484 112.688 65.3924 112.656 65.5684 112.592V112.796C65.4484 112.9 65.2964 112.98 65.1124 113.036C64.9284 113.092 64.7404 113.12 64.5484 113.12C64.3324 113.12 64.1444 113.076 63.9844 112.988C63.8244 112.9 63.7444 112.756 63.7444 112.556V112.196C63.4244 112.548 63.0684 112.792 62.6764 112.928C62.2924 113.056 61.9164 113.12 61.5484 113.12ZM62.1004 112.64C62.3964 112.64 62.7044 112.544 63.0244 112.352C63.3524 112.16 63.5884 111.94 63.7324 111.692V109.976C62.8844 110.144 62.2324 110.388 61.7764 110.708C61.3284 111.02 61.1044 111.372 61.1044 111.764C61.1044 112.052 61.1924 112.272 61.3684 112.424C61.5444 112.568 61.7884 112.64 62.1004 112.64ZM70.0067 111.908C69.9667 112.324 69.7987 112.632 69.5027 112.832C69.2147 113.024 68.8587 113.12 68.4347 113.12C67.8347 113.12 67.3787 112.996 67.0667 112.748C66.7547 112.5 66.5987 112.088 66.5987 111.512V107.828H65.6627V107.36H66.5987V106.328L67.4387 105.764H67.7267V107.36H69.4187V107.828H67.7267V111.488C67.7267 111.896 67.7987 112.2 67.9427 112.4C68.0947 112.592 68.3267 112.688 68.6387 112.688C68.8867 112.688 69.0987 112.628 69.2747 112.508C69.4587 112.38 69.5667 112.18 69.5987 111.908H70.0067ZM72.3882 106.436L72.1842 106.136L73.5642 104.852C73.5722 104.844 73.6242 104.796 73.7202 104.708C73.8162 104.62 73.9402 104.576 74.0922 104.576C74.2202 104.576 74.3202 104.612 74.3922 104.684C74.4642 104.756 74.5002 104.84 74.5002 104.936C74.5002 105.12 74.3642 105.288 74.0922 105.44L72.3882 106.436ZM71.4882 109.904C71.4802 109.968 71.4762 110.064 71.4762 110.192C71.4762 110.944 71.6522 111.548 72.0042 112.004C72.3642 112.46 72.8362 112.688 73.4202 112.688C73.9482 112.688 74.3842 112.552 74.7282 112.28C75.0722 112 75.2962 111.572 75.4002 110.996H75.7482C75.6842 111.636 75.4442 112.152 75.0282 112.544C74.6122 112.928 74.0282 113.12 73.2762 113.12C72.3482 113.12 71.6242 112.868 71.1042 112.364C70.5922 111.852 70.3362 111.124 70.3362 110.18C70.3362 109.268 70.5922 108.552 71.1042 108.032C71.6242 107.504 72.3362 107.24 73.2402 107.24C74.0722 107.24 74.7042 107.464 75.1362 107.912C75.5762 108.352 75.7962 108.924 75.7962 109.628V109.904H71.4882ZM73.2762 107.696C72.8042 107.696 72.4202 107.852 72.1242 108.164C71.8282 108.476 71.6322 108.9 71.5362 109.436H74.8002C74.7842 108.988 74.6522 108.588 74.4042 108.236C74.1642 107.876 73.7882 107.696 73.2762 107.696ZM81.7387 107.24C81.9627 107.24 82.1427 107.288 82.2787 107.384C82.4227 107.48 82.4947 107.596 82.4947 107.732C82.4947 107.86 82.4587 107.96 82.3867 108.032C82.3227 108.104 82.2267 108.14 82.0987 108.14C82.0107 108.14 81.9427 108.124 81.8947 108.092C81.8547 108.06 81.8147 108.012 81.7747 107.948C81.7267 107.876 81.6747 107.824 81.6187 107.792C81.5707 107.752 81.4947 107.732 81.3907 107.732C81.2707 107.732 81.1147 107.784 80.9227 107.888C81.2507 108.2 81.4147 108.616 81.4147 109.136C81.4147 109.736 81.1987 110.2 80.7667 110.528C80.3347 110.856 79.7347 111.02 78.9667 111.02C78.4707 111.02 78.0427 110.948 77.6827 110.804C77.4427 110.98 77.3227 111.164 77.3227 111.356C77.3227 111.508 77.3947 111.632 77.5387 111.728C77.6827 111.824 77.8867 111.872 78.1507 111.872H80.0827C80.5707 111.872 80.9747 111.98 81.2947 112.196C81.6227 112.404 81.7867 112.72 81.7867 113.144C81.7867 113.704 81.5307 114.132 81.0187 114.428C80.5067 114.724 79.8067 114.872 78.9187 114.872C78.1667 114.872 77.5707 114.748 77.1307 114.5C76.6987 114.26 76.4827 113.912 76.4827 113.456C76.4827 112.984 76.7827 112.636 77.3827 112.412C77.1187 112.34 76.9227 112.228 76.7947 112.076C76.6747 111.924 76.6147 111.756 76.6147 111.572C76.6147 111.228 76.8427 110.908 77.2987 110.612C77.0587 110.444 76.8707 110.236 76.7347 109.988C76.6067 109.74 76.5427 109.456 76.5427 109.136C76.5427 108.544 76.7587 108.08 77.1907 107.744C77.6227 107.408 78.2147 107.24 78.9667 107.24C79.6627 107.24 80.2187 107.38 80.6347 107.66C80.9627 107.38 81.3307 107.24 81.7387 107.24ZM78.9667 110.576C79.4067 110.576 79.7387 110.444 79.9627 110.18C80.1867 109.908 80.2987 109.56 80.2987 109.136C80.2987 108.712 80.1867 108.368 79.9627 108.104C79.7387 107.832 79.4067 107.696 78.9667 107.696C78.5347 107.696 78.2067 107.832 77.9827 108.104C77.7667 108.368 77.6587 108.712 77.6587 109.136C77.6587 109.56 77.7667 109.908 77.9827 110.18C78.2067 110.444 78.5347 110.576 78.9667 110.576ZM77.9467 112.592C77.7147 112.68 77.5467 112.812 77.4427 112.988C77.3467 113.156 77.2987 113.316 77.2987 113.468C77.2987 113.788 77.4507 114.028 77.7547 114.188C78.0587 114.356 78.4627 114.44 78.9667 114.44C79.5347 114.44 79.9827 114.344 80.3107 114.152C80.6387 113.96 80.8027 113.688 80.8027 113.336C80.8027 113.08 80.7147 112.892 80.5387 112.772C80.3707 112.652 80.0867 112.592 79.6867 112.592H77.9467ZM83.645 106.268C83.437 106.268 83.269 106.208 83.141 106.088C83.021 105.96 82.961 105.8 82.961 105.608C82.961 105.408 83.021 105.248 83.141 105.128C83.269 105.008 83.437 104.948 83.645 104.948C83.845 104.948 84.005 105.008 84.125 105.128C84.253 105.248 84.317 105.408 84.317 105.608C84.317 105.8 84.253 105.96 84.125 106.088C84.005 106.208 83.845 106.268 83.645 106.268ZM82.313 112.7H82.541C82.733 112.7 82.885 112.668 82.997 112.604C83.117 112.54 83.177 112.444 83.177 112.316V108.272C83.177 108.096 83.093 108.008 82.925 108.008C82.885 108.008 82.825 108.024 82.745 108.056C82.665 108.08 82.609 108.096 82.577 108.104L82.493 107.828L84.005 107.3H84.305V112.316C84.305 112.444 84.361 112.54 84.473 112.604C84.593 112.668 84.749 112.7 84.941 112.7H85.169V113H82.313V112.7ZM88.5046 113.12C87.5846 113.12 86.8686 112.868 86.3566 112.364C85.8526 111.852 85.6006 111.124 85.6006 110.18C85.6006 109.268 85.8566 108.552 86.3686 108.032C86.8886 107.504 87.6086 107.24 88.5286 107.24C88.9126 107.24 89.2806 107.296 89.6326 107.408C89.9846 107.52 90.2726 107.712 90.4966 107.984L90.6166 107.24H90.9166V109.232H90.6286C90.5486 108.72 90.3486 108.336 90.0286 108.08C89.7166 107.824 89.3206 107.696 88.8406 107.696C88.1686 107.696 87.6486 107.928 87.2806 108.392C86.9206 108.848 86.7406 109.448 86.7406 110.192C86.7406 110.944 86.9126 111.548 87.2566 112.004C87.6086 112.46 88.0726 112.688 88.6486 112.688C89.1766 112.688 89.6086 112.552 89.9446 112.28C90.2806 112 90.4966 111.572 90.5926 110.996H90.9526C90.8886 111.636 90.6526 112.152 90.2446 112.544C89.8366 112.928 89.2566 113.12 88.5046 113.12ZM94.5141 113.12C93.5461 113.12 92.7941 112.864 92.2581 112.352C91.7301 111.84 91.4661 111.116 91.4661 110.18C91.4661 109.244 91.7341 108.52 92.2701 108.008C92.8061 107.496 93.5541 107.24 94.5141 107.24C95.4741 107.24 96.2181 107.496 96.7461 108.008C97.2821 108.52 97.5501 109.244 97.5501 110.18C97.5501 111.116 97.2821 111.84 96.7461 112.352C96.2181 112.864 95.4741 113.12 94.5141 113.12ZM94.5141 112.664C95.1061 112.664 95.5741 112.448 95.9181 112.016C96.2621 111.584 96.4341 110.972 96.4341 110.18C96.4341 109.396 96.2621 108.792 95.9181 108.368C95.5741 107.936 95.1061 107.72 94.5141 107.72C93.9141 107.72 93.4421 107.936 93.0981 108.368C92.7541 108.792 92.5821 109.396 92.5821 110.18C92.5821 110.972 92.7541 111.584 93.0981 112.016C93.4421 112.448 93.9141 112.664 94.5141 112.664Z" fill="#FFF2E0"/>
<defs>
<linearGradient id="paint0_linear_1_16" x1="3.42386e-07" y1="-8.5" x2="156.5" y2="208" gradientUnits="userSpaceOnUse">
<stop stop-color="#03131C"/>
<stop offset="0.427976" stop-color="#082331"/>
<stop offset="0.975364" stop-color="#03131C"/>
</linearGradient>
<linearGradient id="paint1_linear_1_16" x1="6" y1="-8" x2="143.5" y2="206.5" gradientUnits="userSpaceOnUse">
<stop stop-color="#EBC894"/>
<stop offset="0.244944" stop-color="#EBC894" stop-opacity="0"/>
<stop offset="0.51282" stop-color="#EBC894" stop-opacity="0"/>
<stop offset="1" stop-color="#EBC894"/>
</linearGradient>
</defs>
</svg>
