<?xml version="1.0" encoding="UTF-8"?>
<svg xmlns="http://www.w3.org/2000/svg" version="1.1" xmlns:xlink="http://www.w3.org/1999/xlink" viewBox="0 0 286.2 315.8">
  <defs>
    <style>
      .cls-1 {
        fill: none;
        stroke: url(#Gradiente_sem_nome);
        stroke-miterlimit: 10;
        stroke-width: 16px;
      }

      .cls-2 {
        fill: url(#Gradiente_sem_nome_2);
      }

      .cls-3 {
        isolation: isolate;
      }

      .cls-4 {
        fill: #ebc893;
      }

      .cls-5 {
        fill: #fbc780;
      }
    </style>
    <radialGradient id="Gradiente_sem_nome" data-name="Gradiente sem nome" cx="223.3" cy="60.1" fx="223.3" fy="60.1" r="118.7" gradientTransform="translate(-69.1 296.9) scale(.9 -1.2)" gradientUnits="userSpaceOnUse">
      <stop offset=".3" stop-color="#0f5f8d"/>
      <stop offset="1" stop-color="#05131b"/>
    </radialGradient>
    <radialGradient id="Gradiente_sem_nome_2" data-name="Gradiente sem nome 2" cx="324.6" cy="255.7" fx="324.6" fy="255.7" r="176.5" gradientTransform="translate(-150.1 306.6) scale(.9 -.9)" gradientUnits="userSpaceOnUse">
      <stop offset="0" stop-color="#0f5f8d"/>
      <stop offset="1" stop-color="#05131b"/>
    </radialGradient>
  </defs>
  <!-- Generator: Adobe Illustrator 28.7.1, SVG Export Plug-In . SVG Version: 1.2.0 Build 142)  -->
  <g>
    <g id="Camada_2">
      <g id="Camada_1-2">
        <g>
          <g class="cls-3">
            <g class="cls-3">
              <path class="cls-4" d="M63,234.5c-2.4,0-4.4-.5-6-1.4-1.7-.9-2.9-2.3-3.6-3.9-.5-1.1-.7-2.4-.7-4,0-2.3.6-4.5,1.7-6.3,1.1-1.9,2.6-3.4,4.6-4.5,1.9-1.1,4.1-1.7,6.6-1.7h.3c1.8,0,3.4.3,4.8.9,1.4.6,2.5,1.5,3.3,2.7l-3.1,2.6c-1.2-1.7-3-2.5-5.4-2.5s-4.6.8-6.1,2.5c-1.6,1.7-2.3,3.8-2.3,6.2s.5,3.1,1.6,4.1c1,1,2.6,1.6,4.8,1.6s4.3-.8,5.9-2.5l2.5,2.7c-2.1,2.3-5,3.5-8.8,3.5Z"/>
            </g>
            <g class="cls-3">
              <path class="cls-4" d="M80.6,234.4h-.3c-2.3,0-4.2-.6-5.7-1.9-1.5-1.4-2.2-3.1-2.2-5.3s.9-4.9,2.7-6.7c1.8-1.8,4.1-2.7,7-2.7s3.3.4,4.6,1.1c2.2,1.2,3.4,3.3,3.4,6.3,0,2.6-.9,4.8-2.8,6.6s-4.1,2.7-6.7,2.7ZM80.6,231c1.6,0,2.8-.6,3.8-1.7,1-1.1,1.5-2.5,1.5-4.1s-.3-2.1-1-2.8c-.7-.7-1.7-1.1-3.1-1.1s-2.8.5-3.8,1.6-1.5,2.5-1.5,4.2.3,2.1,1,2.8c.7.7,1.7,1.1,3.1,1.1Z"/>
              <path class="cls-4" d="M106.7,234.2h-4.1l1.8-8.8c0-.4.1-.8.1-1.2,0-1.9-1-2.8-3.1-2.8s-2.3.4-3.2,1.1-1.5,1.9-1.9,3.4l-1.6,8.3h-4.1l3.2-16.2h3.9l-.4,1.8c1.5-1.4,3.3-2.1,5.5-2.1s2.1.2,3,.6c.9.4,1.6,1,2.1,1.8.5.8.8,1.8.8,3.1s0,1.4-.2,1.9l-1.8,9Z"/>
            </g>
            <g class="cls-3">
              <path class="cls-4" d="M116.5,234.4c-1.2,0-2.3-.3-3.2-1-.9-.6-1.4-1.7-1.5-3.2,0-.5,0-1,.1-1.6l1.5-7.4h-2.6l.6-3.2h2.6l.8-3.6h4.1l-.8,3.6h4.2l-.6,3.2h-4.2l-1.5,7.4c0,.2,0,.5,0,.7,0,1.2.6,1.8,1.8,1.8s1.4-.2,2.1-.6l.7,3c-1,.6-2.4,1-4,1Z"/>
            </g>
            <g class="cls-3">
              <path class="cls-4" d="M129.9,234.4c-2.4,0-4.3-.6-5.8-1.8-1.5-1.2-2.3-3-2.3-5.3s.9-5,2.6-6.8c1.7-1.8,4-2.7,6.8-2.7s2.7.3,3.9.8c1.1.5,2,1.3,2.7,2.4.7,1,1,2.3,1,3.9s0,1.5-.2,2.4h-12.7c.1,2.5,1.6,3.8,4.5,3.8s3.3-.5,4.6-1.6l1.7,2.8c-1.9,1.5-4.1,2.2-6.7,2.2ZM134.9,224.7h0c0-1.3-.4-2.2-1.1-2.8s-1.7-.9-2.8-.9-2.4.4-3.2,1.1-1.4,1.6-1.7,2.7h8.8Z"/>
            </g>
            <g class="cls-3">
              <path class="cls-4" d="M155.3,234.2h-4.1l1.8-8.8c0-.4.1-.8.1-1.2,0-1.9-1-2.8-3.1-2.8s-2.3.4-3.2,1.1-1.5,1.9-1.9,3.4l-1.6,8.3h-4.1l3.2-16.2h3.9l-.4,1.8c1.5-1.4,3.3-2.1,5.5-2.1s2.1.2,3,.6c.9.4,1.6,1,2.1,1.8.5.8.8,1.8.8,3.1s0,1.4-.2,1.9l-1.8,9Z"/>
            </g>
            <g class="cls-3">
              <path class="cls-4" d="M167.3,234.4c-1.9,0-3.4-.4-4.7-1.1-2.2-1.3-3.3-3.4-3.4-6.3,0-1.6.4-3.1,1.2-4.6s1.9-2.5,3.4-3.4c1.4-.9,3.1-1.3,4.9-1.3h.2c3.4,0,5.8,1.3,7.1,3.9l-3.5,1.8c-.7-1.5-2-2.2-3.9-2.2s-2.8.5-3.8,1.6-1.5,2.5-1.5,4.2.3,2.1,1,2.8c.7.7,1.7,1.1,3.1,1.1s3.3-.7,4.3-2.2l3,2c-.8,1.2-1.9,2.2-3.3,2.8-1.3.6-2.7.9-4.2.9Z"/>
              <path class="cls-4" d="M179.6,234.2h-4.1l3.2-16.2h4.1l-3.2,16.2ZM181.5,215.5c-.7,0-1.3-.2-1.8-.7-.4-.4-.7-1-.7-1.6s.3-1.3.8-1.8c.5-.5,1.2-.7,2-.7s1.2.2,1.7.5.7.9.7,1.6-.3,1.5-.8,2c-.6.5-1.2.7-2,.7Z"/>
              <path class="cls-4" d="M191.6,234.4h-.3c-2.3,0-4.2-.6-5.7-1.9-1.5-1.4-2.2-3.1-2.2-5.3s.9-4.9,2.7-6.7c1.8-1.8,4.1-2.7,7-2.7s3.3.4,4.6,1.1c2.2,1.2,3.4,3.3,3.4,6.3,0,2.6-.9,4.8-2.8,6.6s-4.1,2.7-6.7,2.7ZM191.6,231c1.6,0,2.8-.6,3.8-1.7s1.5-2.5,1.5-4.1-.3-2.1-1-2.8c-.7-.7-1.7-1.1-3.1-1.1s-2.8.5-3.8,1.6-1.5,2.5-1.5,4.2.3,2.1,1,2.8c.7.7,1.7,1.1,3.1,1.1Z"/>
              <path class="cls-4" d="M207.2,234.4c-2.8,0-5.1-.6-6.8-1.7l1.6-3.1c.8.5,1.7.9,2.7,1.2,1,.3,2,.4,2.9.4,2.4,0,3.5-.6,3.5-1.8s-.2-.8-.5-.9c-.4-.2-.9-.3-1.6-.4-1-.1-2.3-.5-3.9-1.1-.7-.2-1.4-.6-1.9-1.2s-.8-1.4-.8-2.4c0-1.8.7-3.1,2.2-4.1s3.3-1.5,5.7-1.5,4,.5,5.9,1.4l-1.5,3.1c-1.4-.8-3-1.2-4.8-1.2s-2.1.2-2.6.5c-.5.4-.8.8-.8,1.3s.2.8.5,1c.3.2.9.3,1.6.4.9.1,2.2.5,3.9,1.1,1.8.6,2.7,1.8,2.7,3.6s-.4,2.3-1.1,3.1c-.7.8-1.7,1.4-2.9,1.8-1.2.4-2.5.6-4,.6Z"/>
              <path class="cls-4" d="M224.5,234.4h-.3c-2.3,0-4.2-.6-5.7-1.9-1.5-1.4-2.2-3.1-2.2-5.3s.9-4.9,2.7-6.7c1.8-1.8,4.1-2.7,7-2.7s3.3.4,4.6,1.1c2.2,1.2,3.4,3.3,3.4,6.3,0,2.6-.9,4.8-2.8,6.6s-4.1,2.7-6.7,2.7ZM224.5,231c1.6,0,2.8-.6,3.8-1.7,1-1.1,1.5-2.5,1.5-4.1s-.3-2.1-1-2.8c-.7-.7-1.7-1.1-3.1-1.1s-2.8.5-3.8,1.6-1.5,2.5-1.5,4.2.3,2.1,1,2.8c.7.7,1.7,1.1,3.1,1.1Z"/>
            </g>
            <g class="cls-3">
              <path class="cls-4" d="M69.6,266.3c-2.4,0-4.3-.6-5.8-1.8-1.5-1.2-2.3-3-2.3-5.3s.9-5,2.6-6.8c1.7-1.8,4-2.7,6.8-2.7s2.7.3,3.9.8c1.1.5,2,1.3,2.7,2.4.7,1,1,2.3,1,3.9s0,1.5-.2,2.4h-12.7c.1,2.5,1.6,3.8,4.5,3.8s3.3-.5,4.6-1.6l1.7,2.8c-1.9,1.5-4.1,2.2-6.7,2.2ZM74.6,256.6h0c0-1.3-.4-2.2-1.1-2.8s-1.7-.9-2.8-.9-2.4.4-3.2,1.1-1.4,1.6-1.7,2.7h8.8Z"/>
              <path class="cls-4" d="M84.5,266.3c-2.8,0-5.1-.6-6.8-1.7l1.6-3.1c.8.5,1.7.9,2.7,1.2,1,.3,2,.4,2.9.4,2.4,0,3.5-.6,3.5-1.8s-.2-.8-.5-.9c-.4-.2-.9-.3-1.6-.4-1-.1-2.3-.5-3.9-1.1-.7-.2-1.4-.6-1.9-1.2s-.8-1.4-.8-2.4c0-1.8.7-3.1,2.2-4.1s3.3-1.5,5.7-1.5,4,.5,5.9,1.4l-1.5,3.1c-1.4-.8-3-1.2-4.8-1.2s-2.1.2-2.6.5c-.5.4-.8.8-.8,1.3s.2.8.5,1c.3.2.9.3,1.6.4.9.1,2.2.5,3.9,1.1,1.8.6,2.7,1.8,2.7,3.6s-.4,2.3-1.1,3.1c-.7.8-1.7,1.4-2.9,1.8-1.2.4-2.5.6-4,.6Z"/>
              <path class="cls-4" d="M99.6,266.3c-1.2,0-2.3-.3-3.2-1-.9-.6-1.4-1.7-1.5-3.2,0-.5,0-1,.1-1.6l1.5-7.4h-2.6l.6-3.2h2.6l.8-3.6h4.1l-.8,3.6h4.2l-.6,3.2h-4.2l-1.5,7.4c0,.2,0,.5,0,.7,0,1.2.6,1.8,1.8,1.8s1.4-.2,2.1-.6l.7,3c-1,.6-2.4,1-4,1Z"/>
            </g>
            <g class="cls-3">
              <path class="cls-4" d="M109.4,266.1h-4.1l3.2-16.2h3.9l-.4,2.1c1.3-1.5,3.4-2.3,6.2-2.3l-.8,3.8h-1c-3,0-4.8,1.5-5.5,4.6l-1.6,7.9Z"/>
            </g>
            <g class="cls-3">
              <path class="cls-4" d="M122.7,266.3c-1.9,0-3.3-.4-4.4-1.3-1.1-.9-1.6-2.1-1.6-3.5s.5-2.6,1.6-3.5c1.1-.9,2.8-1.3,5.2-1.3h5.5c0-.1,0-.3,0-.4,0,0,0-.2,0-.3,0-.8-.3-1.5-1-2-.6-.6-1.6-.9-3-.9s-1.7.1-2.6.4-1.6.7-2.3,1.2l-1.5-2.9c.9-.6,1.9-1.1,3.1-1.5s2.5-.5,3.7-.5c2.5,0,4.4.6,5.9,1.7,1.2.9,1.8,2.2,1.8,3.8s0,.9-.2,1.5l-1.9,9.4h-3.9l.4-2c-.9,1.5-2.6,2.2-5,2.2ZM123.6,263.5c1.7,0,3.2-.8,4.4-2.4l.4-1.9h-4.6c-2.1,0-3.2.7-3.2,2.1s.3,1.3.8,1.7c.6.3,1.3.5,2.1.5Z"/>
            </g>
            <g class="cls-3">
              <path class="cls-4" d="M140.3,266.3c-1.2,0-2.3-.3-3.2-1-.9-.6-1.4-1.7-1.5-3.2,0-.5,0-1,.1-1.6l1.5-7.4h-2.6l.6-3.2h2.6l.8-3.6h4.1l-.8,3.6h4.2l-.6,3.2h-4.2l-1.5,7.4c0,.2,0,.5,0,.7,0,1.2.6,1.8,1.8,1.8s1.4-.2,2.1-.6l.7,3c-1,.6-2.4,1-4,1Z"/>
            </g>
            <g class="cls-3">
              <path class="cls-4" d="M153.6,266.3c-2.4,0-4.3-.6-5.8-1.8s-2.3-3-2.3-5.3.9-5,2.6-6.8c1.7-1.8,4-2.7,6.8-2.7s2.7.3,3.9.8c1.1.5,2,1.3,2.7,2.4.7,1,1,2.3,1,3.9s0,1.5-.2,2.4h-12.7c.1,2.5,1.6,3.8,4.5,3.8s3.3-.5,4.6-1.6l1.7,2.8c-1.9,1.5-4.1,2.2-6.7,2.2ZM158.7,256.6h0c0-1.3-.4-2.2-1.1-2.8-.7-.6-1.7-.9-2.8-.9s-2.4.4-3.2,1.1c-.8.7-1.4,1.6-1.7,2.7h8.8ZM156.7,247.8h-3.5l4.6-4.2h4.7l-5.8,4.2Z"/>
              <path class="cls-4" d="M169.6,272.2c-3,0-5.5-.7-7.6-2.2l2-3c1.6,1.2,3.5,1.8,5.8,1.8s2.9-.4,3.8-1.1c.9-.7,1.5-1.9,1.9-3.4l.2-.8c-1.3,1.3-3.1,1.9-5.2,1.9s-2.8-.3-4-1c-2.1-1.1-3.2-3.1-3.2-6,0-1.6.4-3.1,1.2-4.4.8-1.3,1.9-2.4,3.2-3.1,1.4-.8,2.8-1.1,4.4-1.1h.3c2.7,0,4.6,1,5.6,3l.5-2.8h3.9l-2.7,13.6c-.5,2.9-1.6,5-3.2,6.5s-3.9,2.2-6.9,2.2ZM171.4,261.9c.9,0,1.8-.2,2.6-.6.8-.4,1.4-1,2-1.8.5-.8.8-1.7.8-2.9s-.4-2.1-1.1-2.6c-.8-.6-1.7-.9-2.9-.9s-2.8.5-3.8,1.5c-1,1-1.5,2.2-1.5,3.8s.4,2.1,1.1,2.7,1.7.8,2.9.8Z"/>
              <path class="cls-4" d="M186.9,266.1h-4.1l3.2-16.2h4.1l-3.2,16.2ZM188.8,247.4c-.7,0-1.3-.2-1.8-.7-.4-.4-.7-1-.7-1.6s.3-1.3.8-1.8c.5-.5,1.2-.7,2-.7s1.2.2,1.7.5.7.9.7,1.6-.3,1.5-.8,2c-.6.5-1.2.7-2,.7Z"/>
            </g>
            <g class="cls-3">
              <path class="cls-4" d="M198.9,266.3c-1.9,0-3.4-.4-4.7-1.1-2.2-1.3-3.3-3.4-3.4-6.3,0-1.6.4-3.1,1.2-4.6s1.9-2.5,3.4-3.4c1.4-.9,3.1-1.3,4.9-1.3h.2c3.4,0,5.8,1.3,7.1,3.9l-3.5,1.8c-.7-1.5-2-2.2-3.9-2.2s-2.8.5-3.8,1.6-1.5,2.5-1.5,4.2.3,2.1,1,2.8c.7.7,1.7,1.1,3.1,1.1s3.3-.7,4.3-2.2l3,2c-.8,1.2-1.9,2.2-3.3,2.8-1.3.6-2.7.9-4.2.9Z"/>
            </g>
            <g class="cls-3">
              <path class="cls-4" d="M215.3,266.3h-.3c-2.3,0-4.2-.6-5.7-1.9-1.5-1.4-2.2-3.1-2.2-5.3s.9-4.9,2.7-6.7c1.8-1.8,4.1-2.7,7-2.7s3.3.4,4.6,1.1c2.2,1.2,3.4,3.3,3.4,6.3,0,2.6-.9,4.8-2.8,6.6s-4.1,2.7-6.7,2.7ZM215.3,262.9c1.6,0,2.8-.6,3.8-1.7s1.5-2.5,1.5-4.1-.3-2.1-1-2.8c-.7-.7-1.7-1.1-3.1-1.1s-2.8.5-3.8,1.6-1.5,2.5-1.5,4.2.3,2.1,1,2.8c.7.7,1.7,1.1,3.1,1.1Z"/>
            </g>
          </g>
          <rect class="cls-1" x="8" y="143.3" width="270.2" height="164.5"/>
          <path class="cls-2" d="M55,0h176C253.4,0,271.6,18.2,271.6,40.6v138H14.4V40.6C14.4,18.2,32.6,0,55,0Z"/>
          <path class="cls-4" d="M166.9,115.2l18-47.9,18,47.9c-5.2,3.9-11.5,6-18,6s-12.8-2.1-18-6Z"/>
          <path class="cls-4" d="M83,115.2l18-47.9,18,47.9c-5.2,3.9-11.5,6-18,6s-12.8-2.1-18-6Z"/>
          <rect class="cls-4" x="113" y="141.1" width="59.9" height="8.2"/>
          <rect class="cls-4" x="138.9" y="37.3" width="8.2" height="107.9"/>
          <path class="cls-4" d="M89,61.3h12c12,0,30-6,42-12,12,6,30,12,42,12h12"/>
          <path class="cls-5" d="M196.9,61.4h-12c-12.4,0-30.4-6.2-42-12-11.6,5.8-29.6,12-42,12h-12v-.3h12c12.3,0,30.3-6.2,41.9-12h0s0,0,0,0c11.5,5.8,29.6,12,41.9,12h12v.3Z"/>
        </g>
      </g>
    </g>
  </g>
</svg>