<svg width="137" height="168" viewBox="0 0 137 168" fill="none" xmlns="http://www.w3.org/2000/svg">
<rect x="0.5" y="0.5" width="136" height="167" rx="7.5" fill="url(#paint0_linear_2_2619)" stroke="url(#paint1_linear_2_2619)"/>
<path d="M56.011 101.924C55.547 101.924 55.315 102.068 55.315 102.356V109.256C55.315 109.544 55.547 109.688 56.011 109.688H56.359V110H53.095V109.688H53.431C53.903 109.688 54.139 109.544 54.139 109.256V105.824H49.831V109.256C49.831 109.544 50.063 109.688 50.527 109.688H50.887V110H47.611V109.688H47.959C48.191 109.688 48.363 109.656 48.475 109.592C48.595 109.52 48.655 109.408 48.655 109.256V102.356C48.655 102.204 48.595 102.096 48.475 102.032C48.363 101.96 48.191 101.924 47.959 101.924H47.611V101.6H50.887V101.924H50.527C50.063 101.924 49.831 102.068 49.831 102.356V105.332H54.139V102.356C54.139 102.068 53.903 101.924 53.431 101.924H53.095V101.6H56.359V101.924H56.011ZM59.7722 110.12C58.8042 110.12 58.0522 109.864 57.5162 109.352C56.9882 108.84 56.7242 108.116 56.7242 107.18C56.7242 106.244 56.9922 105.52 57.5282 105.008C58.0642 104.496 58.8122 104.24 59.7722 104.24C60.7322 104.24 61.4762 104.496 62.0042 105.008C62.5402 105.52 62.8082 106.244 62.8082 107.18C62.8082 108.116 62.5402 108.84 62.0042 109.352C61.4762 109.864 60.7322 110.12 59.7722 110.12ZM59.7722 109.664C60.3642 109.664 60.8322 109.448 61.1762 109.016C61.5202 108.584 61.6922 107.972 61.6922 107.18C61.6922 106.396 61.5202 105.792 61.1762 105.368C60.8322 104.936 60.3642 104.72 59.7722 104.72C59.1722 104.72 58.7002 104.936 58.3562 105.368C58.0122 105.792 57.8402 106.396 57.8402 107.18C57.8402 107.972 58.0122 108.584 58.3562 109.016C58.7002 109.448 59.1722 109.664 59.7722 109.664ZM63.3059 109.7H63.5219C63.7219 109.7 63.8779 109.668 63.9899 109.604C64.1099 109.54 64.1699 109.444 64.1699 109.316V102.368C64.1699 102.2 64.0859 102.116 63.9179 102.116C63.8459 102.116 63.7299 102.148 63.5699 102.212L63.4859 101.936L64.9979 101.396H65.2979V109.316C65.2979 109.444 65.3539 109.54 65.4659 109.604C65.5859 109.668 65.7419 109.7 65.9339 109.7H66.1379V110H63.3059V109.7ZM69.207 110.12C68.415 110.12 67.791 109.876 67.335 109.388C66.887 108.9 66.663 108.124 66.663 107.06C66.663 106.452 66.771 105.936 66.987 105.512C67.211 105.088 67.511 104.772 67.887 104.564C68.271 104.348 68.707 104.24 69.195 104.24C70.083 104.24 70.735 104.52 71.151 105.08V102.368C71.151 102.2 71.071 102.116 70.911 102.116C70.831 102.116 70.711 102.148 70.551 102.212L70.479 101.936L71.979 101.396H72.279V109.172C72.279 109.316 72.319 109.424 72.399 109.496C72.487 109.56 72.615 109.592 72.783 109.592H73.059V109.868L71.355 110.048L71.295 109.112C70.895 109.784 70.199 110.12 69.207 110.12ZM69.519 109.664C69.855 109.664 70.147 109.588 70.395 109.436C70.643 109.276 70.831 109.068 70.959 108.812C71.095 108.548 71.163 108.272 71.163 107.984V106.16C71.163 105.888 71.083 105.644 70.923 105.428C70.771 105.204 70.575 105.032 70.335 104.912C70.095 104.784 69.847 104.72 69.591 104.72C68.999 104.72 68.547 104.924 68.235 105.332C67.931 105.732 67.779 106.32 67.779 107.096C67.779 108.808 68.359 109.664 69.519 109.664ZM74.7265 103.268C74.5185 103.268 74.3505 103.208 74.2225 103.088C74.1025 102.96 74.0425 102.8 74.0425 102.608C74.0425 102.408 74.1025 102.248 74.2225 102.128C74.3505 102.008 74.5185 101.948 74.7265 101.948C74.9265 101.948 75.0865 102.008 75.2065 102.128C75.3345 102.248 75.3985 102.408 75.3985 102.608C75.3985 102.8 75.3345 102.96 75.2065 103.088C75.0865 103.208 74.9265 103.268 74.7265 103.268ZM73.3945 109.7H73.6225C73.8145 109.7 73.9665 109.668 74.0785 109.604C74.1985 109.54 74.2585 109.444 74.2585 109.316V105.272C74.2585 105.096 74.1745 105.008 74.0065 105.008C73.9665 105.008 73.9065 105.024 73.8265 105.056C73.7465 105.08 73.6905 105.096 73.6585 105.104L73.5745 104.828L75.0865 104.3H75.3865V109.316C75.3865 109.444 75.4425 109.54 75.5545 109.604C75.6745 109.668 75.8305 109.7 76.0225 109.7H76.2505V110H73.3945V109.7ZM83.5462 109.7V110H80.7502V109.7H80.9422C81.1262 109.7 81.2742 109.668 81.3862 109.604C81.4982 109.54 81.5542 109.444 81.5542 109.316V106.016C81.5542 105.592 81.4462 105.272 81.2302 105.056C81.0142 104.84 80.7062 104.732 80.3062 104.732C80.0262 104.732 79.7542 104.804 79.4902 104.948C79.2342 105.084 79.0222 105.292 78.8542 105.572C78.6862 105.852 78.6022 106.188 78.6022 106.58V109.316C78.6022 109.444 78.6582 109.54 78.7702 109.604C78.8902 109.668 79.0422 109.7 79.2262 109.7H79.4062V110H76.6102V109.7H76.8382C77.0302 109.7 77.1822 109.668 77.2942 109.604C77.4142 109.54 77.4742 109.444 77.4742 109.316V105.284C77.4742 105.116 77.3902 105.032 77.2222 105.032C77.1502 105.032 77.0342 105.064 76.8742 105.128L76.7902 104.864L78.3022 104.324H78.6022V105.26C78.7782 104.972 79.0462 104.732 79.4062 104.54C79.7742 104.34 80.1822 104.24 80.6302 104.24C81.2942 104.24 81.8022 104.388 82.1542 104.684C82.5062 104.98 82.6822 105.376 82.6822 105.872V109.316C82.6822 109.444 82.7422 109.54 82.8622 109.604C82.9822 109.668 83.1382 109.7 83.3302 109.7H83.5462ZM89.1627 104.24C89.3867 104.24 89.5667 104.288 89.7027 104.384C89.8467 104.48 89.9187 104.596 89.9187 104.732C89.9187 104.86 89.8827 104.96 89.8107 105.032C89.7467 105.104 89.6507 105.14 89.5227 105.14C89.4347 105.14 89.3667 105.124 89.3187 105.092C89.2787 105.06 89.2387 105.012 89.1987 104.948C89.1507 104.876 89.0987 104.824 89.0427 104.792C88.9947 104.752 88.9187 104.732 88.8147 104.732C88.6947 104.732 88.5387 104.784 88.3467 104.888C88.6747 105.2 88.8387 105.616 88.8387 106.136C88.8387 106.736 88.6227 107.2 88.1907 107.528C87.7587 107.856 87.1587 108.02 86.3907 108.02C85.8947 108.02 85.4667 107.948 85.1067 107.804C84.8667 107.98 84.7467 108.164 84.7467 108.356C84.7467 108.508 84.8187 108.632 84.9627 108.728C85.1067 108.824 85.3107 108.872 85.5747 108.872H87.5067C87.9947 108.872 88.3987 108.98 88.7187 109.196C89.0467 109.404 89.2107 109.72 89.2107 110.144C89.2107 110.704 88.9547 111.132 88.4427 111.428C87.9307 111.724 87.2307 111.872 86.3427 111.872C85.5907 111.872 84.9947 111.748 84.5547 111.5C84.1227 111.26 83.9067 110.912 83.9067 110.456C83.9067 109.984 84.2067 109.636 84.8067 109.412C84.5427 109.34 84.3467 109.228 84.2187 109.076C84.0987 108.924 84.0387 108.756 84.0387 108.572C84.0387 108.228 84.2667 107.908 84.7227 107.612C84.4827 107.444 84.2947 107.236 84.1587 106.988C84.0307 106.74 83.9667 106.456 83.9667 106.136C83.9667 105.544 84.1827 105.08 84.6147 104.744C85.0467 104.408 85.6387 104.24 86.3907 104.24C87.0867 104.24 87.6427 104.38 88.0587 104.66C88.3867 104.38 88.7547 104.24 89.1627 104.24ZM86.3907 107.576C86.8307 107.576 87.1627 107.444 87.3867 107.18C87.6107 106.908 87.7227 106.56 87.7227 106.136C87.7227 105.712 87.6107 105.368 87.3867 105.104C87.1627 104.832 86.8307 104.696 86.3907 104.696C85.9587 104.696 85.6307 104.832 85.4067 105.104C85.1907 105.368 85.0827 105.712 85.0827 106.136C85.0827 106.56 85.1907 106.908 85.4067 107.18C85.6307 107.444 85.9587 107.576 86.3907 107.576ZM85.3707 109.592C85.1387 109.68 84.9707 109.812 84.8667 109.988C84.7707 110.156 84.7227 110.316 84.7227 110.468C84.7227 110.788 84.8747 111.028 85.1787 111.188C85.4827 111.356 85.8867 111.44 86.3907 111.44C86.9587 111.44 87.4067 111.344 87.7347 111.152C88.0627 110.96 88.2267 110.688 88.2267 110.336C88.2267 110.08 88.1387 109.892 87.9627 109.772C87.7947 109.652 87.5107 109.592 87.1107 109.592H85.3707Z" fill="#FFF2E0"/>
<path fill-rule="evenodd" clip-rule="evenodd" d="M68.1405 52.2872C68.646 51.9043 69.354 51.9043 69.8595 52.2872L82.4595 61.8327C82.8005 62.0911 83 62.4883 83 62.9091V77.9091C83 78.9941 82.5575 80.0346 81.7698 80.8018C80.9822 81.569 79.9139 82 78.8 82H59.2C58.0861 82 57.0178 81.569 56.2302 80.8018C55.4425 80.0346 55 78.9941 55 77.9091V62.9091C55 62.4883 55.1995 62.0911 55.5405 61.8327L68.1405 52.2872ZM57.8 63.576V77.9091C57.8 78.2708 57.9475 78.6176 58.2101 78.8733C58.4726 79.1291 58.8287 79.2727 59.2 79.2727H78.8C79.1713 79.2727 79.5274 79.1291 79.7899 78.8733C80.0525 78.6176 80.2 78.2707 80.2 77.9091V63.576L69 55.0912L57.8 63.576Z" fill="#EBC894"/>
<path fill-rule="evenodd" clip-rule="evenodd" d="M63.4 67C63.4 66.2469 64.0268 65.6364 64.8 65.6364H73.2C73.9732 65.6364 74.6 66.2469 74.6 67V80.6364C74.6 81.3895 73.9732 82 73.2 82C72.4268 82 71.8 81.3895 71.8 80.6364V68.3636H66.2V80.6364C66.2 81.3895 65.5732 82 64.8 82C64.0268 82 63.4 81.3895 63.4 80.6364V67Z" fill="#EBC894"/>
<defs>
<linearGradient id="paint0_linear_2_2619" x1="3.42386e-07" y1="-8.5" x2="156.5" y2="208" gradientUnits="userSpaceOnUse">
<stop stop-color="#03131C"/>
<stop offset="0.427976" stop-color="#082331"/>
<stop offset="0.975364" stop-color="#03131C"/>
</linearGradient>
<linearGradient id="paint1_linear_2_2619" x1="6" y1="-8" x2="143.5" y2="206.5" gradientUnits="userSpaceOnUse">
<stop stop-color="#EBC894"/>
<stop offset="0.244944" stop-color="#EBC894" stop-opacity="0"/>
<stop offset="0.51282" stop-color="#EBC894" stop-opacity="0"/>
<stop offset="1" stop-color="#EBC894"/>
</linearGradient>
</defs>
</svg>
