<?xml version="1.0" encoding="UTF-8"?>
<svg id="Camada_2" xmlns="http://www.w3.org/2000/svg" xmlns:xlink="http://www.w3.org/1999/xlink" viewBox="0 0 286.17 319.85">
  <defs>
    <style>
      .cls-1 {
        fill: url(#Gradiente_sem_nome_17);
      }

      .cls-2 {
        letter-spacing: -.05em;
      }

      .cls-3 {
        fill: #ebc893;
        font-family: ArgentumNovus-SemiBoldItalic, 'Argentum Novus';
        font-size: 30.24px;
        font-style: italic;
        font-weight: 600;
      }

      .cls-4 {
        letter-spacing: -.03em;
      }

      .cls-5 {
        fill: #e4c78e;
      }

      .cls-6 {
        letter-spacing: -.05em;
      }

      .cls-7 {
        letter-spacing: -.05em;
      }

      .cls-8 {
        letter-spacing: -.04em;
      }

      .cls-9 {
        fill: none;
        stroke: url(#Gradiente_sem_nome_23);
        stroke-miterlimit: 10;
        stroke-width: 16px;
      }

      .cls-10 {
        letter-spacing: -.03em;
      }

      .cls-11 {
        letter-spacing: -.04em;
      }

      .cls-12 {
        letter-spacing: -.04em;
      }
    </style>
    <radialGradient id="Gradiente_sem_nome_23" data-name="Gradiente sem nome 23" cx="234.23" cy="305.44" fx="234.23" fy="305.44" r="118.82" gradientTransform="translate(-79.71 -141.39) scale(.95 1.21)" gradientUnits="userSpaceOnUse">
      <stop offset=".3" stop-color="#0f5f8d"/>
      <stop offset="1" stop-color="#05131b"/>
    </radialGradient>
    <radialGradient id="Gradiente_sem_nome_17" data-name="Gradiente sem nome 17" cx="349.29" cy="15.82" fx="349.29" fy="15.82" r="181.18" gradientTransform="translate(-171.09 78.19) scale(.9 .85)" gradientUnits="userSpaceOnUse">
      <stop offset="0" stop-color="#0f5f8d"/>
      <stop offset="1" stop-color="#05131b"/>
    </radialGradient>
  </defs>
  <g id="Camada_1-2" data-name="Camada_1">
    <text class="cls-3" transform="translate(38.72 238.22)"><tspan class="cls-12" x="0" y="0">Pla</tspan><tspan class="cls-4" x="47.38" y="0">n</tspan><tspan class="cls-11" x="67.21" y="0">eja</tspan><tspan class="cls-10" x="110.09" y="0">m</tspan><tspan class="cls-11" x="140.93" y="0">en</tspan><tspan class="cls-2" x="178.24" y="0">t</tspan><tspan class="cls-12" x="189.52" y="0">o</tspan><tspan class="cls-12" x="-.54" y="31.91">p</tspan><tspan class="cls-7" x="19.08" y="31.91">r</tspan><tspan class="cls-6" x="30.48" y="31.91">e</tspan><tspan class="cls-12" x="47.83" y="31.91">vidê</tspan><tspan class="cls-10" x="109.43" y="31.91">n</tspan><tspan class="cls-12" x="129.26" y="31.91">ciá</tspan><tspan class="cls-8" x="170.8" y="31.91">r</tspan><tspan class="cls-12" x="182.35" y="31.91">io</tspan></text>
    <rect class="cls-9" x="8" y="147.37" width="270.17" height="164.48"/>
    <path class="cls-1" d="M54.06,0h180.69c23.01,0,41.7,18.68,41.7,41.7v141.65H12.36V41.7C12.36,18.68,31.05,0,54.06,0Z"/>
    <rect class="cls-5" x="95.23" y="144.84" width="98.36" height="10.09"/>
    <rect class="cls-5" x="106.57" y="89.78" width="10.09" height="38.25"/>
    <rect class="cls-5" x="128.43" y="89.78" width="10.09" height="38.25"/>
    <rect class="cls-5" x="150.29" y="89.78" width="10.09" height="38.25"/>
    <rect class="cls-5" x="172.15" y="89.78" width="10.09" height="38.25"/>
    <polygon class="cls-5" points="144.4 37.74 197.26 70.78 91.55 70.78 144.4 37.74"/>
  </g>
</svg>