<?xml version="1.0" encoding="UTF-8"?>
<svg xmlns="http://www.w3.org/2000/svg" version="1.1" xmlns:xlink="http://www.w3.org/1999/xlink" viewBox="0 0 286.2 319.9">
  <defs>
    <style>
      .cls-1 {
        fill: none;
        stroke: url(#Gradiente_sem_nome);
        stroke-miterlimit: 10;
        stroke-width: 16px;
      }

      .cls-2 {
        fill: url(#Gradiente_sem_nome_2);
      }

      .cls-3 {
        fill: #e4c78e;
      }

      .cls-4 {
        isolation: isolate;
      }

      .cls-5 {
        fill: #ebc893;
      }
    </style>
    <radialGradient id="Gradiente_sem_nome" data-name="Gradiente sem nome" cx="242.6" cy="59.7" fx="242.6" fy="59.7" r="118.6" gradientTransform="translate(-87.4 300.5) scale(.9 -1.2)" gradientUnits="userSpaceOnUse">
      <stop offset=".3" stop-color="#0f5f8d"/>
      <stop offset="1" stop-color="#05131b"/>
    </radialGradient>
    <radialGradient id="Gradiente_sem_nome_2" data-name="Gradiente sem nome 2" cx="366.4" cy="258" fx="366.4" fy="258" r="181.2" gradientTransform="translate(-186.5 310.9) scale(.9 -.9)" gradientUnits="userSpaceOnUse">
      <stop offset="0" stop-color="#0f5f8d"/>
      <stop offset="1" stop-color="#05131b"/>
    </radialGradient>
  </defs>
  <!-- Generator: Adobe Illustrator 28.7.1, SVG Export Plug-In . SVG Version: 1.2.0 Build 142)  -->
  <g>
    <g id="Camada_2">
      <g id="Camada_1-2">
        <g class="cls-4">
          <g class="cls-4">
            <path class="cls-5" d="M44.1,238.2h-4.3l4.2-21.2h8.3c1.6,0,2.9.2,4.2.7,1.2.4,2.2,1.1,2.9,2.1.7,1,1.1,2.2,1.1,3.7,0,2.6-.9,4.7-2.7,6.3s-4.3,2.4-7.5,2.4h-5l-1.2,6ZM49.8,228.7c2,0,3.5-.4,4.7-1.1,1.1-.7,1.7-1.9,1.7-3.7s-.4-2-1.2-2.5c-.8-.5-1.8-.8-3.1-.8h-4.3l-1.6,8.1h3.8Z"/>
            <path class="cls-5" d="M65.8,238.4c-1.3,0-2.4-.3-3.3-1-.9-.7-1.3-1.7-1.3-3.2s0-.9.2-1.4l3.4-17.1h4.1c-2.3,11.6-3.5,17.5-3.5,17.7,0,1.1.6,1.7,1.8,1.7s1,0,1.4-.3l-.4,3.2c-.8.2-1.6.4-2.4.4Z"/>
            <path class="cls-5" d="M75.4,238.4c-1.9,0-3.3-.4-4.4-1.3-1.1-.9-1.6-2.1-1.6-3.5s.5-2.6,1.6-3.5c1.1-.9,2.8-1.3,5.2-1.3h5.5c0-.1,0-.3,0-.4,0,0,0-.2,0-.3,0-.8-.3-1.5-1-2-.6-.6-1.6-.9-3-.9s-1.7.1-2.6.4-1.6.7-2.3,1.2l-1.5-2.9c.9-.6,1.9-1.1,3.1-1.5s2.5-.5,3.7-.5c2.5,0,4.4.6,5.9,1.7,1.2.9,1.8,2.2,1.8,3.8s0,.9-.2,1.5l-1.9,9.4h-3.9l.4-2c-.9,1.5-2.6,2.2-5,2.2ZM76.4,235.6c1.7,0,3.2-.8,4.4-2.4l.4-1.9h-4.6c-2.1,0-3.2.7-3.2,2.1s.3,1.3.8,1.7c.6.3,1.3.5,2.1.5Z"/>
          </g>
          <g class="cls-4">
            <path class="cls-5" d="M103,238.2h-4.1l1.8-8.8c0-.4.1-.8.1-1.2,0-1.9-1-2.8-3.1-2.8s-2.3.4-3.2,1.1-1.5,1.9-1.9,3.4l-1.6,8.3h-4.1l3.2-16.2h3.9l-.4,1.8c1.5-1.4,3.3-2.1,5.5-2.1s2.1.2,3,.6c.9.4,1.6,1,2.1,1.8.5.8.8,1.8.8,3.1s0,1.4-.2,1.9l-1.8,9Z"/>
          </g>
          <g class="cls-4">
            <path class="cls-5" d="M115,238.4c-2.4,0-4.3-.6-5.8-1.8-1.5-1.2-2.3-3-2.3-5.3s.9-5,2.6-6.8c1.7-1.8,4-2.7,6.8-2.7s2.7.3,3.9.8c1.1.5,2,1.3,2.7,2.4.7,1,1,2.3,1,3.9s0,1.5-.2,2.4h-12.7c.1,2.5,1.6,3.8,4.5,3.8s3.3-.5,4.6-1.6l1.7,2.8c-1.9,1.5-4.1,2.2-6.7,2.2ZM120.1,228.7h0c0-1.3-.4-2.2-1.1-2.8s-1.7-.9-2.8-.9-2.4.4-3.2,1.1-1.4,1.6-1.7,2.7h8.8Z"/>
            <path class="cls-5" d="M121.9,244.3c-1.7,0-2.9-.3-3.8-.9l1.7-3c.6.4,1.3.6,2.1.6s1.5-.3,1.8-.9c.4-.6.7-1.5.9-2.8l3.1-15.3h4.1l-3.3,16.3c-.8,4-3,5.9-6.6,5.9ZM130.5,219.5c-.7,0-1.3-.2-1.8-.7-.4-.4-.6-1-.6-1.6s.3-1.3.8-1.8c.5-.5,1.2-.7,2-.7s1.2.2,1.7.5.7.9.7,1.6-.3,1.5-.8,2c-.6.5-1.2.7-2,.7Z"/>
            <path class="cls-5" d="M138.1,238.4c-1.9,0-3.3-.4-4.4-1.3-1.1-.9-1.6-2.1-1.6-3.5s.5-2.6,1.6-3.5c1.1-.9,2.8-1.3,5.2-1.3h5.5c0-.1,0-.3,0-.4,0,0,0-.2,0-.3,0-.8-.3-1.5-1-2-.6-.6-1.6-.9-3-.9s-1.7.1-2.6.4-1.6.7-2.3,1.2l-1.5-2.9c.9-.6,1.9-1.1,3.1-1.5s2.5-.5,3.7-.5c2.5,0,4.4.6,5.9,1.7,1.2.9,1.8,2.2,1.8,3.8s0,.9-.2,1.5l-1.9,9.4h-3.9l.4-2c-.9,1.5-2.6,2.2-5,2.2ZM139.1,235.6c1.7,0,3.2-.8,4.4-2.4l.4-1.9h-4.6c-2.1,0-3.2.7-3.2,2.1s.3,1.3.8,1.7c.6.3,1.3.5,2.1.5Z"/>
          </g>
          <g class="cls-4">
            <path class="cls-5" d="M176.8,238.2h-4.1l1.8-8.8c0-.5.1-.9.1-1.3,0-1.8-1-2.8-2.9-2.8s-4.1,1.5-4.7,4.4l-1.7,8.4h-4.1l1.8-8.8c0-.4.1-.8.1-1.3,0-1.9-1-2.8-2.9-2.8s-4.1,1.5-4.7,4.5l-1.6,8.3h-4.1l3.2-16.2h3.9l-.4,1.8c1.4-1.3,3.2-2,5.3-2s2,.2,2.9.6c.9.4,1.6,1.1,2.1,2.1,1.6-1.8,3.7-2.7,6.3-2.7s2,.2,2.9.5c.9.4,1.6.9,2.1,1.7.5.8.8,1.8.8,3.1s0,1.3-.2,2l-1.8,9Z"/>
          </g>
          <g class="cls-4">
            <path class="cls-5" d="M188.8,238.4c-2.4,0-4.3-.6-5.8-1.8-1.5-1.2-2.3-3-2.3-5.3s.9-5,2.6-6.8c1.7-1.8,4-2.7,6.8-2.7s2.7.3,3.9.8c1.1.5,2,1.3,2.7,2.4.7,1,1,2.3,1,3.9s0,1.5-.2,2.4h-12.7c.1,2.5,1.6,3.8,4.5,3.8s3.3-.5,4.6-1.6l1.7,2.8c-1.9,1.5-4.1,2.2-6.7,2.2ZM193.8,228.7h0c0-1.3-.4-2.2-1.1-2.8-.7-.6-1.7-.9-2.8-.9s-2.4.4-3.2,1.1-1.4,1.6-1.7,2.7h8.8Z"/>
            <path class="cls-5" d="M214.2,238.2h-4.1l1.8-8.8c0-.4.1-.8.1-1.2,0-1.9-1-2.8-3.1-2.8s-2.3.4-3.2,1.1-1.5,1.9-1.9,3.4l-1.6,8.3h-4.1l3.2-16.2h3.9l-.4,1.8c1.5-1.4,3.3-2.1,5.5-2.1s2.1.2,3,.6c.9.4,1.6,1,2.1,1.8.5.8.8,1.8.8,3.1s0,1.4-.2,1.9l-1.8,9Z"/>
          </g>
          <g class="cls-4">
            <path class="cls-5" d="M224,238.4c-1.2,0-2.3-.3-3.2-1-.9-.6-1.4-1.7-1.5-3.2,0-.5,0-1,.1-1.6l1.5-7.4h-2.6l.6-3.2h2.6l.8-3.6h4.1l-.8,3.6h4.2l-.6,3.2h-4.2l-1.5,7.4c0,.2,0,.5,0,.7,0,1.2.6,1.8,1.8,1.8s1.4-.2,2.1-.6l.7,3c-1,.6-2.4,1-4,1Z"/>
          </g>
          <g class="cls-4">
            <path class="cls-5" d="M237.4,238.4h-.3c-2.3,0-4.2-.6-5.7-1.9-1.5-1.4-2.2-3.1-2.2-5.3s.9-4.9,2.7-6.7c1.8-1.8,4.1-2.7,7-2.7s3.3.4,4.6,1.1c2.2,1.2,3.4,3.3,3.4,6.3,0,2.6-.9,4.8-2.8,6.6s-4.1,2.7-6.7,2.7ZM237.4,235c1.6,0,2.8-.6,3.8-1.7s1.5-2.5,1.5-4.1-.3-2.1-1-2.8c-.7-.7-1.7-1.1-3.1-1.1s-2.8.5-3.8,1.6-1.5,2.5-1.5,4.2.3,2.1,1,2.8c.7.7,1.7,1.1,3.1,1.1Z"/>
          </g>
          <g class="cls-4">
            <path class="cls-5" d="M41.9,276h-4.1l4.4-22h3.9l-.3,1.7c1.4-1.3,3.1-1.9,5.2-1.9s2.7.4,3.9,1.1c2.1,1.3,3.1,3.4,3.2,6.3,0,1.8-.4,3.4-1.3,4.8-.8,1.4-1.9,2.5-3.3,3.3s-2.8,1.2-4.3,1.2-2.4-.2-3.3-.5c-1-.4-1.7-1-2.3-2l-1.6,8.2ZM48.6,266.9c1.4,0,2.6-.5,3.7-1.5,1.1-1,1.6-2.4,1.6-4.3s-.4-2.1-1.1-2.8c-.7-.7-1.7-1.1-3-1.1s-2.9.6-3.9,1.7c-.9,1.1-1.4,2.5-1.4,4.1s.3,2.1,1,2.8c.7.7,1.7,1.1,3.1,1.1Z"/>
          </g>
          <g class="cls-4">
            <path class="cls-5" d="M62.7,270.1h-4.1l3.2-16.2h3.9l-.4,2.1c1.3-1.5,3.4-2.3,6.2-2.3l-.8,3.8h-1c-3,0-4.8,1.5-5.5,4.6l-1.6,7.9Z"/>
          </g>
          <g class="cls-4">
            <path class="cls-5" d="M78.3,270.3c-2.4,0-4.3-.6-5.8-1.8-1.5-1.2-2.3-3-2.3-5.3s.9-5,2.6-6.8c1.7-1.8,4-2.7,6.8-2.7s2.7.3,3.9.8c1.1.5,2,1.3,2.7,2.4.7,1,1,2.3,1,3.9s0,1.5-.2,2.4h-12.7c.1,2.5,1.6,3.8,4.5,3.8s3.3-.5,4.6-1.6l1.7,2.8c-1.9,1.5-4.1,2.2-6.7,2.2ZM83.4,260.6h0c0-1.3-.4-2.2-1.1-2.8s-1.7-.9-2.8-.9-2.4.4-3.2,1.1-1.4,1.6-1.7,2.7h8.8Z"/>
          </g>
          <g class="cls-4">
            <path class="cls-5" d="M95.9,270.1h-4.2l-3.7-16.2h4.1l2.6,11.7,7.3-11.7h4.1l-10.1,16.2Z"/>
            <path class="cls-5" d="M107.9,270.1h-4.1l3.2-16.2h4.1l-3.2,16.2ZM109.9,251.4c-.7,0-1.3-.2-1.8-.7-.4-.4-.7-1-.7-1.6s.3-1.3.8-1.8c.5-.5,1.2-.7,2-.7s1.2.2,1.7.5c.5.4.7.9.7,1.6s-.3,1.5-.8,2c-.6.5-1.2.7-2,.7Z"/>
            <path class="cls-5" d="M118.8,270.3c-3.1,0-5.3-1.4-6.5-4.2-.3-.8-.5-1.9-.5-3.2,0-1.6.4-3.1,1.1-4.5.8-1.4,1.8-2.5,3.1-3.4,1.3-.9,2.8-1.3,4.5-1.3h.3c2.5,0,4.2.8,5.3,2.5l1.7-8.6h4.1l-4.5,22.4h-3.9l.4-1.8c-1.4,1.3-3.1,2-5.2,2ZM119.9,266.9c1.6,0,2.8-.6,3.8-1.7,1-1.1,1.5-2.5,1.5-4.1s-.3-2.1-1-2.8c-.7-.7-1.7-1.1-3.1-1.1s-2.8.5-3.8,1.6-1.5,2.5-1.5,4.2.3,2.1,1,2.8c.7.7,1.7,1.1,3.1,1.1Z"/>
            <path class="cls-5" d="M139.4,270.3c-2.4,0-4.3-.6-5.8-1.8-1.5-1.2-2.3-3-2.3-5.3s.9-5,2.6-6.8c1.7-1.8,4-2.7,6.8-2.7s2.7.3,3.9.8c1.1.5,2,1.3,2.7,2.4.7,1,1,2.3,1,3.9s0,1.5-.2,2.4h-12.7c.1,2.5,1.6,3.8,4.5,3.8s3.3-.5,4.6-1.6l1.7,2.8c-1.9,1.5-4.1,2.2-6.7,2.2ZM144.5,260.6h0c0-1.3-.4-2.2-1.1-2.8-.7-.6-1.7-.9-2.8-.9s-2.4.4-3.2,1.1-1.4,1.6-1.7,2.7h8.8ZM147.6,251.8h-3.1l-2.4-2.3-3,2.3h-3.2l4.6-4.2h3.7l3.5,4.2Z"/>
          </g>
          <g class="cls-4">
            <path class="cls-5" d="M165.1,270.1h-4.1l1.8-8.8c0-.4.1-.8.1-1.2,0-1.9-1-2.8-3.1-2.8s-2.3.4-3.2,1.1-1.5,1.9-1.9,3.4l-1.6,8.3h-4.1l3.2-16.2h3.9l-.4,1.8c1.5-1.4,3.3-2.1,5.5-2.1s2.1.2,3,.6c.9.4,1.6,1,2.1,1.8.5.8.8,1.8.8,3.1s0,1.4-.2,1.9l-1.8,9Z"/>
          </g>
          <g class="cls-4">
            <path class="cls-5" d="M177,270.3c-1.9,0-3.4-.4-4.7-1.1-2.2-1.3-3.3-3.4-3.4-6.3,0-1.6.4-3.1,1.2-4.6s1.9-2.5,3.4-3.4c1.4-.9,3.1-1.3,4.9-1.3h.2c3.4,0,5.8,1.3,7.1,3.9l-3.5,1.8c-.7-1.5-2-2.2-3.9-2.2s-2.8.5-3.8,1.6-1.5,2.5-1.5,4.2.3,2.1,1,2.8c.7.7,1.7,1.1,3.1,1.1s3.3-.7,4.3-2.2l3,2c-.8,1.2-1.9,2.2-3.3,2.8-1.3.6-2.7.9-4.2.9Z"/>
            <path class="cls-5" d="M189.3,270.1h-4.1l3.2-16.2h4.1l-3.2,16.2ZM191.3,251.4c-.7,0-1.3-.2-1.8-.7s-.7-1-.7-1.6.3-1.3.8-1.8c.5-.5,1.2-.7,2-.7s1.2.2,1.7.5.7.9.7,1.6-.3,1.5-.8,2c-.6.5-1.2.7-2,.7Z"/>
            <path class="cls-5" d="M198.9,270.3c-1.9,0-3.3-.4-4.4-1.3-1.1-.9-1.6-2.1-1.6-3.5s.5-2.6,1.6-3.5c1.1-.9,2.8-1.3,5.2-1.3h5.5c0-.1,0-.3,0-.4,0,0,0-.2,0-.3,0-.8-.3-1.5-1-2-.6-.6-1.6-.9-3-.9s-1.7.1-2.6.4-1.6.7-2.3,1.2l-1.5-2.9c.9-.6,1.9-1.1,3.1-1.5,1.2-.3,2.5-.5,3.7-.5,2.5,0,4.4.6,5.9,1.7,1.2.9,1.8,2.2,1.8,3.8s0,.9-.2,1.5l-1.9,9.4h-3.9l.4-2c-.9,1.5-2.6,2.2-5,2.2ZM199.8,267.5c1.7,0,3.2-.8,4.4-2.4l.4-1.9h-4.6c-2.1,0-3.2.7-3.2,2.1s.3,1.3.8,1.7,1.3.5,2.1.5ZM202.7,251.8h-3.5l4.6-4.2h4.7l-5.8,4.2Z"/>
          </g>
          <g class="cls-4">
            <path class="cls-5" d="M214.4,270.1h-4.1l3.2-16.2h3.9l-.4,2.1c1.3-1.5,3.4-2.3,6.2-2.3l-.8,3.8h-1c-3,0-4.8,1.5-5.5,4.6l-1.6,7.9Z"/>
          </g>
          <g class="cls-4">
            <path class="cls-5" d="M225.9,270.1h-4.1l3.2-16.2h4.1l-3.2,16.2ZM227.9,251.4c-.7,0-1.3-.2-1.8-.7-.4-.4-.7-1-.7-1.6s.3-1.3.8-1.8c.5-.5,1.2-.7,2-.7s1.2.2,1.7.5.7.9.7,1.6-.3,1.5-.8,2c-.6.5-1.2.7-2,.7Z"/>
            <path class="cls-5" d="M237.9,270.3h-.3c-2.3,0-4.2-.6-5.7-1.9-1.5-1.4-2.2-3.1-2.2-5.3s.9-4.9,2.7-6.7c1.8-1.8,4.1-2.7,7-2.7s3.3.4,4.6,1.1c2.2,1.2,3.4,3.3,3.4,6.3,0,2.6-.9,4.8-2.8,6.6s-4.1,2.7-6.7,2.7ZM237.9,266.9c1.6,0,2.8-.6,3.8-1.7,1-1.1,1.5-2.5,1.5-4.1s-.3-2.1-1-2.8c-.7-.7-1.7-1.1-3.1-1.1s-2.8.5-3.8,1.6-1.5,2.5-1.5,4.2.3,2.1,1,2.8c.7.7,1.7,1.1,3.1,1.1Z"/>
          </g>
        </g>
        <rect class="cls-1" x="8" y="147.4" width="270.2" height="164.5"/>
        <path class="cls-2" d="M54.1,0h180.7C257.8,0,276.5,18.7,276.5,41.7v141.6H12.4V41.7C12.4,18.7,31,0,54.1,0Z"/>
        <rect class="cls-3" x="95.2" y="144.8" width="98.4" height="10.1"/>
        <rect class="cls-3" x="106.6" y="89.8" width="10.1" height="38.2"/>
        <rect class="cls-3" x="128.4" y="89.8" width="10.1" height="38.2"/>
        <rect class="cls-3" x="150.3" y="89.8" width="10.1" height="38.2"/>
        <rect class="cls-3" x="172.1" y="89.8" width="10.1" height="38.2"/>
        <polygon class="cls-3" points="144.4 37.7 197.3 70.8 91.6 70.8 144.4 37.7"/>
      </g>
    </g>
  </g>
</svg>