<svg width="137" height="168" viewBox="0 0 137 168" fill="none" xmlns="http://www.w3.org/2000/svg">
<rect x="0.5" y="0.5" width="136" height="167" rx="7.5" fill="url(#paint0_linear_1_35)" stroke="url(#paint1_linear_1_35)"/>
<path d="M30.6122 101.688H30.9602C31.1922 101.688 31.3642 101.656 31.4762 101.592C31.5962 101.52 31.6562 101.408 31.6562 101.256V94.356C31.6562 94.204 31.5962 94.096 31.4762 94.032C31.3642 93.96 31.1922 93.924 30.9602 93.924H30.6122V93.6H34.7162C36.4442 93.6 37.3082 94.452 37.3082 96.156C37.3082 97.86 36.4442 98.712 34.7162 98.712H32.8322V101.256C32.8322 101.544 33.0642 101.688 33.5282 101.688H33.8882V102H30.6122V101.688ZM34.5002 98.232C35.0682 98.232 35.4842 98.052 35.7482 97.692C36.0202 97.324 36.1562 96.812 36.1562 96.156C36.1562 94.78 35.6042 94.092 34.5002 94.092H32.8322V98.232H34.5002ZM37.6878 101.7H37.9038C38.1038 101.7 38.2598 101.668 38.3718 101.604C38.4918 101.54 38.5518 101.444 38.5518 101.316V94.368C38.5518 94.2 38.4678 94.116 38.2998 94.116C38.2278 94.116 38.1118 94.148 37.9518 94.212L37.8678 93.936L39.3798 93.396H39.6798V101.316C39.6798 101.444 39.7358 101.54 39.8478 101.604C39.9678 101.668 40.1238 101.7 40.3158 101.7H40.5198V102H37.6878V101.7ZM42.5809 102.12C42.0929 102.12 41.7089 102.008 41.4289 101.784C41.1569 101.552 41.0209 101.24 41.0209 100.848C41.0209 100.264 41.3249 99.784 41.9329 99.408C42.5489 99.032 43.4929 98.756 44.7649 98.58V97.956C44.7649 97.548 44.6369 97.24 44.3809 97.032C44.1249 96.824 43.7849 96.72 43.3609 96.72C43.0569 96.72 42.7769 96.78 42.5209 96.9C42.2649 97.02 42.1369 97.148 42.1369 97.284C42.1369 97.332 42.1449 97.392 42.1609 97.464C42.1769 97.536 42.1849 97.592 42.1849 97.632C42.1849 97.752 42.1489 97.856 42.0769 97.944C42.0049 98.032 41.8889 98.076 41.7289 98.076C41.5929 98.076 41.4769 98.028 41.3809 97.932C41.2929 97.828 41.2489 97.684 41.2489 97.5C41.2489 97.1 41.4769 96.792 41.9329 96.576C42.3889 96.352 42.9449 96.24 43.6009 96.24C44.3369 96.24 44.9049 96.404 45.3049 96.732C45.7049 97.052 45.9049 97.492 45.9049 98.052V101.304C45.9049 101.56 45.9929 101.688 46.1689 101.688C46.2809 101.688 46.4249 101.656 46.6009 101.592V101.796C46.4809 101.9 46.3289 101.98 46.1449 102.036C45.9609 102.092 45.7729 102.12 45.5809 102.12C45.3649 102.12 45.1769 102.076 45.0169 101.988C44.8569 101.9 44.7769 101.756 44.7769 101.556V101.196C44.4569 101.548 44.1009 101.792 43.7089 101.928C43.3249 102.056 42.9489 102.12 42.5809 102.12ZM43.1329 101.64C43.4289 101.64 43.7369 101.544 44.0569 101.352C44.3849 101.16 44.6209 100.94 44.7649 100.692V98.976C43.9169 99.144 43.2649 99.388 42.8089 99.708C42.3609 100.02 42.1369 100.372 42.1369 100.764C42.1369 101.052 42.2249 101.272 42.4009 101.424C42.5769 101.568 42.8209 101.64 43.1329 101.64ZM53.7032 101.7V102H50.9072V101.7H51.0992C51.2832 101.7 51.4312 101.668 51.5432 101.604C51.6552 101.54 51.7112 101.444 51.7112 101.316V98.016C51.7112 97.592 51.6032 97.272 51.3872 97.056C51.1712 96.84 50.8632 96.732 50.4632 96.732C50.1832 96.732 49.9112 96.804 49.6472 96.948C49.3912 97.084 49.1792 97.292 49.0112 97.572C48.8432 97.852 48.7592 98.188 48.7592 98.58V101.316C48.7592 101.444 48.8152 101.54 48.9272 101.604C49.0472 101.668 49.1992 101.7 49.3832 101.7H49.5632V102H46.7672V101.7H46.9952C47.1872 101.7 47.3392 101.668 47.4512 101.604C47.5712 101.54 47.6312 101.444 47.6312 101.316V97.284C47.6312 97.116 47.5472 97.032 47.3792 97.032C47.3072 97.032 47.1912 97.064 47.0312 97.128L46.9472 96.864L48.4592 96.324H48.7592V97.26C48.9352 96.972 49.2032 96.732 49.5632 96.54C49.9312 96.34 50.3392 96.24 50.7872 96.24C51.4512 96.24 51.9592 96.388 52.3112 96.684C52.6632 96.98 52.8392 97.376 52.8392 97.872V101.316C52.8392 101.444 52.8992 101.54 53.0192 101.604C53.1392 101.668 53.2952 101.7 53.4872 101.7H53.7032ZM55.2278 98.904C55.2198 98.968 55.2158 99.064 55.2158 99.192C55.2158 99.944 55.3918 100.548 55.7438 101.004C56.1038 101.46 56.5758 101.688 57.1598 101.688C57.6878 101.688 58.1238 101.552 58.4678 101.28C58.8118 101 59.0358 100.572 59.1398 99.996H59.4878C59.4238 100.636 59.1838 101.152 58.7678 101.544C58.3518 101.928 57.7678 102.12 57.0158 102.12C56.0878 102.12 55.3638 101.868 54.8438 101.364C54.3318 100.852 54.0758 100.124 54.0758 99.18C54.0758 98.268 54.3318 97.552 54.8438 97.032C55.3638 96.504 56.0758 96.24 56.9798 96.24C57.8118 96.24 58.4438 96.464 58.8758 96.912C59.3158 97.352 59.5358 97.924 59.5358 98.628V98.904H55.2278ZM57.0158 96.696C56.5438 96.696 56.1598 96.852 55.8638 97.164C55.5678 97.476 55.3718 97.9 55.2758 98.436H58.5398C58.5238 97.988 58.3918 97.588 58.1438 97.236C57.9038 96.876 57.5278 96.696 57.0158 96.696ZM61.6318 95.268C61.4318 95.268 61.2678 95.208 61.1398 95.088C61.0198 94.96 60.9598 94.8 60.9598 94.608C60.9598 94.408 61.0198 94.248 61.1398 94.128C61.2678 94.008 61.4318 93.948 61.6318 93.948C61.8398 93.948 62.0038 94.008 62.1238 94.128C62.2518 94.248 62.3158 94.408 62.3158 94.608C62.3158 94.8 62.2518 94.96 62.1238 95.088C61.9958 95.208 61.8318 95.268 61.6318 95.268ZM59.9638 103.32C60.3158 103.176 60.5758 102.988 60.7438 102.756C60.9118 102.532 61.0158 102.276 61.0558 101.988C61.1038 101.7 61.1278 101.316 61.1278 100.836V97.284C61.1278 97.196 61.0998 97.132 61.0438 97.092C60.9958 97.052 60.9398 97.032 60.8758 97.032C60.8118 97.032 60.6918 97.064 60.5158 97.128L60.4318 96.864L61.9438 96.324H62.2438V100.776C62.2438 101.584 62.0758 102.216 61.7398 102.672C61.4038 103.136 60.8318 103.44 60.0238 103.584L59.9638 103.32ZM64.8943 102.12C64.4063 102.12 64.0223 102.008 63.7423 101.784C63.4703 101.552 63.3343 101.24 63.3343 100.848C63.3343 100.264 63.6383 99.784 64.2463 99.408C64.8623 99.032 65.8063 98.756 67.0783 98.58V97.956C67.0783 97.548 66.9503 97.24 66.6943 97.032C66.4383 96.824 66.0983 96.72 65.6743 96.72C65.3703 96.72 65.0903 96.78 64.8343 96.9C64.5783 97.02 64.4503 97.148 64.4503 97.284C64.4503 97.332 64.4583 97.392 64.4743 97.464C64.4903 97.536 64.4983 97.592 64.4983 97.632C64.4983 97.752 64.4623 97.856 64.3903 97.944C64.3183 98.032 64.2023 98.076 64.0423 98.076C63.9063 98.076 63.7903 98.028 63.6943 97.932C63.6063 97.828 63.5623 97.684 63.5623 97.5C63.5623 97.1 63.7903 96.792 64.2463 96.576C64.7023 96.352 65.2583 96.24 65.9143 96.24C66.6503 96.24 67.2183 96.404 67.6183 96.732C68.0183 97.052 68.2183 97.492 68.2183 98.052V101.304C68.2183 101.56 68.3063 101.688 68.4823 101.688C68.5943 101.688 68.7383 101.656 68.9143 101.592V101.796C68.7943 101.9 68.6423 101.98 68.4583 102.036C68.2743 102.092 68.0863 102.12 67.8943 102.12C67.6783 102.12 67.4903 102.076 67.3303 101.988C67.1703 101.9 67.0903 101.756 67.0903 101.556V101.196C66.7703 101.548 66.4143 101.792 66.0223 101.928C65.6383 102.056 65.2623 102.12 64.8943 102.12ZM65.4463 101.64C65.7423 101.64 66.0503 101.544 66.3703 101.352C66.6983 101.16 66.9343 100.94 67.0783 100.692V98.976C66.2303 99.144 65.5783 99.388 65.1223 99.708C64.6743 100.02 64.4503 100.372 64.4503 100.764C64.4503 101.052 64.5383 101.272 64.7143 101.424C64.8903 101.568 65.1343 101.64 65.4463 101.64ZM79.3166 101.7V102H76.4846V101.7H76.7006C76.8926 101.7 77.0486 101.668 77.1686 101.604C77.2886 101.54 77.3486 101.444 77.3486 101.316V98.016C77.3486 97.592 77.2486 97.272 77.0486 97.056C76.8486 96.84 76.5846 96.732 76.2566 96.732C75.8246 96.732 75.4646 96.892 75.1766 97.212C74.8886 97.532 74.7446 97.988 74.7446 98.58V101.316C74.7446 101.444 74.8046 101.54 74.9246 101.604C75.0446 101.668 75.2006 101.7 75.3926 101.7H75.5006V102H72.8846V101.7H73.0166C73.2166 101.7 73.3726 101.668 73.4846 101.604C73.6046 101.54 73.6646 101.444 73.6646 101.316V98.016C73.6646 97.592 73.5646 97.272 73.3646 97.056C73.1726 96.84 72.9086 96.732 72.5726 96.732C72.1406 96.732 71.7806 96.892 71.4926 97.212C71.2126 97.532 71.0726 97.988 71.0726 98.58V101.316C71.0726 101.444 71.1326 101.54 71.2526 101.604C71.3726 101.668 71.5286 101.7 71.7206 101.7H71.9246V102H69.0806V101.7H69.3086C69.5006 101.7 69.6526 101.668 69.7646 101.604C69.8846 101.54 69.9446 101.444 69.9446 101.316V97.284C69.9446 97.116 69.8646 97.032 69.7046 97.032C69.6246 97.032 69.5046 97.064 69.3446 97.128L69.2726 96.864L70.7726 96.324H71.0726V97.236C71.2246 96.956 71.4606 96.72 71.7806 96.528C72.1006 96.336 72.4726 96.24 72.8966 96.24C73.3926 96.24 73.7886 96.34 74.0846 96.54C74.3886 96.74 74.5886 97.012 74.6846 97.356C74.8126 97.06 75.0446 96.8 75.3806 96.576C75.7246 96.352 76.1246 96.24 76.5806 96.24C77.1966 96.24 77.6646 96.388 77.9846 96.684C78.3126 96.98 78.4766 97.376 78.4766 97.872V101.316C78.4766 101.444 78.5326 101.54 78.6446 101.604C78.7646 101.668 78.9206 101.7 79.1126 101.7H79.3166ZM80.8342 98.904C80.8262 98.968 80.8222 99.064 80.8222 99.192C80.8222 99.944 80.9982 100.548 81.3502 101.004C81.7102 101.46 82.1822 101.688 82.7662 101.688C83.2942 101.688 83.7302 101.552 84.0742 101.28C84.4182 101 84.6422 100.572 84.7462 99.996H85.0942C85.0302 100.636 84.7902 101.152 84.3742 101.544C83.9582 101.928 83.3742 102.12 82.6222 102.12C81.6942 102.12 80.9702 101.868 80.4502 101.364C79.9382 100.852 79.6822 100.124 79.6822 99.18C79.6822 98.268 79.9382 97.552 80.4502 97.032C80.9702 96.504 81.6822 96.24 82.5862 96.24C83.4182 96.24 84.0502 96.464 84.4822 96.912C84.9222 97.352 85.1422 97.924 85.1422 98.628V98.904H80.8342ZM82.6222 96.696C82.1502 96.696 81.7662 96.852 81.4702 97.164C81.1742 97.476 80.9782 97.9 80.8822 98.436H84.1462C84.1302 97.988 83.9982 97.588 83.7502 97.236C83.5102 96.876 83.1342 96.696 82.6222 96.696ZM92.4702 101.7V102H89.6742V101.7H89.8662C90.0502 101.7 90.1982 101.668 90.3102 101.604C90.4222 101.54 90.4782 101.444 90.4782 101.316V98.016C90.4782 97.592 90.3702 97.272 90.1542 97.056C89.9382 96.84 89.6302 96.732 89.2302 96.732C88.9502 96.732 88.6782 96.804 88.4142 96.948C88.1582 97.084 87.9462 97.292 87.7782 97.572C87.6102 97.852 87.5262 98.188 87.5262 98.58V101.316C87.5262 101.444 87.5822 101.54 87.6942 101.604C87.8142 101.668 87.9662 101.7 88.1502 101.7H88.3302V102H85.5342V101.7H85.7622C85.9542 101.7 86.1062 101.668 86.2182 101.604C86.3382 101.54 86.3982 101.444 86.3982 101.316V97.284C86.3982 97.116 86.3142 97.032 86.1462 97.032C86.0742 97.032 85.9582 97.064 85.7982 97.128L85.7142 96.864L87.2262 96.324H87.5262V97.26C87.7022 96.972 87.9702 96.732 88.3302 96.54C88.6982 96.34 89.1062 96.24 89.5542 96.24C90.2182 96.24 90.7262 96.388 91.0782 96.684C91.4302 96.98 91.6062 97.376 91.6062 97.872V101.316C91.6062 101.444 91.6662 101.54 91.7862 101.604C91.9062 101.668 92.0622 101.7 92.2542 101.7H92.4702ZM97.0428 100.908C97.0028 101.324 96.8348 101.632 96.5388 101.832C96.2508 102.024 95.8948 102.12 95.4708 102.12C94.8708 102.12 94.4148 101.996 94.1028 101.748C93.7908 101.5 93.6348 101.088 93.6348 100.512V96.828H92.6988V96.36H93.6348V95.328L94.4748 94.764H94.7628V96.36H96.4548V96.828H94.7628V100.488C94.7628 100.896 94.8348 101.2 94.9788 101.4C95.1308 101.592 95.3628 101.688 95.6748 101.688C95.9228 101.688 96.1348 101.628 96.3108 101.508C96.4948 101.38 96.6028 101.18 96.6348 100.908H97.0428ZM100.42 102.12C99.4523 102.12 98.7003 101.864 98.1643 101.352C97.6363 100.84 97.3723 100.116 97.3723 99.18C97.3723 98.244 97.6403 97.52 98.1763 97.008C98.7123 96.496 99.4603 96.24 100.42 96.24C101.38 96.24 102.124 96.496 102.652 97.008C103.188 97.52 103.456 98.244 103.456 99.18C103.456 100.116 103.188 100.84 102.652 101.352C102.124 101.864 101.38 102.12 100.42 102.12ZM100.42 101.664C101.012 101.664 101.48 101.448 101.824 101.016C102.168 100.584 102.34 99.972 102.34 99.18C102.34 98.396 102.168 97.792 101.824 97.368C101.48 96.936 101.012 96.72 100.42 96.72C99.8203 96.72 99.3483 96.936 99.0043 97.368C98.6603 97.792 98.4883 98.396 98.4883 99.18C98.4883 99.972 98.6603 100.584 99.0043 101.016C99.3483 101.448 99.8203 101.664 100.42 101.664ZM30.9258 115.4H31.1538C31.3458 115.4 31.5018 115.368 31.6218 115.304C31.7418 115.24 31.8018 115.144 31.8018 115.016V108.284C31.8018 108.196 31.7738 108.132 31.7178 108.092C31.6698 108.052 31.6138 108.032 31.5498 108.032C31.4858 108.032 31.3658 108.064 31.1898 108.128L31.1058 107.864L32.6178 107.324H32.9178V108.248C33.1498 107.888 33.4418 107.632 33.7938 107.48C34.1458 107.32 34.5178 107.24 34.9098 107.24C35.6938 107.24 36.3098 107.48 36.7578 107.96C37.2058 108.44 37.4298 109.132 37.4298 110.036C37.4298 111.116 37.1898 111.9 36.7098 112.388C36.2378 112.876 35.5458 113.12 34.6338 113.12C34.2578 113.12 33.9098 113.04 33.5898 112.88C33.2698 112.72 33.0458 112.524 32.9178 112.292V115.004C32.9178 115.132 32.9778 115.228 33.0978 115.292C33.2178 115.364 33.3698 115.4 33.5538 115.4H33.7578V115.7H30.9258V115.4ZM34.5618 112.664C35.1778 112.664 35.6218 112.436 35.8938 111.98C36.1738 111.516 36.3138 110.888 36.3138 110.096C36.3138 109.304 36.1698 108.712 35.8818 108.32C35.5938 107.92 35.1458 107.72 34.5378 107.72C34.3058 107.72 34.0618 107.792 33.8058 107.936C33.5578 108.072 33.3458 108.268 33.1698 108.524C33.0018 108.772 32.9178 109.06 32.9178 109.388V111.068C32.9178 111.516 33.0618 111.896 33.3498 112.208C33.6458 112.512 34.0498 112.664 34.5618 112.664ZM41.4471 107.24C41.6791 107.24 41.8751 107.284 42.0351 107.372C42.2031 107.452 42.2871 107.58 42.2871 107.756C42.2871 107.908 42.2471 108.024 42.1671 108.104C42.0951 108.184 41.9911 108.224 41.8551 108.224C41.7671 108.224 41.6951 108.208 41.6391 108.176C41.5911 108.144 41.5471 108.1 41.5071 108.044C41.4511 107.988 41.3991 107.948 41.3511 107.924C41.3031 107.892 41.2351 107.876 41.1471 107.876C40.9391 107.876 40.7391 107.952 40.5471 108.104C40.3631 108.256 40.2111 108.476 40.0911 108.764C39.9711 109.052 39.9031 109.384 39.8871 109.76V112.316C39.8871 112.444 39.9471 112.54 40.0671 112.604C40.1871 112.668 40.3431 112.7 40.5351 112.7H40.7391V113H37.8951V112.7H38.1231C38.3151 112.7 38.4671 112.668 38.5791 112.604C38.6991 112.54 38.7591 112.444 38.7591 112.316V108.284C38.7591 108.116 38.6791 108.032 38.5191 108.032C38.4391 108.032 38.3191 108.064 38.1591 108.128L38.0871 107.864L39.6231 107.324H39.8871V108.428C39.9991 108.084 40.1991 107.8 40.4871 107.576C40.7751 107.352 41.0951 107.24 41.4471 107.24ZM43.1422 109.904C43.1342 109.968 43.1302 110.064 43.1302 110.192C43.1302 110.944 43.3062 111.548 43.6582 112.004C44.0182 112.46 44.4902 112.688 45.0742 112.688C45.6022 112.688 46.0382 112.552 46.3822 112.28C46.7262 112 46.9502 111.572 47.0542 110.996H47.4022C47.3382 111.636 47.0982 112.152 46.6822 112.544C46.2662 112.928 45.6822 113.12 44.9302 113.12C44.0022 113.12 43.2782 112.868 42.7582 112.364C42.2462 111.852 41.9902 111.124 41.9902 110.18C41.9902 109.268 42.2462 108.552 42.7582 108.032C43.2782 107.504 43.9902 107.24 44.8942 107.24C45.7262 107.24 46.3582 107.464 46.7902 107.912C47.2302 108.352 47.4502 108.924 47.4502 109.628V109.904H43.1422ZM44.9302 107.696C44.4582 107.696 44.0742 107.852 43.7782 108.164C43.4822 108.476 43.2862 108.9 43.1902 109.436H46.4542C46.4382 108.988 46.3062 108.588 46.0582 108.236C45.8182 107.876 45.4422 107.696 44.9302 107.696ZM48.235 108.236C48.155 108.012 48.067 107.864 47.971 107.792C47.883 107.712 47.747 107.672 47.563 107.672H47.371V107.36H49.891V107.672H49.699C49.387 107.672 49.231 107.752 49.231 107.912C49.231 107.928 49.239 107.968 49.255 108.032L50.659 112.016L52.063 108.068C52.079 108.004 52.087 107.964 52.087 107.948C52.087 107.764 51.923 107.672 51.595 107.672H51.415V107.36H53.587V107.672H53.311C53.031 107.672 52.851 107.78 52.771 107.996L50.923 113H50.011L48.235 108.236ZM55.1701 106.268C54.9621 106.268 54.7941 106.208 54.6661 106.088C54.5461 105.96 54.4861 105.8 54.4861 105.608C54.4861 105.408 54.5461 105.248 54.6661 105.128C54.7941 105.008 54.9621 104.948 55.1701 104.948C55.3701 104.948 55.5301 105.008 55.6501 105.128C55.7781 105.248 55.8421 105.408 55.8421 105.608C55.8421 105.8 55.7781 105.96 55.6501 106.088C55.5301 106.208 55.3701 106.268 55.1701 106.268ZM53.8381 112.7H54.0661C54.2581 112.7 54.4101 112.668 54.5221 112.604C54.6421 112.54 54.7021 112.444 54.7021 112.316V108.272C54.7021 108.096 54.6181 108.008 54.4501 108.008C54.4101 108.008 54.3501 108.024 54.2701 108.056C54.1901 108.08 54.1341 108.096 54.1021 108.104L54.0181 107.828L55.5301 107.3H55.8301V112.316C55.8301 112.444 55.8861 112.54 55.9981 112.604C56.1181 112.668 56.2741 112.7 56.4661 112.7H56.6941V113H53.8381V112.7ZM59.7057 113.12C58.9137 113.12 58.2897 112.876 57.8337 112.388C57.3857 111.9 57.1617 111.124 57.1617 110.06C57.1617 109.452 57.2697 108.936 57.4857 108.512C57.7097 108.088 58.0097 107.772 58.3857 107.564C58.7697 107.348 59.2057 107.24 59.6937 107.24C60.5817 107.24 61.2337 107.52 61.6497 108.08V105.368C61.6497 105.2 61.5697 105.116 61.4097 105.116C61.3297 105.116 61.2097 105.148 61.0497 105.212L60.9777 104.936L62.4777 104.396H62.7777V112.172C62.7777 112.316 62.8177 112.424 62.8977 112.496C62.9857 112.56 63.1137 112.592 63.2817 112.592H63.5577V112.868L61.8537 113.048L61.7937 112.112C61.3937 112.784 60.6977 113.12 59.7057 113.12ZM60.0177 112.664C60.3537 112.664 60.6457 112.588 60.8937 112.436C61.1417 112.276 61.3297 112.068 61.4577 111.812C61.5937 111.548 61.6617 111.272 61.6617 110.984V109.16C61.6617 108.888 61.5817 108.644 61.4217 108.428C61.2697 108.204 61.0737 108.032 60.8337 107.912C60.5937 107.784 60.3457 107.72 60.0897 107.72C59.4977 107.72 59.0457 107.924 58.7337 108.332C58.4297 108.732 58.2777 109.32 58.2777 110.096C58.2777 111.808 58.8577 112.664 60.0177 112.664ZM65.0572 109.904C65.0492 109.968 65.0452 110.064 65.0452 110.192C65.0452 110.944 65.2212 111.548 65.5732 112.004C65.9332 112.46 66.4052 112.688 66.9892 112.688C67.5172 112.688 67.9532 112.552 68.2972 112.28C68.6412 112 68.8652 111.572 68.9692 110.996H69.3172C69.2532 111.636 69.0132 112.152 68.5972 112.544C68.1812 112.928 67.5972 113.12 66.8452 113.12C65.9172 113.12 65.1932 112.868 64.6732 112.364C64.1612 111.852 63.9052 111.124 63.9052 110.18C63.9052 109.268 64.1612 108.552 64.6732 108.032C65.1932 107.504 65.9052 107.24 66.8092 107.24C67.6412 107.24 68.2732 107.464 68.7052 107.912C69.1452 108.352 69.3652 108.924 69.3652 109.628V109.904H65.0572ZM66.8452 107.696C66.3732 107.696 65.9892 107.852 65.6932 108.164C65.3972 108.476 65.2012 108.9 65.1052 109.436H68.3692C68.3532 108.988 68.2212 108.588 67.9732 108.236C67.7332 107.876 67.3572 107.696 66.8452 107.696ZM76.6933 112.7V113H73.8973V112.7H74.0893C74.2733 112.7 74.4213 112.668 74.5333 112.604C74.6453 112.54 74.7013 112.444 74.7013 112.316V109.016C74.7013 108.592 74.5933 108.272 74.3773 108.056C74.1613 107.84 73.8533 107.732 73.4533 107.732C73.1733 107.732 72.9013 107.804 72.6373 107.948C72.3813 108.084 72.1693 108.292 72.0013 108.572C71.8333 108.852 71.7493 109.188 71.7493 109.58V112.316C71.7493 112.444 71.8053 112.54 71.9173 112.604C72.0373 112.668 72.1893 112.7 72.3733 112.7H72.5533V113H69.7573V112.7H69.9853C70.1773 112.7 70.3293 112.668 70.4413 112.604C70.5613 112.54 70.6213 112.444 70.6213 112.316V108.284C70.6213 108.116 70.5373 108.032 70.3693 108.032C70.2973 108.032 70.1813 108.064 70.0213 108.128L69.9373 107.864L71.4493 107.324H71.7493V108.26C71.9253 107.972 72.1933 107.732 72.5533 107.54C72.9213 107.34 73.3293 107.24 73.7773 107.24C74.4413 107.24 74.9493 107.388 75.3013 107.684C75.6533 107.98 75.8293 108.376 75.8293 108.872V112.316C75.8293 112.444 75.8893 112.54 76.0093 112.604C76.1293 112.668 76.2853 112.7 76.4773 112.7H76.6933ZM79.9698 113.12C79.0498 113.12 78.3338 112.868 77.8218 112.364C77.3178 111.852 77.0658 111.124 77.0658 110.18C77.0658 109.268 77.3218 108.552 77.8338 108.032C78.3538 107.504 79.0738 107.24 79.9938 107.24C80.3778 107.24 80.7458 107.296 81.0978 107.408C81.4498 107.52 81.7378 107.712 81.9618 107.984L82.0818 107.24H82.3818V109.232H82.0938C82.0138 108.72 81.8138 108.336 81.4938 108.08C81.1818 107.824 80.7858 107.696 80.3058 107.696C79.6338 107.696 79.1138 107.928 78.7458 108.392C78.3858 108.848 78.2058 109.448 78.2058 110.192C78.2058 110.944 78.3778 111.548 78.7218 112.004C79.0738 112.46 79.5378 112.688 80.1138 112.688C80.6418 112.688 81.0738 112.552 81.4098 112.28C81.7458 112 81.9618 111.572 82.0578 110.996H82.4178C82.3538 111.636 82.1178 112.152 81.7098 112.544C81.3018 112.928 80.7218 113.12 79.9698 113.12ZM84.2513 106.268C84.0433 106.268 83.8753 106.208 83.7473 106.088C83.6273 105.96 83.5673 105.8 83.5673 105.608C83.5673 105.408 83.6273 105.248 83.7473 105.128C83.8753 105.008 84.0433 104.948 84.2513 104.948C84.4513 104.948 84.6113 105.008 84.7313 105.128C84.8593 105.248 84.9233 105.408 84.9233 105.608C84.9233 105.8 84.8593 105.96 84.7313 106.088C84.6113 106.208 84.4513 106.268 84.2513 106.268ZM82.9193 112.7H83.1473C83.3393 112.7 83.4913 112.668 83.6033 112.604C83.7233 112.54 83.7833 112.444 83.7833 112.316V108.272C83.7833 108.096 83.6993 108.008 83.5313 108.008C83.4913 108.008 83.4313 108.024 83.3513 108.056C83.2713 108.08 83.2153 108.096 83.1833 108.104L83.0993 107.828L84.6113 107.3H84.9113V112.316C84.9113 112.444 84.9673 112.54 85.0793 112.604C85.1993 112.668 85.3553 112.7 85.5473 112.7H85.7753V113H82.9193V112.7ZM87.8749 106.136L89.2549 104.852C89.2629 104.844 89.3149 104.796 89.4109 104.708C89.5069 104.62 89.6309 104.576 89.7829 104.576C89.9109 104.576 90.0109 104.612 90.0829 104.684C90.1549 104.756 90.1909 104.84 90.1909 104.936C90.1909 105.12 90.0549 105.288 89.7829 105.44L88.0789 106.436L87.8749 106.136ZM87.7789 113.12C87.2909 113.12 86.9069 113.008 86.6269 112.784C86.3549 112.552 86.2189 112.24 86.2189 111.848C86.2189 111.264 86.5229 110.784 87.1309 110.408C87.7469 110.032 88.6909 109.756 89.9629 109.58V108.956C89.9629 108.548 89.8349 108.24 89.5789 108.032C89.3229 107.824 88.9829 107.72 88.5589 107.72C88.2549 107.72 87.9749 107.78 87.7189 107.9C87.4629 108.02 87.3349 108.148 87.3349 108.284C87.3349 108.332 87.3429 108.392 87.3589 108.464C87.3749 108.536 87.3829 108.592 87.3829 108.632C87.3829 108.752 87.3469 108.856 87.2749 108.944C87.2029 109.032 87.0869 109.076 86.9269 109.076C86.7909 109.076 86.6749 109.028 86.5789 108.932C86.4909 108.828 86.4469 108.684 86.4469 108.5C86.4469 108.1 86.6749 107.792 87.1309 107.576C87.5869 107.352 88.1429 107.24 88.7989 107.24C89.5349 107.24 90.1029 107.404 90.5029 107.732C90.9029 108.052 91.1029 108.492 91.1029 109.052V112.304C91.1029 112.56 91.1909 112.688 91.3669 112.688C91.4789 112.688 91.6229 112.656 91.7989 112.592V112.796C91.6789 112.9 91.5269 112.98 91.3429 113.036C91.1589 113.092 90.9709 113.12 90.7789 113.12C90.5629 113.12 90.3749 113.076 90.2149 112.988C90.0549 112.9 89.9749 112.756 89.9749 112.556V112.196C89.6549 112.548 89.2989 112.792 88.9069 112.928C88.5229 113.056 88.1469 113.12 87.7789 113.12ZM88.3309 112.64C88.6269 112.64 88.9349 112.544 89.2549 112.352C89.5829 112.16 89.8189 111.94 89.9629 111.692V109.976C89.1149 110.144 88.4629 110.388 88.0069 110.708C87.5589 111.02 87.3349 111.372 87.3349 111.764C87.3349 112.052 87.4229 112.272 87.5989 112.424C87.7749 112.568 88.0189 112.64 88.3309 112.64ZM95.6253 107.24C95.8573 107.24 96.0533 107.284 96.2133 107.372C96.3813 107.452 96.4653 107.58 96.4653 107.756C96.4653 107.908 96.4253 108.024 96.3453 108.104C96.2733 108.184 96.1693 108.224 96.0333 108.224C95.9453 108.224 95.8733 108.208 95.8173 108.176C95.7693 108.144 95.7253 108.1 95.6853 108.044C95.6293 107.988 95.5773 107.948 95.5293 107.924C95.4813 107.892 95.4133 107.876 95.3253 107.876C95.1173 107.876 94.9173 107.952 94.7253 108.104C94.5413 108.256 94.3893 108.476 94.2693 108.764C94.1493 109.052 94.0813 109.384 94.0653 109.76V112.316C94.0653 112.444 94.1253 112.54 94.2453 112.604C94.3653 112.668 94.5213 112.7 94.7133 112.7H94.9173V113H92.0733V112.7H92.3013C92.4933 112.7 92.6453 112.668 92.7573 112.604C92.8773 112.54 92.9373 112.444 92.9373 112.316V108.284C92.9373 108.116 92.8573 108.032 92.6973 108.032C92.6173 108.032 92.4973 108.064 92.3373 108.128L92.2653 107.864L93.8013 107.324H94.0653V108.428C94.1773 108.084 94.3773 107.8 94.6653 107.576C94.9533 107.352 95.2733 107.24 95.6253 107.24ZM97.9688 106.268C97.7608 106.268 97.5928 106.208 97.4648 106.088C97.3448 105.96 97.2848 105.8 97.2848 105.608C97.2848 105.408 97.3448 105.248 97.4648 105.128C97.5928 105.008 97.7608 104.948 97.9688 104.948C98.1688 104.948 98.3288 105.008 98.4488 105.128C98.5768 105.248 98.6408 105.408 98.6408 105.608C98.6408 105.8 98.5768 105.96 98.4488 106.088C98.3288 106.208 98.1688 106.268 97.9688 106.268ZM96.6368 112.7H96.8648C97.0568 112.7 97.2088 112.668 97.3208 112.604C97.4408 112.54 97.5008 112.444 97.5008 112.316V108.272C97.5008 108.096 97.4168 108.008 97.2488 108.008C97.2088 108.008 97.1488 108.024 97.0688 108.056C96.9888 108.08 96.9328 108.096 96.9008 108.104L96.8168 107.828L98.3288 107.3H98.6288V112.316C98.6288 112.444 98.6848 112.54 98.7968 112.604C98.9168 112.668 99.0728 112.7 99.2648 112.7H99.4928V113H96.6368V112.7ZM102.972 113.12C102.004 113.12 101.252 112.864 100.716 112.352C100.188 111.84 99.9244 111.116 99.9244 110.18C99.9244 109.244 100.192 108.52 100.728 108.008C101.264 107.496 102.012 107.24 102.972 107.24C103.932 107.24 104.676 107.496 105.204 108.008C105.74 108.52 106.008 109.244 106.008 110.18C106.008 111.116 105.74 111.84 105.204 112.352C104.676 112.864 103.932 113.12 102.972 113.12ZM102.972 112.664C103.564 112.664 104.032 112.448 104.376 112.016C104.72 111.584 104.892 110.972 104.892 110.18C104.892 109.396 104.72 108.792 104.376 108.368C104.032 107.936 103.564 107.72 102.972 107.72C102.372 107.72 101.9 107.936 101.556 108.368C101.212 108.792 101.04 109.396 101.04 110.18C101.04 110.972 101.212 111.584 101.556 112.016C101.9 112.448 102.372 112.664 102.972 112.664Z" fill="#FFF2E0"/>
<path fill-rule="evenodd" clip-rule="evenodd" d="M71.0145 55.9085C70.2822 55.9085 69.5617 56.0929 68.9194 56.4447C68.2771 56.7965 67.7336 57.3044 67.3392 57.9216C67.0096 58.4371 66.3928 58.6913 65.7959 58.5574C65.0792 58.3967 64.3335 58.4195 63.628 58.6239C62.9225 58.8283 62.28 59.2076 61.7601 59.7266C61.2402 60.2457 60.8597 60.8876 60.6539 61.5929C60.4481 62.2982 60.4236 63.0441 60.5828 63.7614C60.7157 64.3602 60.4589 64.9779 59.9409 65.3059C59.3192 65.6995 58.8071 66.244 58.4523 66.8887C58.0974 67.5334 57.9113 68.2575 57.9113 68.9934C57.9113 69.7295 58.0974 70.4535 58.4523 71.0982C58.8071 71.7429 59.3192 72.2873 59.9409 72.681C60.4589 73.009 60.7157 73.6266 60.5828 74.2254C60.4236 74.9427 60.4481 75.6886 60.6539 76.394C60.8597 77.0994 61.2402 77.7411 61.7601 78.2602C62.28 78.7792 62.9225 79.1586 63.628 79.3629C64.3335 79.5673 65.0792 79.5902 65.7959 79.4294C66.394 79.2953 67.012 79.5507 67.341 80.0682C67.7349 80.6877 68.2788 81.1977 68.9223 81.5512C69.5656 81.9045 70.2877 82.0898 71.0218 82.0898C71.7558 82.0898 72.4779 81.9045 73.1214 81.5512C73.7647 81.1977 74.3086 80.6877 74.7026 80.0682C75.031 79.5518 75.6474 79.2962 76.2446 79.4288C76.9616 79.588 77.7073 79.5635 78.4124 79.3577C79.1175 79.1519 79.7593 78.7712 80.2779 78.2512C80.7968 77.731 81.176 77.0883 81.3803 76.3825C81.5846 75.6767 81.6075 74.9308 81.4468 74.2139C81.313 73.6168 81.567 72.9997 82.0824 72.6701C82.6994 72.2754 83.207 71.7318 83.5588 71.0893C83.9105 70.4468 84.0948 69.726 84.0948 68.9934C84.0948 68.2609 83.9105 67.5401 83.5588 66.8976C83.207 66.255 82.6994 65.7114 82.0824 65.3168C81.5667 64.987 81.3127 64.3695 81.4471 63.7721C81.6083 63.0541 81.5857 62.3069 81.3808 61.6C81.176 60.8931 80.7958 60.2495 80.2755 59.7291C79.7553 59.2087 79.112 58.8283 78.4053 58.6234C77.6987 58.4185 76.9517 58.3958 76.234 58.5572C75.6368 58.6915 75.0195 58.4374 74.6898 57.9216C74.2953 57.3044 73.7519 56.7965 73.1096 56.4447C72.4673 56.0929 71.7468 55.9085 71.0145 55.9085ZM67.5227 53.8929C68.5932 53.3065 69.794 52.9992 71.0145 52.9992C72.2349 52.9992 73.4358 53.3065 74.5063 53.8929C75.2904 54.3223 75.9859 54.8912 76.5603 55.569C77.4509 55.4915 78.3511 55.5786 79.215 55.8291C80.3927 56.1706 81.465 56.8045 82.3321 57.6719C83.199 58.5393 83.8327 59.6119 84.1742 60.79C84.4246 61.6543 84.5117 62.5547 84.4342 63.4456C85.1117 64.0203 85.6805 64.7161 86.1096 65.5003C86.6958 66.5713 87.0031 67.7725 87.0031 68.9934C87.0031 70.2143 86.6958 71.4156 86.1096 72.4865C85.6804 73.271 85.1115 73.9669 84.4337 74.5416C84.5107 75.4307 84.4236 76.3293 84.1737 77.1919C83.8333 78.3681 83.2013 79.4393 82.3366 80.3061C81.4719 81.173 80.4024 81.8074 79.2273 82.1505C78.3656 82.402 77.4677 82.491 76.5788 82.4161C76.0041 83.0975 75.3071 83.6696 74.521 84.1013C73.4487 84.6903 72.2451 84.9992 71.0218 84.9992C69.7984 84.9992 68.5948 84.6903 67.5225 84.1013C66.737 83.6699 66.0406 83.0984 65.4661 82.4176C64.578 82.4942 63.6805 82.407 62.819 82.1573C61.6431 81.8168 60.5723 81.1846 59.7058 80.3195C58.8393 79.4546 58.2051 78.3847 57.8621 77.2092C57.6108 76.3479 57.5218 75.4504 57.5964 74.5618C56.9125 73.987 56.3381 73.289 55.9046 72.5013C55.3132 71.4268 55.0031 70.2201 55.0031 68.9934C55.0031 67.7667 55.3132 66.5601 55.9046 65.4855C56.3381 64.6978 56.9125 63.9999 57.5964 63.425C57.5218 62.5365 57.6108 61.639 57.8621 60.7777C58.2051 59.6022 58.8393 58.5323 59.7058 57.6673C60.5723 56.8023 61.6431 56.1701 62.819 55.8295C63.6812 55.5796 64.5795 55.4925 65.4683 55.5694C66.0428 54.8915 66.7385 54.3224 67.5227 53.8929Z" fill="#EBC894"/>
<path fill-rule="evenodd" clip-rule="evenodd" d="M65.0215 62.9983C65.8396 62.1799 66.9492 61.7202 68.1062 61.7202H76.831C77.6342 61.7202 78.2852 62.3714 78.2852 63.1748C78.2852 63.9782 77.6342 64.6295 76.831 64.6295H68.1062C67.7206 64.6295 67.3507 64.7827 67.078 65.0555C66.8053 65.3283 66.6521 65.6983 66.6521 66.0841C66.6521 66.4699 66.8053 66.8399 67.078 67.1127C67.3507 67.3854 67.7206 67.5388 68.1062 67.5388H73.9228C75.0798 67.5388 76.1893 67.9986 77.0074 68.817C77.8255 69.6354 78.2852 70.7454 78.2852 71.9027C78.2852 73.0602 77.8255 74.1701 77.0074 74.9885C76.1893 75.8069 75.0798 76.2667 73.9228 76.2667H65.1979C64.3948 76.2667 63.7438 75.6155 63.7438 74.8121C63.7438 74.0086 64.3948 73.3574 65.1979 73.3574H73.9228C74.3084 73.3574 74.6783 73.2041 74.951 72.9313C75.2238 72.6586 75.3769 72.2885 75.3769 71.9027C75.3769 71.517 75.2238 71.1469 74.951 70.8741C74.6783 70.6014 74.3084 70.4481 73.9228 70.4481H68.1062C66.9492 70.4481 65.8396 69.9883 65.0215 69.1699C64.2034 68.3515 63.7438 67.2416 63.7438 66.0841C63.7438 64.9267 64.2034 63.8167 65.0215 62.9983Z" fill="#EBC894"/>
<path fill-rule="evenodd" clip-rule="evenodd" d="M71.0145 58.8108C71.8176 58.8108 72.4686 59.4621 72.4686 60.2655V77.7214C72.4686 78.5248 71.8176 79.176 71.0145 79.176C70.2114 79.176 69.5603 78.5248 69.5603 77.7214V60.2655C69.5603 59.4621 70.2114 58.8108 71.0145 58.8108Z" fill="#EBC894"/>
<defs>
<linearGradient id="paint0_linear_1_35" x1="3.42386e-07" y1="-8.5" x2="156.5" y2="208" gradientUnits="userSpaceOnUse">
<stop stop-color="#03131C"/>
<stop offset="0.427976" stop-color="#082331"/>
<stop offset="0.975364" stop-color="#03131C"/>
</linearGradient>
<linearGradient id="paint1_linear_1_35" x1="6" y1="-8" x2="143.5" y2="206.5" gradientUnits="userSpaceOnUse">
<stop stop-color="#EBC894"/>
<stop offset="0.244944" stop-color="#EBC894" stop-opacity="0"/>
<stop offset="0.51282" stop-color="#EBC894" stop-opacity="0"/>
<stop offset="1" stop-color="#EBC894"/>
</linearGradient>
</defs>
</svg>
