<?xml version="1.0" encoding="UTF-8"?>
<svg xmlns="http://www.w3.org/2000/svg" version="1.1" xmlns:xlink="http://www.w3.org/1999/xlink" viewBox="0 0 286.2 315.8">
  <defs>
    <style>
      .cls-1 {
        stroke: url(#Gradiente_sem_nome);
        stroke-width: 16px;
      }

      .cls-1, .cls-2 {
        fill: none;
        stroke-miterlimit: 10;
      }

      .cls-3 {
        fill: url(#Gradiente_sem_nome_2);
      }

      .cls-4 {
        isolation: isolate;
      }

      .cls-5 {
        fill: #ebc893;
      }

      .cls-2 {
        stroke: #224564;
        stroke-width: 7px;
      }
    </style>
    <radialGradient id="Gradiente_sem_nome" data-name="Gradiente sem nome" cx="207" cy="60.1" fx="207" fy="60.1" r="118.7" gradientTransform="translate(-53.6 296.9) scale(.9 -1.2)" gradientUnits="userSpaceOnUse">
      <stop offset=".3" stop-color="#0f5f8d"/>
      <stop offset="1" stop-color="#05131b"/>
    </radialGradient>
    <radialGradient id="Gradiente_sem_nome_2" data-name="Gradiente sem nome 2" cx="290.6" cy="255.7" fx="290.6" fy="255.7" r="176.5" gradientTransform="translate(-119.4 306.6) scale(.9 -.9)" gradientUnits="userSpaceOnUse">
      <stop offset="0" stop-color="#0f5f8d"/>
      <stop offset="1" stop-color="#05131b"/>
    </radialGradient>
  </defs>
  <!-- Generator: Adobe Illustrator 28.7.1, SVG Export Plug-In . SVG Version: 1.2.0 Build 142)  -->
  <g>
    <g id="Camada_2">
      <g id="Camada_1-2">
        <g>
          <g class="cls-4">
            <g class="cls-4">
              <path class="cls-5" d="M74.8,234.5c-1.5,0-3-.2-4.5-.6-1.5-.4-2.8-1-3.8-1.8l1.8-3.3c1,.8,2.1,1.4,3.3,1.7,1.2.4,2.4.6,3.6.6s2.5-.2,3.4-.7c.9-.5,1.4-1.2,1.4-2.2s-.2-.9-.6-1.3c-.4-.3-1-.7-1.7-.9-.7-.3-1.5-.5-2.4-.8-.9-.3-1.8-.6-2.7-.9-.9-.3-1.7-.9-2.3-1.6s-.9-1.7-.9-3,.4-2.8,1.2-3.8c.8-1,1.9-1.8,3.4-2.4s3-.8,4.8-.8c2.7,0,5.1.6,7.1,1.8l-1.6,3.3c-1.7-1.1-3.6-1.7-5.7-1.7s-2.5.2-3.5.7c-.9.5-1.4,1.2-1.4,2.3,0,.8.4,1.3,1,1.7.6.3,1.4.6,2.5.9,1.2.3,2.6.7,4.1,1.4,2.1.8,3.1,2.3,3.1,4.4s-.4,2.8-1.3,3.9-2,1.8-3.4,2.4c-1.4.5-3,.8-4.8.8Z"/>
              <path class="cls-5" d="M93.7,234.4h-.3c-2.3,0-4.2-.6-5.7-1.9-1.5-1.4-2.2-3.1-2.2-5.3s.9-4.9,2.7-6.7c1.8-1.8,4.1-2.7,7-2.7s3.3.4,4.6,1.1c2.2,1.2,3.4,3.3,3.4,6.3,0,2.6-.9,4.8-2.8,6.6s-4.1,2.7-6.7,2.7ZM93.7,231c1.6,0,2.8-.6,3.8-1.7,1-1.1,1.5-2.5,1.5-4.1s-.3-2.1-1-2.8c-.7-.7-1.7-1.1-3.1-1.1s-2.8.5-3.8,1.6-1.5,2.5-1.5,4.2.3,2.1,1,2.8c.7.7,1.7,1.1,3.1,1.1Z"/>
              <path class="cls-5" d="M112,234.4c-1.9,0-3.4-.4-4.7-1.1-2.2-1.3-3.3-3.4-3.4-6.3,0-1.6.4-3.1,1.2-4.6s1.9-2.5,3.4-3.4c1.4-.9,3.1-1.3,4.9-1.3h.2c3.4,0,5.8,1.3,7.1,3.9l-3.5,1.8c-.7-1.5-2-2.2-3.9-2.2s-2.8.5-3.8,1.6-1.5,2.5-1.5,4.2.3,2.1,1,2.8c.7.7,1.7,1.1,3.1,1.1s3.3-.7,4.3-2.2l3,2c-.8,1.2-1.9,2.2-3.3,2.8-1.3.6-2.7.9-4.2.9Z"/>
              <path class="cls-5" d="M124.2,234.2h-4.1l3.2-16.2h4.1l-3.2,16.2ZM126.2,215.5c-.7,0-1.3-.2-1.8-.7-.4-.4-.7-1-.7-1.6s.3-1.3.8-1.8c.5-.5,1.2-.7,2-.7s1.2.2,1.7.5c.5.4.7.9.7,1.6s-.3,1.5-.8,2c-.6.5-1.2.7-2,.7Z"/>
              <path class="cls-5" d="M136.1,234.4c-2.4,0-4.3-.6-5.8-1.8-1.5-1.2-2.3-3-2.3-5.3s.9-5,2.6-6.8c1.7-1.8,4-2.7,6.8-2.7s2.7.3,3.9.8c1.1.5,2,1.3,2.7,2.4.7,1,1,2.3,1,3.9s0,1.5-.2,2.4h-12.7c.1,2.5,1.6,3.8,4.5,3.8s3.3-.5,4.6-1.6l1.7,2.8c-1.9,1.5-4.1,2.2-6.7,2.2ZM141.2,224.7h0c0-1.3-.4-2.2-1.1-2.8s-1.7-.9-2.8-.9-2.4.4-3.2,1.1-1.4,1.6-1.7,2.7h8.8Z"/>
            </g>
            <g class="cls-4">
              <path class="cls-5" d="M151.9,234.4c-1.2,0-2.3-.3-3.2-1-.9-.6-1.4-1.7-1.5-3.2,0-.5,0-1,.1-1.6l1.5-7.4h-2.6l.6-3.2h2.6l.8-3.6h4.1l-.8,3.6h4.2l-.6,3.2h-4.2l-1.5,7.4c0,.2,0,.5,0,.7,0,1.2.6,1.8,1.8,1.8s1.4-.2,2.1-.6l.7,3c-1,.6-2.4,1-4,1Z"/>
            </g>
            <g class="cls-4">
              <path class="cls-5" d="M163,234.4c-1.9,0-3.3-.4-4.4-1.3-1.1-.9-1.6-2.1-1.6-3.5s.5-2.6,1.6-3.5,2.8-1.3,5.2-1.3h5.5c0-.1,0-.3,0-.4,0,0,0-.2,0-.3,0-.8-.3-1.5-1-2-.6-.6-1.6-.9-3-.9s-1.7.1-2.6.4-1.6.7-2.3,1.2l-1.5-2.9c.9-.6,1.9-1.1,3.1-1.5,1.2-.3,2.5-.5,3.8-.5,2.5,0,4.4.6,5.9,1.7,1.2.9,1.8,2.2,1.8,3.8s0,.9-.2,1.5l-1.9,9.4h-3.9l.4-2c-.9,1.5-2.6,2.2-5,2.2ZM163.9,231.6c1.7,0,3.2-.8,4.4-2.4l.4-1.9h-4.6c-2.1,0-3.2.7-3.2,2.1s.3,1.3.8,1.7c.6.3,1.3.5,2.1.5ZM166.9,215.8h-3.5l4.6-4.2h4.7l-5.8,4.2Z"/>
            </g>
            <g class="cls-4">
              <path class="cls-5" d="M178.4,234.2h-4.1l3.2-16.2h3.9l-.4,2.1c1.3-1.5,3.4-2.3,6.2-2.3l-.8,3.8h-1c-3,0-4.8,1.5-5.5,4.6l-1.6,7.9Z"/>
            </g>
            <g class="cls-4">
              <path class="cls-5" d="M189.9,234.2h-4.1l3.2-16.2h4.1l-3.2,16.2ZM191.9,215.5c-.7,0-1.3-.2-1.8-.7-.4-.4-.7-1-.7-1.6s.3-1.3.8-1.8c.5-.5,1.2-.7,2-.7s1.2.2,1.7.5.7.9.7,1.6-.3,1.5-.8,2c-.6.5-1.2.7-2,.7Z"/>
              <path class="cls-5" d="M201.9,234.4h-.3c-2.3,0-4.2-.6-5.7-1.9-1.5-1.4-2.2-3.1-2.2-5.3s.9-4.9,2.7-6.7c1.8-1.8,4.1-2.7,7-2.7s3.3.4,4.6,1.1c2.2,1.2,3.4,3.3,3.4,6.3,0,2.6-.9,4.8-2.8,6.6s-4.1,2.7-6.7,2.7ZM201.9,231c1.6,0,2.8-.6,3.8-1.7,1-1.1,1.5-2.5,1.5-4.1s-.3-2.1-1-2.8c-.7-.7-1.7-1.1-3.1-1.1s-2.8.5-3.8,1.6-1.5,2.5-1.5,4.2.3,2.1,1,2.8c.7.7,1.7,1.1,3.1,1.1Z"/>
            </g>
            <g class="cls-4">
              <path class="cls-5" d="M86.9,266.3c-2.4,0-4.3-.6-5.8-1.8-1.5-1.2-2.3-3-2.3-5.3s.9-5,2.6-6.8c1.7-1.8,4-2.7,6.8-2.7s2.7.3,3.9.8c1.1.5,2,1.3,2.7,2.4.7,1,1,2.3,1,3.9s0,1.5-.2,2.4h-12.7c.1,2.5,1.6,3.8,4.5,3.8s3.3-.5,4.6-1.6l1.7,2.8c-1.9,1.5-4.1,2.2-6.7,2.2ZM91.9,256.6h0c0-1.3-.4-2.2-1.1-2.8s-1.7-.9-2.8-.9-2.4.4-3.2,1.1-1.4,1.6-1.7,2.7h8.8Z"/>
              <path class="cls-5" d="M127.1,266.1h-4l2.7-13.5-8.7,11.1h-1.9l-4.7-11.3-2.7,13.7h-4l4.2-21.2h3.5l5.5,13.8,10.8-13.8h3.7l-4.2,21.2Z"/>
              <path class="cls-5" d="M137,266.3c-1.9,0-3.3-.4-4.4-1.3-1.1-.9-1.6-2.1-1.6-3.5s.5-2.6,1.6-3.5c1.1-.9,2.8-1.3,5.2-1.3h5.5c0-.1,0-.3,0-.4,0,0,0-.2,0-.3,0-.8-.3-1.5-1-2-.6-.6-1.6-.9-3-.9s-1.7.1-2.6.4-1.6.7-2.3,1.2l-1.5-2.9c.9-.6,1.9-1.1,3.1-1.5s2.5-.5,3.7-.5c2.5,0,4.4.6,5.9,1.7,1.2.9,1.8,2.2,1.8,3.8s0,.9-.2,1.5l-1.9,9.4h-3.9l.4-2c-.9,1.5-2.6,2.2-5,2.2ZM137.9,263.5c1.7,0,3.2-.8,4.4-2.4l.4-1.9h-4.6c-2.1,0-3.2.7-3.2,2.1s.3,1.3.8,1.7c.6.3,1.3.5,2.1.5Z"/>
            </g>
            <g class="cls-4">
              <path class="cls-5" d="M152.6,266.1h-4.1l3.2-16.2h3.9l-.4,2.1c1.3-1.5,3.4-2.3,6.2-2.3l-.8,3.8h-1c-3,0-4.8,1.5-5.5,4.6l-1.6,7.9Z"/>
            </g>
            <g class="cls-4">
              <path class="cls-5" d="M168.2,266.3c-1.9,0-3.4-.4-4.7-1.1-2.2-1.3-3.3-3.4-3.4-6.3,0-1.6.4-3.1,1.2-4.6s1.9-2.5,3.4-3.4c1.4-.9,3.1-1.3,4.9-1.3h.2c3.4,0,5.8,1.3,7.1,3.9l-3.5,1.8c-.7-1.5-2-2.2-3.9-2.2s-2.8.5-3.8,1.6-1.5,2.5-1.5,4.2.3,2.1,1,2.8,1.7,1.1,3.1,1.1,3.3-.7,4.3-2.2l3,2c-.8,1.2-1.9,2.2-3.3,2.8-1.3.6-2.7.9-4.2.9Z"/>
            </g>
            <g class="cls-4">
              <path class="cls-5" d="M182.2,266.3c-1.9,0-3.3-.4-4.4-1.3-1.1-.9-1.6-2.1-1.6-3.5s.5-2.6,1.6-3.5c1.1-.9,2.8-1.3,5.2-1.3h5.5c0-.1,0-.3,0-.4,0,0,0-.2,0-.3,0-.8-.3-1.5-1-2-.6-.6-1.6-.9-3-.9s-1.7.1-2.6.4-1.6.7-2.3,1.2l-1.5-2.9c.9-.6,1.9-1.1,3.1-1.5,1.2-.3,2.5-.5,3.7-.5,2.5,0,4.4.6,5.9,1.7,1.2.9,1.8,2.2,1.8,3.8s0,.9-.2,1.5l-1.9,9.4h-3.9l.4-2c-.9,1.5-2.6,2.2-5,2.2ZM183.1,263.5c1.7,0,3.2-.8,4.4-2.4l.4-1.9h-4.6c-2.1,0-3.2.7-3.2,2.1s.3,1.3.8,1.7,1.3.5,2.1.5Z"/>
              <path class="cls-5" d="M199.1,266.3c-2.8,0-5.1-.6-6.8-1.7l1.6-3.1c.8.5,1.7.9,2.7,1.2,1,.3,2,.4,2.9.4,2.4,0,3.5-.6,3.5-1.8s-.2-.8-.5-.9c-.4-.2-.9-.3-1.6-.4-1-.1-2.3-.5-3.9-1.1-.7-.2-1.4-.6-1.9-1.2s-.8-1.4-.8-2.4c0-1.8.7-3.1,2.2-4.1s3.3-1.5,5.7-1.5,4,.5,5.9,1.4l-1.5,3.1c-1.4-.8-3-1.2-4.8-1.2s-2.1.2-2.6.5-.8.8-.8,1.3.2.8.5,1c.3.2.9.3,1.6.4.9.1,2.2.5,3.9,1.1,1.8.6,2.7,1.8,2.7,3.6s-.4,2.3-1.1,3.1c-.7.8-1.7,1.4-2.9,1.8-1.2.4-2.5.6-4,.6Z"/>
            </g>
          </g>
          <rect class="cls-1" x="8" y="143.3" width="270.2" height="164.5"/>
          <path class="cls-3" d="M55,0h176C253.4,0,271.6,18.2,271.6,40.6v138H14.4V40.6C14.4,18.2,32.6,0,55,0Z"/>
          <path class="cls-5" d="M109.6,149.1V48.8c0-6.2,5-11.2,11.2-11.2h44.6c6.2,0,11.1,5,11.1,11.2v100.3h-66.9Z"/>
          <path class="cls-5" d="M105.2,93.4h-11.2c-6.2,0-11.2,5-11.2,11.2v33.4c0,6.2,5,11.1,11.2,11.1h11.2"/>
          <path class="cls-5" d="M180.7,76.8h11.1c6.2,0,11.1,5,11.1,11.2v50.2c0,6.2-5,11.1-11.1,11.1h-11.1"/>
          <path class="cls-2" d="M131.9,64.9h22.3"/>
          <path class="cls-2" d="M131.9,87.2h22.3"/>
          <path class="cls-2" d="M131.9,109.5h22.3"/>
          <path class="cls-2" d="M131.9,131.8h22.3"/>
        </g>
      </g>
    </g>
  </g>
</svg>