<svg width="137" height="168" viewBox="0 0 137 168" fill="none" xmlns="http://www.w3.org/2000/svg">
<rect x="0.5" y="0.5" width="136" height="167" rx="7.5" fill="url(#paint0_linear_2_2599)" stroke="url(#paint1_linear_2_2599)"/>
<path d="M43.9911 105.12C43.5351 105.12 43.1351 105.056 42.7911 104.928C42.4471 104.8 42.1071 104.64 41.7711 104.448C41.5791 104.336 41.4591 104.28 41.4111 104.28C41.3791 104.28 41.3511 104.3 41.3271 104.34C41.3111 104.372 41.3031 104.42 41.3031 104.484V105H40.8711V102.72H41.2191C41.2671 103.096 41.4111 103.428 41.6511 103.716C41.8991 104.004 42.1991 104.228 42.5511 104.388C42.9111 104.548 43.2831 104.628 43.6671 104.628C44.2831 104.628 44.7791 104.484 45.1551 104.196C45.5311 103.908 45.7191 103.496 45.7191 102.96C45.7191 102.632 45.6191 102.352 45.4191 102.12C45.2271 101.88 44.9911 101.684 44.7111 101.532C44.4311 101.372 44.0431 101.184 43.5471 100.968C42.9951 100.736 42.5511 100.524 42.2151 100.332C41.8871 100.14 41.6071 99.896 41.3751 99.6C41.1431 99.296 41.0271 98.924 41.0271 98.484C41.0271 97.836 41.2791 97.34 41.7831 96.996C42.2871 96.652 42.9591 96.48 43.7991 96.48C44.1991 96.48 44.5431 96.532 44.8311 96.636C45.1271 96.74 45.4391 96.876 45.7671 97.044C45.9031 97.132 45.9951 97.176 46.0431 97.176C46.0911 97.176 46.1151 97.14 46.1151 97.068V96.528H46.5591V98.82H46.2111C46.1471 98.244 45.9151 97.796 45.5151 97.476C45.1151 97.148 44.6271 96.984 44.0511 96.984C43.4751 96.984 43.0231 97.108 42.6951 97.356C42.3751 97.596 42.2151 97.924 42.2151 98.34C42.2151 98.628 42.3031 98.876 42.4791 99.084C42.6631 99.292 42.8871 99.464 43.1511 99.6C43.4151 99.736 43.7791 99.9 44.2431 100.092C44.8111 100.324 45.2711 100.54 45.6231 100.74C45.9831 100.94 46.2871 101.208 46.5351 101.544C46.7831 101.88 46.9071 102.296 46.9071 102.792C46.9071 103.528 46.6351 104.1 46.0911 104.508C45.5471 104.916 44.8471 105.12 43.9911 105.12ZM50.5315 105.12C49.5635 105.12 48.8115 104.864 48.2755 104.352C47.7475 103.84 47.4835 103.116 47.4835 102.18C47.4835 101.244 47.7515 100.52 48.2875 100.008C48.8235 99.496 49.5715 99.24 50.5315 99.24C51.4915 99.24 52.2355 99.496 52.7635 100.008C53.2995 100.52 53.5675 101.244 53.5675 102.18C53.5675 103.116 53.2995 103.84 52.7635 104.352C52.2355 104.864 51.4915 105.12 50.5315 105.12ZM50.5315 104.664C51.1235 104.664 51.5915 104.448 51.9355 104.016C52.2795 103.584 52.4515 102.972 52.4515 102.18C52.4515 101.396 52.2795 100.792 51.9355 100.368C51.5915 99.936 51.1235 99.72 50.5315 99.72C49.9315 99.72 49.4595 99.936 49.1155 100.368C48.7715 100.792 48.5995 101.396 48.5995 102.18C48.5995 102.972 48.7715 103.584 49.1155 104.016C49.4595 104.448 49.9315 104.664 50.5315 104.664ZM56.9092 105.12C55.9892 105.12 55.2732 104.868 54.7612 104.364C54.2572 103.852 54.0052 103.124 54.0052 102.18C54.0052 101.268 54.2612 100.552 54.7732 100.032C55.2932 99.504 56.0132 99.24 56.9332 99.24C57.3172 99.24 57.6852 99.296 58.0372 99.408C58.3892 99.52 58.6772 99.712 58.9012 99.984L59.0212 99.24H59.3212V101.232H59.0332C58.9532 100.72 58.7532 100.336 58.4332 100.08C58.1212 99.824 57.7252 99.696 57.2452 99.696C56.5732 99.696 56.0532 99.928 55.6852 100.392C55.3252 100.848 55.1452 101.448 55.1452 102.192C55.1452 102.944 55.3172 103.548 55.6612 104.004C56.0132 104.46 56.4772 104.688 57.0532 104.688C57.5812 104.688 58.0132 104.552 58.3492 104.28C58.6852 104 58.9012 103.572 58.9972 102.996H59.3572C59.2932 103.636 59.0572 104.152 58.6492 104.544C58.2412 104.928 57.6612 105.12 56.9092 105.12ZM61.1907 98.268C60.9827 98.268 60.8147 98.208 60.6867 98.088C60.5667 97.96 60.5067 97.8 60.5067 97.608C60.5067 97.408 60.5667 97.248 60.6867 97.128C60.8147 97.008 60.9827 96.948 61.1907 96.948C61.3907 96.948 61.5507 97.008 61.6707 97.128C61.7987 97.248 61.8627 97.408 61.8627 97.608C61.8627 97.8 61.7987 97.96 61.6707 98.088C61.5507 98.208 61.3907 98.268 61.1907 98.268ZM59.8587 104.7H60.0867C60.2787 104.7 60.4307 104.668 60.5427 104.604C60.6627 104.54 60.7227 104.444 60.7227 104.316V100.272C60.7227 100.096 60.6387 100.008 60.4707 100.008C60.4307 100.008 60.3707 100.024 60.2907 100.056C60.2107 100.08 60.1547 100.096 60.1227 100.104L60.0387 99.828L61.5507 99.3H61.8507V104.316C61.8507 104.444 61.9067 104.54 62.0187 104.604C62.1387 104.668 62.2947 104.7 62.4867 104.7H62.7147V105H59.8587V104.7ZM64.2983 101.904C64.2903 101.968 64.2863 102.064 64.2863 102.192C64.2863 102.944 64.4623 103.548 64.8143 104.004C65.1743 104.46 65.6463 104.688 66.2303 104.688C66.7583 104.688 67.1943 104.552 67.5383 104.28C67.8823 104 68.1063 103.572 68.2103 102.996H68.5583C68.4943 103.636 68.2543 104.152 67.8383 104.544C67.4223 104.928 66.8383 105.12 66.0863 105.12C65.1583 105.12 64.4343 104.868 63.9143 104.364C63.4023 103.852 63.1463 103.124 63.1463 102.18C63.1463 101.268 63.4023 100.552 63.9143 100.032C64.4343 99.504 65.1463 99.24 66.0503 99.24C66.8823 99.24 67.5143 99.464 67.9463 99.912C68.3863 100.352 68.6063 100.924 68.6063 101.628V101.904H64.2983ZM66.0863 99.696C65.6143 99.696 65.2303 99.852 64.9343 100.164C64.6383 100.476 64.4423 100.9 64.3463 101.436H67.6103C67.5943 100.988 67.4623 100.588 67.2143 100.236C66.9743 99.876 66.5983 99.696 66.0863 99.696ZM73.2704 103.908C73.2304 104.324 73.0624 104.632 72.7664 104.832C72.4784 105.024 72.1224 105.12 71.6984 105.12C71.0984 105.12 70.6424 104.996 70.3304 104.748C70.0184 104.5 69.8624 104.088 69.8624 103.512V99.828H68.9264V99.36H69.8624V98.328L70.7024 97.764H70.9904V99.36H72.6824V99.828H70.9904V103.488C70.9904 103.896 71.0624 104.2 71.2064 104.4C71.3584 104.592 71.5904 104.688 71.9024 104.688C72.1504 104.688 72.3624 104.628 72.5384 104.508C72.7224 104.38 72.8304 104.18 72.8624 103.908H73.2704ZM75.2679 98.136L76.6479 96.852C76.6559 96.844 76.7079 96.796 76.8039 96.708C76.8999 96.62 77.0239 96.576 77.1759 96.576C77.3039 96.576 77.4039 96.612 77.4759 96.684C77.5479 96.756 77.5839 96.84 77.5839 96.936C77.5839 97.12 77.4479 97.288 77.1759 97.44L75.4719 98.436L75.2679 98.136ZM75.1719 105.12C74.6839 105.12 74.2999 105.008 74.0199 104.784C73.7479 104.552 73.6119 104.24 73.6119 103.848C73.6119 103.264 73.9159 102.784 74.5239 102.408C75.1399 102.032 76.0839 101.756 77.3559 101.58V100.956C77.3559 100.548 77.2279 100.24 76.9719 100.032C76.7159 99.824 76.3759 99.72 75.9519 99.72C75.6479 99.72 75.3679 99.78 75.1119 99.9C74.8559 100.02 74.7279 100.148 74.7279 100.284C74.7279 100.332 74.7359 100.392 74.7519 100.464C74.7679 100.536 74.7759 100.592 74.7759 100.632C74.7759 100.752 74.7399 100.856 74.6679 100.944C74.5959 101.032 74.4799 101.076 74.3199 101.076C74.1839 101.076 74.0679 101.028 73.9719 100.932C73.8839 100.828 73.8399 100.684 73.8399 100.5C73.8399 100.1 74.0679 99.792 74.5239 99.576C74.9799 99.352 75.5359 99.24 76.1919 99.24C76.9279 99.24 77.4959 99.404 77.8959 99.732C78.2959 100.052 78.4959 100.492 78.4959 101.052V104.304C78.4959 104.56 78.5839 104.688 78.7599 104.688C78.8719 104.688 79.0159 104.656 79.1919 104.592V104.796C79.0719 104.9 78.9199 104.98 78.7359 105.036C78.5519 105.092 78.3639 105.12 78.1719 105.12C77.9559 105.12 77.7679 105.076 77.6079 104.988C77.4479 104.9 77.3679 104.756 77.3679 104.556V104.196C77.0479 104.548 76.6919 104.792 76.2999 104.928C75.9159 105.056 75.5399 105.12 75.1719 105.12ZM75.7239 104.64C76.0199 104.64 76.3279 104.544 76.6479 104.352C76.9759 104.16 77.2119 103.94 77.3559 103.692V101.976C76.5079 102.144 75.8559 102.388 75.3999 102.708C74.9519 103.02 74.7279 103.372 74.7279 103.764C74.7279 104.052 74.8159 104.272 74.9919 104.424C75.1679 104.568 75.4119 104.64 75.7239 104.64ZM83.0182 99.24C83.2502 99.24 83.4462 99.284 83.6062 99.372C83.7742 99.452 83.8582 99.58 83.8582 99.756C83.8582 99.908 83.8182 100.024 83.7382 100.104C83.6662 100.184 83.5622 100.224 83.4262 100.224C83.3382 100.224 83.2662 100.208 83.2102 100.176C83.1622 100.144 83.1182 100.1 83.0782 100.044C83.0222 99.988 82.9702 99.948 82.9222 99.924C82.8742 99.892 82.8062 99.876 82.7182 99.876C82.5102 99.876 82.3102 99.952 82.1182 100.104C81.9342 100.256 81.7822 100.476 81.6622 100.764C81.5422 101.052 81.4742 101.384 81.4582 101.76V104.316C81.4582 104.444 81.5182 104.54 81.6382 104.604C81.7582 104.668 81.9142 104.7 82.1062 104.7H82.3102V105H79.4662V104.7H79.6942C79.8862 104.7 80.0382 104.668 80.1502 104.604C80.2702 104.54 80.3302 104.444 80.3302 104.316V100.284C80.3302 100.116 80.2502 100.032 80.0902 100.032C80.0102 100.032 79.8902 100.064 79.7302 100.128L79.6582 99.864L81.1942 99.324H81.4582V100.428C81.5702 100.084 81.7702 99.8 82.0582 99.576C82.3462 99.352 82.6662 99.24 83.0182 99.24ZM85.3618 98.268C85.1538 98.268 84.9858 98.208 84.8578 98.088C84.7378 97.96 84.6778 97.8 84.6778 97.608C84.6778 97.408 84.7378 97.248 84.8578 97.128C84.9858 97.008 85.1538 96.948 85.3618 96.948C85.5618 96.948 85.7218 97.008 85.8418 97.128C85.9698 97.248 86.0338 97.408 86.0338 97.608C86.0338 97.8 85.9698 97.96 85.8418 98.088C85.7218 98.208 85.5618 98.268 85.3618 98.268ZM84.0298 104.7H84.2578C84.4498 104.7 84.6018 104.668 84.7138 104.604C84.8338 104.54 84.8938 104.444 84.8938 104.316V100.272C84.8938 100.096 84.8098 100.008 84.6418 100.008C84.6018 100.008 84.5418 100.024 84.4618 100.056C84.3818 100.08 84.3258 100.096 84.2938 100.104L84.2098 99.828L85.7218 99.3H86.0218V104.316C86.0218 104.444 86.0778 104.54 86.1898 104.604C86.3098 104.668 86.4658 104.7 86.6578 104.7H86.8858V105H84.0298V104.7ZM90.3654 105.12C89.3974 105.12 88.6454 104.864 88.1094 104.352C87.5814 103.84 87.3174 103.116 87.3174 102.18C87.3174 101.244 87.5854 100.52 88.1214 100.008C88.6574 99.496 89.4054 99.24 90.3654 99.24C91.3254 99.24 92.0694 99.496 92.5974 100.008C93.1334 100.52 93.4014 101.244 93.4014 102.18C93.4014 103.116 93.1334 103.84 92.5974 104.352C92.0694 104.864 91.3254 105.12 90.3654 105.12ZM90.3654 104.664C90.9574 104.664 91.4254 104.448 91.7694 104.016C92.1134 103.584 92.2854 102.972 92.2854 102.18C92.2854 101.396 92.1134 100.792 91.7694 100.368C91.4254 99.936 90.9574 99.72 90.3654 99.72C89.7654 99.72 89.2934 99.936 88.9494 100.368C88.6054 100.792 88.4334 101.396 88.4334 102.18C88.4334 102.972 88.6054 103.584 88.9494 104.016C89.2934 104.448 89.7654 104.664 90.3654 104.664ZM47.0714 116.12C46.2154 116.12 45.5234 115.928 44.9954 115.544C44.4674 115.16 44.2034 114.632 44.2034 113.96C44.2034 113.384 44.3834 112.908 44.7434 112.532C45.1114 112.148 45.6314 111.764 46.3034 111.38C45.9514 111.004 45.6754 110.62 45.4754 110.228C45.2754 109.836 45.1754 109.492 45.1754 109.196C45.1754 108.652 45.3634 108.236 45.7394 107.948C46.1154 107.652 46.6194 107.504 47.2514 107.504C47.8274 107.504 48.2954 107.632 48.6554 107.888C49.0234 108.144 49.2074 108.544 49.2074 109.088C49.2074 109.552 49.0474 109.948 48.7274 110.276C48.4154 110.604 47.9794 110.936 47.4194 111.272C47.7874 111.68 48.2194 112.14 48.7154 112.652C49.2194 113.156 49.5234 113.46 49.6274 113.564C49.6274 113.564 49.8354 113.772 50.2514 114.188C50.7154 113.572 51.0034 112.868 51.1154 112.076H51.6674C51.6114 112.54 51.4874 112.984 51.2954 113.408C51.1114 113.824 50.8754 114.2 50.5874 114.536L51.4874 115.46L52.0154 116H50.6714L49.8314 115.16C49.0634 115.8 48.1434 116.12 47.0714 116.12ZM47.1554 110.924C47.6194 110.636 47.9754 110.356 48.2234 110.084C48.4794 109.804 48.6074 109.472 48.6074 109.088C48.6074 108.728 48.5034 108.452 48.2954 108.26C48.0874 108.068 47.7994 107.972 47.4314 107.972C47.0794 107.972 46.7954 108.068 46.5794 108.26C46.3634 108.452 46.2554 108.732 46.2554 109.1C46.2554 109.628 46.5554 110.236 47.1554 110.924ZM47.2154 115.64C47.6474 115.64 48.0554 115.568 48.4394 115.424C48.8314 115.28 49.1794 115.072 49.4834 114.8C48.7634 114.088 48.1954 113.516 47.7794 113.084C47.3714 112.652 47.0194 112.256 46.7234 111.896C46.2914 112.208 45.9514 112.524 45.7034 112.844C45.4554 113.156 45.3314 113.516 45.3314 113.924C45.3314 114.476 45.5154 114.9 45.8834 115.196C46.2514 115.492 46.6954 115.64 47.2154 115.64ZM55.3545 115.688H55.7025C55.9345 115.688 56.1065 115.656 56.2185 115.592C56.3385 115.52 56.3985 115.408 56.3985 115.256V108.356C56.3985 108.204 56.3385 108.096 56.2185 108.032C56.1065 107.96 55.9345 107.924 55.7025 107.924H55.3545V107.6H57.6465L60.4425 114.02L63.2625 107.6H65.6625V107.924H65.3145C65.0825 107.924 64.9065 107.96 64.7865 108.032C64.6745 108.096 64.6185 108.204 64.6185 108.356V115.256C64.6185 115.408 64.6745 115.52 64.7865 115.592C64.9065 115.656 65.0825 115.688 65.3145 115.688H65.6625V116H62.3865V115.688H62.7345C63.2065 115.688 63.4425 115.544 63.4425 115.256V108.632L60.5505 115.088H59.8545L56.9985 108.656V115.256C56.9985 115.544 57.2305 115.688 57.6945 115.688H58.0545V116H55.3545V115.688ZM67.5983 116.12C67.1103 116.12 66.7263 116.008 66.4463 115.784C66.1743 115.552 66.0383 115.24 66.0383 114.848C66.0383 114.264 66.3423 113.784 66.9503 113.408C67.5663 113.032 68.5103 112.756 69.7823 112.58V111.956C69.7823 111.548 69.6543 111.24 69.3983 111.032C69.1423 110.824 68.8023 110.72 68.3783 110.72C68.0743 110.72 67.7943 110.78 67.5383 110.9C67.2823 111.02 67.1543 111.148 67.1543 111.284C67.1543 111.332 67.1623 111.392 67.1783 111.464C67.1943 111.536 67.2023 111.592 67.2023 111.632C67.2023 111.752 67.1663 111.856 67.0943 111.944C67.0223 112.032 66.9063 112.076 66.7463 112.076C66.6103 112.076 66.4943 112.028 66.3983 111.932C66.3103 111.828 66.2663 111.684 66.2663 111.5C66.2663 111.1 66.4943 110.792 66.9503 110.576C67.4063 110.352 67.9623 110.24 68.6183 110.24C69.3543 110.24 69.9223 110.404 70.3223 110.732C70.7223 111.052 70.9223 111.492 70.9223 112.052V115.304C70.9223 115.56 71.0103 115.688 71.1863 115.688C71.2983 115.688 71.4423 115.656 71.6183 115.592V115.796C71.4983 115.9 71.3463 115.98 71.1623 116.036C70.9783 116.092 70.7903 116.12 70.5983 116.12C70.3823 116.12 70.1943 116.076 70.0343 115.988C69.8743 115.9 69.7943 115.756 69.7943 115.556V115.196C69.4743 115.548 69.1183 115.792 68.7263 115.928C68.3423 116.056 67.9663 116.12 67.5983 116.12ZM68.1503 115.64C68.4463 115.64 68.7543 115.544 69.0743 115.352C69.4023 115.16 69.6383 114.94 69.7823 114.692V112.976C68.9343 113.144 68.2823 113.388 67.8263 113.708C67.3783 114.02 67.1543 114.372 67.1543 114.764C67.1543 115.052 67.2423 115.272 67.4183 115.424C67.5943 115.568 67.8383 115.64 68.1503 115.64ZM75.4446 110.24C75.6766 110.24 75.8726 110.284 76.0326 110.372C76.2006 110.452 76.2846 110.58 76.2846 110.756C76.2846 110.908 76.2446 111.024 76.1646 111.104C76.0926 111.184 75.9886 111.224 75.8526 111.224C75.7646 111.224 75.6926 111.208 75.6366 111.176C75.5886 111.144 75.5446 111.1 75.5046 111.044C75.4486 110.988 75.3966 110.948 75.3486 110.924C75.3006 110.892 75.2326 110.876 75.1446 110.876C74.9366 110.876 74.7366 110.952 74.5446 111.104C74.3606 111.256 74.2086 111.476 74.0886 111.764C73.9686 112.052 73.9006 112.384 73.8846 112.76V115.316C73.8846 115.444 73.9446 115.54 74.0646 115.604C74.1846 115.668 74.3406 115.7 74.5326 115.7H74.7366V116H71.8926V115.7H72.1206C72.3126 115.7 72.4646 115.668 72.5766 115.604C72.6966 115.54 72.7566 115.444 72.7566 115.316V111.284C72.7566 111.116 72.6766 111.032 72.5166 111.032C72.4366 111.032 72.3166 111.064 72.1566 111.128L72.0846 110.864L73.6206 110.324H73.8846V111.428C73.9966 111.084 74.1966 110.8 74.4846 110.576C74.7726 110.352 75.0926 110.24 75.4446 110.24ZM79.3722 116.12C78.4522 116.12 77.7362 115.868 77.2242 115.364C76.7202 114.852 76.4682 114.124 76.4682 113.18C76.4682 112.268 76.7242 111.552 77.2362 111.032C77.7562 110.504 78.4762 110.24 79.3962 110.24C79.7802 110.24 80.1482 110.296 80.5002 110.408C80.8522 110.52 81.1402 110.712 81.3642 110.984L81.4842 110.24H81.7842V112.232H81.4962C81.4162 111.72 81.2162 111.336 80.8962 111.08C80.5842 110.824 80.1882 110.696 79.7082 110.696C79.0362 110.696 78.5162 110.928 78.1482 111.392C77.7882 111.848 77.6082 112.448 77.6082 113.192C77.6082 113.944 77.7802 114.548 78.1242 115.004C78.4762 115.46 78.9402 115.688 79.5162 115.688C80.0442 115.688 80.4762 115.552 80.8122 115.28C81.1482 115 81.3642 114.572 81.4602 113.996H81.8202C81.7562 114.636 81.5202 115.152 81.1122 115.544C80.7042 115.928 80.1242 116.12 79.3722 116.12ZM83.9057 116.12C83.4177 116.12 83.0337 116.008 82.7537 115.784C82.4817 115.552 82.3457 115.24 82.3457 114.848C82.3457 114.264 82.6497 113.784 83.2577 113.408C83.8737 113.032 84.8177 112.756 86.0897 112.58V111.956C86.0897 111.548 85.9617 111.24 85.7057 111.032C85.4497 110.824 85.1097 110.72 84.6857 110.72C84.3817 110.72 84.1017 110.78 83.8457 110.9C83.5897 111.02 83.4617 111.148 83.4617 111.284C83.4617 111.332 83.4697 111.392 83.4857 111.464C83.5017 111.536 83.5097 111.592 83.5097 111.632C83.5097 111.752 83.4737 111.856 83.4017 111.944C83.3297 112.032 83.2137 112.076 83.0537 112.076C82.9177 112.076 82.8017 112.028 82.7057 111.932C82.6177 111.828 82.5737 111.684 82.5737 111.5C82.5737 111.1 82.8017 110.792 83.2577 110.576C83.7137 110.352 84.2697 110.24 84.9257 110.24C85.6617 110.24 86.2297 110.404 86.6297 110.732C87.0297 111.052 87.2297 111.492 87.2297 112.052V115.304C87.2297 115.56 87.3177 115.688 87.4937 115.688C87.6057 115.688 87.7497 115.656 87.9257 115.592V115.796C87.8057 115.9 87.6537 115.98 87.4697 116.036C87.2857 116.092 87.0977 116.12 86.9057 116.12C86.6897 116.12 86.5017 116.076 86.3417 115.988C86.1817 115.9 86.1017 115.756 86.1017 115.556V115.196C85.7817 115.548 85.4257 115.792 85.0337 115.928C84.6497 116.056 84.2737 116.12 83.9057 116.12ZM84.4577 115.64C84.7537 115.64 85.0617 115.544 85.3817 115.352C85.7097 115.16 85.9457 114.94 86.0897 114.692V112.976C85.2417 113.144 84.5897 113.388 84.1337 113.708C83.6857 114.02 83.4617 114.372 83.4617 114.764C83.4617 115.052 83.5497 115.272 83.7257 115.424C83.9017 115.568 84.1457 115.64 84.4577 115.64ZM90.66 116.12C89.756 116.12 89.116 115.868 88.74 115.364L88.608 116.096H88.308V114.308H88.608C88.696 114.724 88.892 115.056 89.196 115.304C89.5 115.544 89.88 115.664 90.336 115.664C90.8 115.664 91.156 115.58 91.404 115.412C91.66 115.244 91.788 115 91.788 114.68C91.788 114.432 91.676 114.24 91.452 114.104C91.228 113.96 90.884 113.808 90.42 113.648C89.988 113.488 89.636 113.34 89.364 113.204C89.1 113.06 88.872 112.868 88.68 112.628C88.488 112.38 88.392 112.068 88.392 111.692C88.392 111.228 88.572 110.872 88.932 110.624C89.292 110.368 89.796 110.24 90.444 110.24C90.804 110.24 91.156 110.3 91.5 110.42C91.844 110.54 92.108 110.716 92.292 110.948L92.424 110.24H92.724V111.98H92.424C92.328 111.604 92.136 111.3 91.848 111.068C91.568 110.836 91.208 110.72 90.768 110.72C90.384 110.72 90.076 110.796 89.844 110.948C89.612 111.1 89.496 111.308 89.496 111.572C89.496 111.86 89.616 112.084 89.856 112.244C90.104 112.404 90.476 112.568 90.972 112.736C91.396 112.888 91.736 113.028 91.992 113.156C92.248 113.276 92.464 113.452 92.64 113.684C92.824 113.908 92.916 114.196 92.916 114.548C92.916 115.076 92.704 115.472 92.28 115.736C91.864 115.992 91.324 116.12 90.66 116.12Z" fill="#FFF2E0"/>
<path fill-rule="evenodd" clip-rule="evenodd" d="M55.6887 55.1488C56.2132 54.865 56.855 54.9962 57.2392 55.4657L63.7001 63.3625L67.895 55.6719C68.1216 55.2564 68.5433 55.0001 69 55.0001C69.4567 55.0001 69.8784 55.2564 70.105 55.6719L74.2999 63.3625L80.7608 55.4657C81.145 54.9962 81.7868 54.865 82.3113 55.1488C82.8357 55.4326 83.105 56.0569 82.9619 56.6568L79.1437 72.6567C79.0021 73.2503 78.493 73.6667 77.909 73.6667H60.091C59.507 73.6667 58.9979 73.2503 58.8563 72.6567L55.0381 56.6568C54.895 56.0569 55.1643 55.4326 55.6887 55.1488ZM58.8151 61.4895L61.0847 71H76.9153L79.1849 61.4895L75.0572 66.5344C74.7878 66.8636 74.3825 67.0351 73.9705 66.9941C73.5584 66.953 73.1912 66.7047 72.9858 66.3282L69 59.0208L65.0142 66.3282C64.8088 66.7047 64.4416 66.953 64.0295 66.9941C63.6175 67.0351 63.2122 66.8636 62.9428 66.5344L58.8151 61.4895ZM58.8183 77.6667C58.8183 76.9303 59.3881 76.3333 60.091 76.3333H77.909C78.6119 76.3333 79.1817 76.9303 79.1817 77.6667C79.1817 78.403 78.6119 79 77.909 79H60.091C59.3881 79 58.8183 78.403 58.8183 77.6667Z" fill="#EBC894"/>
<path fill-rule="evenodd" clip-rule="evenodd" d="M55.6887 55.1488C56.2132 54.865 56.855 54.9962 57.2392 55.4657L63.7001 63.3625L67.895 55.6719C68.1216 55.2564 68.5433 55.0001 69 55.0001C69.4567 55.0001 69.8784 55.2564 70.105 55.6719L74.2999 63.3625L80.7608 55.4657C81.145 54.9962 81.7868 54.865 82.3113 55.1488C82.8357 55.4326 83.105 56.0569 82.9619 56.6568L79.1437 72.6567C79.0021 73.2503 78.493 73.6667 77.909 73.6667H60.091C59.507 73.6667 58.9979 73.2503 58.8563 72.6567L55.0381 56.6568C54.895 56.0569 55.1643 55.4326 55.6887 55.1488ZM58.8151 61.4895L61.0847 71H76.9153L79.1849 61.4895L75.0572 66.5344C74.7878 66.8636 74.3825 67.0351 73.9705 66.9941C73.5584 66.953 73.1912 66.7047 72.9858 66.3282L69 59.0208L65.0142 66.3282C64.8088 66.7047 64.4416 66.953 64.0295 66.9941C63.6175 67.0351 63.2122 66.8636 62.9428 66.5344L58.8151 61.4895ZM58.8183 77.6667C58.8183 76.9303 59.3881 76.3333 60.091 76.3333H77.909C78.6119 76.3333 79.1817 76.9303 79.1817 77.6667C79.1817 78.403 78.6119 79 77.909 79H60.091C59.3881 79 58.8183 78.403 58.8183 77.6667Z" fill="#EBC894"/>
<defs>
<linearGradient id="paint0_linear_2_2599" x1="3.42386e-07" y1="-8.5" x2="156.5" y2="208" gradientUnits="userSpaceOnUse">
<stop stop-color="#03131C"/>
<stop offset="0.427976" stop-color="#082331"/>
<stop offset="0.975364" stop-color="#03131C"/>
</linearGradient>
<linearGradient id="paint1_linear_2_2599" x1="6" y1="-8" x2="143.5" y2="206.5" gradientUnits="userSpaceOnUse">
<stop stop-color="#EBC894"/>
<stop offset="0.244944" stop-color="#EBC894" stop-opacity="0"/>
<stop offset="0.51282" stop-color="#EBC894" stop-opacity="0"/>
<stop offset="1" stop-color="#EBC894"/>
</linearGradient>
</defs>
</svg>
