<svg width="16" height="16" viewBox="0 0 16 16" fill="none" xmlns="http://www.w3.org/2000/svg">
<path d="M4.94338 13.8937H5.44338V13.3937V6.16876V5.66876H4.94338H3.9929C4.42116 5.62154 4.79739 5.45218 5.08211 5.17913C5.42075 4.85434 5.60131 4.40952 5.60131 3.9342H5.60143L5.60119 3.9232C5.59078 3.45052 5.41471 3.00874 5.07976 2.68479C4.74385 2.3599 4.28192 2.18587 3.75854 2.18587C3.23666 2.18587 2.76919 2.35883 2.42818 2.68043C2.08621 3.00294 1.9 3.44885 1.9 3.9342C1.9 4.83925 2.54398 5.56215 3.48403 5.66876H2.54196H2.04196V6.16876V13.3937V13.8937H2.54196H4.94338ZM8.6514 13.8937H9.1514V13.3937V9.35897C9.1514 9.14535 9.17032 9.01796 9.19292 8.96296L9.19427 8.95961C9.32024 8.64656 9.57022 8.3947 9.96255 8.3947C10.2496 8.3947 10.3907 8.49273 10.4834 8.62887C10.5979 8.79687 10.6791 9.08836 10.6791 9.52851V13.3937V13.8937H11.1791H13.5803H14.0803V13.3937V9.251C14.0803 8.05536 13.7603 7.10736 13.1581 6.45404C12.5522 5.79672 11.717 5.49922 10.8156 5.49922C10.1136 5.49922 9.57096 5.68534 9.15146 5.95905V5.66876H8.65146H6.25007H5.72628L5.7506 6.19198C5.76562 6.51497 5.76585 8.30213 5.76188 10.0343C5.75992 10.8947 5.75696 11.7339 5.7545 12.3581L5.75136 13.1088L5.75042 13.3176L5.75016 13.3725L5.75009 13.3865L5.75008 13.3901L5.75007 13.391L5.75007 13.3912L6.25007 13.3937L5.75007 13.3912L5.74765 13.8937H6.25007H8.6514ZM0.5 1.14614C0.5 0.801019 0.790447 0.5 1.17491 0.5H14.8251C15.2095 0.5 15.5 0.801028 15.5 1.14614V14.8539C15.5 15.1991 15.2096 15.5 14.8251 15.5L1.17491 15.5C0.790387 15.5 0.5 15.1991 0.5 14.8539V1.14614Z" fill="#03131C" stroke="#03131C"/>
</svg>
